<?xml version="1.0" standalone="no"?>
<!DOCTYPE svg PUBLIC "-//W3C//DTD SVG 1.1//EN" "http://www.w3.org/Graphics/SVG/1.1/DTD/svg11.dtd" >
<svg xmlns="http://www.w3.org/2000/svg" xmlns:xlink="http://www.w3.org/1999/xlink" version="1.1">
<metadata>
Created by FontForge 20190801 at Tue Apr  2 19:17:18 2013
 By Unknown
Copyright (c) 1999, 2001, 2006 Nick Curtis. All Rights Reserved. Distributed under the 1001Fonts Free For Commercial Use License (FFC) http://www.1001fonts.com/licenses/ffc.html - PayPal donations in any amount may be made at nicksfonts.com.
</metadata>
<defs>
<font id="TooneyNoodleNF" horiz-adv-x="719" >
  <font-face 
    font-family="Tooney Noodle NF"
    font-weight="400"
    font-stretch="normal"
    units-per-em="1000"
    panose-1="2 8 8 3 3 3 6 2 3 4"
    ascent="800"
    descent="-200"
    x-height="655"
    cap-height="656"
    bbox="-41 -305 2142 974"
    underline-thickness="165"
    underline-position="-130"
    stemh="28"
    stemv="28"
    unicode-range="U+0020-2212"
  />
<missing-glyph horiz-adv-x="275" 
 />
    <glyph glyph-name=".notdef" horiz-adv-x="275" 
 />
    <glyph glyph-name="space" unicode=" " horiz-adv-x="275" 
 />
    <glyph glyph-name="exclam" unicode="!" horiz-adv-x="351" 
d="M285 148c0 52 -38 89 -89 89c-52 0 -90 -37 -90 -89c0 -49 41 -90 90 -90s89 41 89 90zM323 614c0 12 -11 18 -22 18s-23 -2 -34 -3c-24 -1 -48 -2 -71 -2c-24 0 -48 1 -72 2c-11 1 -23 3 -34 3s-22 -6 -22 -18c0 -20 28 -26 44 -26l34 -324h100l34 324c15 0 43 6 43 26z
M351 611c0 -24 -22 -45 -46 -49l-31 -301l-16 -15c33 -21 54 -59 54 -98c0 -41 -21 -81 -57 -101c-20 -35 -59 -56 -99 -56c-65 0 -117 52 -117 117c0 38 19 74 50 96c-6 4 -10 10 -11 17l-31 300c-26 1 -47 24 -47 50c0 13 6 26 15 35l41 40c8 8 19 14 32 14
c39 -2 74 -5 110 -5c35 0 71 5 107 5c25 0 46 -24 46 -49z" />
    <glyph glyph-name="quotedbl" unicode="&#x22;" horiz-adv-x="412" 
d="M225 710l-79 56l-78 -201l35 -25zM385 710l-79 56l-79 -201l36 -25zM412 709c0 -6 -1 -11 -5 -16l-124 -162c-12 -16 -29 -30 -44 -45c-5 -5 -11 -7 -18 -7c-6 0 -11 2 -16 5l-44 31c-1 3 -1 6 -1 10c0 3 0 7 1 10l37 94l-74 -98c-10 -13 -32 -32 -45 -45
c-5 -5 -11 -7 -18 -7c-6 0 -11 2 -16 5l-44 31c-1 3 -1 6 -1 10c0 3 0 7 1 10l79 201c2 4 5 8 8 11l39 40c5 5 12 7 19 7c6 0 11 -2 16 -5l77 -56c3 7 2 8 8 14l40 40c5 5 12 7 19 7c6 0 11 -2 16 -5l79 -57c7 -5 11 -14 11 -23z" />
    <glyph glyph-name="numbersign" unicode="#" horiz-adv-x="754" 
d="M426 426l-11 -51h-51l10 51h52zM728 579l-3 8c-5 -6 -11 -10 -17 -10h-100l21 100c1 6 6 11 13 15l-19 5h-133l-19 -5c5 -3 8 -7 8 -11c0 -2 -1 -3 -1 -4l-21 -100h-51l21 100c1 6 6 11 14 15l-19 5h-134l-19 -5c5 -3 8 -8 8 -13c0 0 0 -1 -21 -102h-101
c-6 0 -10 4 -13 10c-7 -12 -8 -16 -8 -20c-29 -137 -30 -140 -31 -143l3 -9c6 7 12 11 18 11h100l-11 -51h-100c-6 0 -11 4 -13 11l-7 -9c0 -4 -1 -8 -30 -145c0 -1 -1 -3 -1 -5c0 -3 1 -7 2 -13c5 7 12 11 18 11h100l-21 -101c-1 -6 -7 -11 -14 -15l7 -5h155l9 5
c-4 2 -7 7 -7 15l21 101h52l-22 -101c-1 -6 -6 -11 -14 -15l8 -5h155l9 5c-5 3 -8 7 -8 11c0 2 1 3 1 4l21 101h100c6 0 10 -4 13 -11c7 11 8 15 8 18l31 145l-3 9c-5 -7 -11 -11 -17 -11h-101l11 51h100c6 0 11 -4 13 -11c7 12 8 15 9 19l28 133c0 4 1 8 2 12zM726 615
c18 0 28 -18 28 -37c0 -5 0 -12 -1 -17l-28 -133c-3 -13 -7 -23 -16 -32c2 -6 5 -14 5 -20c0 -5 -2 -11 -4 -16c-9 -46 -21 -92 -28 -138c-3 -15 -15 -34 -33 -35c-4 -17 -13 -41 -36 -41c-9 0 -17 3 -22 10h-43l-7 -30c4 -5 6 -11 6 -17c0 -19 -17 -29 -35 -32
c1 -3 1 -6 1 -9c0 -20 -20 -32 -40 -32h-148c-10 0 -17 2 -25 9c-6 -5 -17 -9 -24 -9h-146c-18 0 -45 8 -45 32c0 10 6 20 16 25l13 63h-62c-6 -7 -14 -10 -22 -10c-19 0 -30 18 -30 38c0 4 1 9 2 13l30 144c1 7 9 18 15 23c-2 6 -6 14 -6 21c0 45 22 102 31 147
c2 8 3 17 8 23c7 9 13 18 27 19c3 17 13 40 34 40c9 0 17 -3 23 -10h44l6 29c-4 5 -6 11 -6 18c0 19 17 29 35 32c-1 3 -1 6 -1 9c0 19 19 32 39 32h141c14 0 22 -2 34 -9c8 5 16 9 26 9h152c15 0 36 -13 36 -31c0 -10 -5 -21 -15 -26l-13 -63h62c6 7 14 11 22 11z" />
    <glyph glyph-name="dollar" unicode="$" horiz-adv-x="458" 
d="M429 568c0 2 1 3 1 5c0 14 -13 22 -24 22c-9 0 -18 -5 -20 -17l-1 -6c-18 3 -36 5 -53 5c-25 0 -50 -4 -72 -11v32c0 14 -11 22 -22 22s-22 -7 -22 -22v-51c-48 -28 -78 -77 -78 -143c0 -18 2 -36 6 -55c5 -25 12 -42 12 -52c0 -11 -7 -16 -28 -16v15c0 16 -11 24 -22 24
s-21 -7 -21 -20c0 -59 -3 -119 -17 -178c0 -13 7 -24 22 -24c11 0 21 6 22 19l1 10c38 0 73 6 103 20v-42c0 -14 11 -22 22 -22s22 7 22 22v70c6 5 11 10 16 16c25 30 34 63 34 97c0 39 -12 80 -21 121c0 9 19 11 38 11c8 0 16 0 23 -1c-5 -18 -5 -20 -5 -22
c0 -13 12 -21 23 -21c9 0 18 5 21 17c6 58 19 117 40 175zM455 558c-19 -51 -31 -106 -38 -168c-1 -11 -6 -20 -13 -27l-41 -41c-7 -7 -16 -11 -27 -13c1 -7 1 -15 1 -22c0 -39 -10 -78 -40 -114c-3 -3 -6 -7 -10 -10c0 -10 1 -22 1 -35c0 -22 -3 -47 -17 -61l-39 -39
c-8 -8 -18 -12 -34 -12c-27 0 -50 22 -50 50c0 1 -2 2 -5 2c-12 0 -41 -7 -47 -8c-3 -7 -7 -13 -13 -18c-9 -8 -21 -12 -32 -12c-26 0 -51 19 -51 47c0 3 0 7 1 11c11 50 17 100 17 172c0 13 7 25 16 34l38 38c-1 10 -2 21 -2 30c0 67 26 122 76 159c1 1 2 2 2 3v12
c0 21 1 45 15 59l39 39c8 8 19 14 36 14c26 0 48 -21 49 -47c14 2 28 3 43 3c12 0 25 -1 38 -2c10 14 24 19 38 19c26 0 52 -20 52 -47c0 -5 -1 -10 -3 -16z" />
    <glyph glyph-name="percent" unicode="%" horiz-adv-x="724" 
d="M225 552c0 -11 -10 -21 -21 -21c-12 0 -21 10 -21 21c0 12 9 22 21 22s21 -10 21 -22zM575 246c0 -11 -9 -21 -21 -21s-21 10 -21 21c0 12 10 21 21 21c12 0 21 -9 21 -21zM346 552c0 79 -64 142 -142 142s-142 -63 -142 -142c0 -78 64 -142 142 -142s142 64 142 142z
M627 694h-141l-355 -590h141zM696 246c0 78 -64 142 -142 142s-142 -64 -142 -142s64 -142 142 -142s142 64 142 142zM724 246c0 -50 -23 -96 -58 -127c-30 -51 -86 -83 -146 -83c-85 0 -157 63 -168 147c-19 -31 -38 -62 -56 -93c-3 -4 -10 -9 -17 -12
c-6 -10 -12 -19 -17 -29c-4 -6 -17 -13 -24 -13h-141c-16 0 -28 14 -28 29c0 4 1 9 4 13l169 280c-22 -10 -46 -16 -72 -16c-94 0 -170 76 -170 170c0 49 22 95 58 127c31 51 86 83 146 83c85 0 157 -63 168 -148l56 94c3 4 10 9 17 12c6 9 12 19 17 29c4 5 17 13 24 13h141
c16 0 27 -13 27 -28c0 -5 -1 -9 -4 -14l-168 -280c22 10 46 16 72 16c94 0 170 -76 170 -170z" />
    <glyph glyph-name="ampersand" unicode="&#x26;" horiz-adv-x="721" 
d="M351 239c-17 -9 -41 -18 -60 -18c-23 0 -57 12 -57 40c0 23 27 36 46 41c25 -19 48 -42 71 -63zM695 175c0 11 -10 17 -20 17c-13 0 -25 -9 -34 -18l-63 55c23 39 40 83 46 128c3 0 6 -1 9 -1c14 0 36 6 36 24c0 11 -10 20 -20 21h-63c-48 0 -92 19 -137 19
c-12 0 -20 -10 -20 -21c0 -16 15 -22 29 -23l-8 -32c-15 14 -163 148 -163 154c0 7 24 8 29 8c15 0 35 -2 50 -7c-4 -7 -7 -14 -7 -22c0 -12 8 -21 21 -21c8 0 15 5 19 12c4 8 6 17 10 25c6 16 13 31 21 46c14 30 33 57 49 86c2 4 3 8 3 12c0 10 -7 18 -18 18
c-15 0 -27 -16 -33 -28c-40 18 -81 26 -124 26c-83 0 -167 -63 -167 -158c0 -23 6 -46 17 -67c-54 -39 -89 -100 -89 -167c0 -123 108 -206 225 -206c64 0 137 32 188 69l64 -57c-7 -7 -13 -16 -13 -26c0 -11 9 -20 21 -20c7 0 12 3 16 8c38 44 76 88 119 131c4 4 7 10 7 15
zM721 177c0 -15 -4 -28 -15 -38c-54 -51 -106 -104 -155 -166c-10 -12 -21 -19 -37 -19c-27 0 -51 22 -51 49c0 7 1 14 4 21l-28 25c-57 -37 -124 -61 -192 -61c-130 0 -247 99 -247 233c0 69 31 131 83 175c-7 19 -10 39 -10 59c0 55 26 106 76 148c37 47 85 78 154 78
c39 0 78 -7 115 -19c9 14 24 22 41 22c28 0 50 -21 50 -49c0 -9 -2 -17 -7 -25c-17 -29 -35 -58 -50 -88c-11 -21 -18 -42 -27 -63c-7 -16 -26 -22 -26 -27c0 -4 6 -9 8 -11c8 16 25 27 42 27c73 0 97 -20 200 -20c28 0 46 -24 46 -51c0 -13 -5 -26 -14 -36l-41 -42
c-7 -22 -16 -43 -27 -64l26 -23c9 7 21 11 33 11c25 0 49 -20 49 -46z" />
    <glyph glyph-name="quotesingle" unicode="'" horiz-adv-x="252" 
d="M225 710l-79 56l-78 -201l35 -25zM252 709c0 -6 -1 -11 -5 -16l-123 -162c-10 -14 -32 -32 -45 -45c-5 -5 -11 -7 -18 -7c-6 0 -11 2 -16 5l-44 31c-1 3 -1 6 -1 10c0 3 0 7 1 10l79 201c2 4 5 8 8 11l39 40c5 5 12 7 19 7c6 0 11 -2 16 -5l79 -57c7 -5 11 -14 11 -23z
" />
    <glyph glyph-name="parenleft" unicode="(" horiz-adv-x="401" 
d="M374 90l-2 7c-6 -2 -13 -3 -19 -3c-17 0 -34 7 -47 20c-63 67 -98 153 -98 245c0 91 35 177 98 244c13 13 30 20 47 20c6 0 13 -1 19 -3l2 7c-42 21 -135 109 -158 146l-6 -2c4 -8 5 -17 5 -26c0 -15 -5 -31 -16 -42c-88 -93 -138 -216 -138 -344
c0 -129 50 -252 138 -345c11 -11 16 -27 16 -42c0 -9 -1 -18 -5 -26l6 -2c7 12 18 25 31 37l87 81c12 11 28 22 40 28zM401 96c0 -12 -4 -26 -15 -31c-7 -3 -13 -7 -19 -11c0 -10 -4 -24 -15 -29c-37 -18 -123 -98 -145 -134c-5 -8 -17 -15 -27 -15c-15 0 -31 15 -31 31
c0 8 5 14 5 24c0 9 -3 18 -9 24c-92 98 -145 228 -145 363c0 132 51 261 141 358c5 10 13 15 13 29c0 8 -5 15 -5 24c0 15 12 30 31 30h5c-1 3 -2 7 -2 11c0 16 13 30 31 30c10 0 22 -6 27 -14c12 -23 112 -120 145 -134c8 -4 15 -18 15 -28c0 -13 -13 -31 -29 -31
c-2 0 -4 0 -6 1c1 -3 1 -5 1 -8c0 -16 -11 -33 -29 -33c-5 0 -9 2 -17 2c-9 0 -19 -3 -26 -9c-39 -56 -59 -122 -59 -188c0 -41 7 -82 23 -121c15 -38 38 -73 67 -104c7 -8 17 -12 28 -12c5 0 10 3 17 3c19 0 30 -12 30 -28z" />
    <glyph glyph-name="parenright" unicode=")" horiz-adv-x="395" 
d="M367 359c0 128 -50 251 -138 344c-11 11 -16 27 -16 42c0 9 2 18 5 26l-6 2c-7 -12 -18 -25 -31 -37c-98 -93 -114 -103 -126 -109l1 -7c6 2 13 3 19 3c18 0 35 -7 47 -20c63 -67 98 -153 98 -244c0 -92 -35 -178 -98 -245c-12 -13 -29 -20 -47 -20c-6 0 -13 1 -19 3
l-1 -7c12 -6 28 -16 40 -28l86 -81c13 -12 24 -25 31 -37l6 2c-3 8 -5 17 -5 26c0 15 5 31 16 42c88 93 138 216 138 345zM395 359c0 -115 -40 -226 -107 -319c-15 -21 -30 -43 -47 -64c0 -9 4 -17 4 -28c0 -12 -7 -25 -19 -28c-3 -1 -7 -3 -10 -3c1 -3 2 -6 2 -10
c0 -16 -14 -31 -31 -31c-10 0 -22 7 -27 15c-21 35 -109 116 -145 134c-10 4 -15 17 -15 31c0 15 9 25 29 28c-1 3 -1 6 -1 8c0 17 11 32 30 32c5 0 10 -3 17 -3c10 0 20 5 27 12s13 15 19 22c29 50 44 107 44 164c0 41 -7 82 -23 120s-38 74 -67 104c-8 8 -18 13 -28 13
c-5 0 -10 -3 -18 -3c-15 0 -29 14 -29 31c0 10 6 23 15 27l13 8v5c0 11 5 24 15 28c29 12 128 103 145 134c4 8 17 14 26 14c16 0 31 -13 31 -31c0 -8 -4 -14 -4 -24c0 -9 2 -17 8 -23c93 -98 146 -229 146 -363z" />
    <glyph glyph-name="asterisk" unicode="*" horiz-adv-x="373" 
d="M345 533c0 29 -24 48 -49 48c-13 0 -26 -6 -36 -18c-17 -22 -23 -44 -46 -64c3 29 20 47 30 73c2 6 3 12 3 17c0 27 -23 47 -47 47c-12 0 -23 -4 -33 -14s-14 -20 -14 -30c0 -30 30 -61 34 -91c-27 22 -43 75 -77 79h-7c-30 0 -46 -23 -46 -47s16 -47 51 -47
c24 0 43 -2 65 -9c-24 -10 -53 -7 -79 -10c-24 -3 -36 -23 -36 -44c0 -26 18 -49 47 -49c46 0 49 52 81 78c-4 -26 -18 -46 -29 -70c-3 -7 -4 -13 -4 -19c0 -26 23 -45 48 -45c12 0 23 4 33 14c9 9 13 19 13 29c0 30 -30 64 -33 94c22 -18 30 -39 48 -62
c10 -13 22 -19 34 -19c25 0 48 24 48 49c0 11 -4 22 -14 32c-22 22 -71 10 -102 22c39 15 117 -7 117 56zM347 477c15 -16 22 -36 22 -56c0 -27 -14 -53 -43 -68c-19 -44 -58 -40 -96 -56c-11 -30 -42 -46 -71 -46c-33 0 -65 19 -72 59c-48 4 -83 45 -83 88c0 13 3 26 10 39
c-10 15 -14 31 -14 47c0 31 16 61 38 81c22 29 53 53 93 53c12 30 40 45 69 45c33 0 66 -19 74 -58c8 3 16 4 24 4c43 0 75 -38 75 -77c0 -20 -8 -39 -26 -55z" />
    <glyph glyph-name="plus" unicode="+" horiz-adv-x="661" 
d="M426 291h188c11 0 19 9 19 19v92c0 11 -8 19 -19 19h-188v167c0 11 -9 19 -19 19h-96c-10 0 -19 -8 -19 -19v-167h-189c-10 0 -18 -8 -18 -19v-92c0 -10 8 -19 18 -19h189v-167c0 -11 9 -19 19 -19h96c10 0 19 8 19 19v167zM206 526c0 12 5 22 12 30l50 50
c7 17 24 28 43 28h96c25 0 46 -19 46 -46v-140h161c27 0 46 -19 46 -46v-92c0 -19 -11 -36 -28 -43l-50 -50c-8 -7 -18 -12 -30 -12h-99v-81c0 -20 -12 -36 -28 -43l-49 -49c-8 -8 -19 -13 -31 -13h-96c-23 0 -43 18 -43 43v143h-165c-23 0 -42 20 -42 43v92
c0 12 4 23 12 31l51 51c7 16 23 26 41 26h103v78z" />
    <glyph glyph-name="comma" unicode="," horiz-adv-x="274" 
d="M246 110c0 50 -40 90 -90 90s-89 -41 -89 -90c0 -39 28 -75 65 -86l-22 -68h60l56 99c10 17 20 35 20 55zM274 111c0 -26 -10 -48 -23 -70l-38 -66c-7 -13 -10 -21 -19 -33c-8 -11 -35 -36 -45 -47c-5 -5 -12 -7 -19 -7h-60c-16 0 -27 12 -27 28c0 13 12 40 16 53
c-37 21 -59 60 -59 102c0 31 12 59 34 81c38 38 65 76 123 76c64 0 117 -53 117 -117z" />
    <glyph glyph-name="hyphen" unicode="-" horiz-adv-x="285" 
d="M258 366h-43c0 -12 -3 -22 -16 -22c-23 0 -46 23 -75 23c-42 0 -56 -47 -56 -82c43 0 43 0 43 1c0 10 2 22 15 22c20 0 50 -22 80 -22c42 0 52 47 52 80zM285 366c0 -37 -12 -89 -52 -102c-11 -27 -37 -45 -66 -45c-26 0 -46 12 -70 18c-3 -12 -14 -20 -26 -20h-43
c-15 0 -28 13 -28 28c0 38 15 88 54 103c14 27 39 46 70 46c23 0 44 -10 64 -20c3 12 14 20 26 20h43c15 0 28 -13 28 -28z" />
    <glyph glyph-name="period" unicode="." horiz-adv-x="273" 
d="M245 110c0 59 -44 89 -89 89c-44 0 -89 -30 -89 -89c0 -49 40 -89 90 -89c48 0 88 40 88 89zM273 110c0 -42 -23 -80 -57 -100c-20 -34 -57 -57 -99 -57c-65 0 -117 53 -117 117c0 33 14 62 35 83l44 43c19 19 45 30 73 30h9c61 0 112 -55 112 -116z" />
    <glyph glyph-name="slash" unicode="/" horiz-adv-x="533" 
d="M260 -38l245 644c1 2 1 5 1 7c0 10 -8 18 -19 18h-136c-6 0 -15 -5 -17 -12l-247 -644c-1 -2 -1 -5 -1 -7c0 -10 7 -18 19 -18h137c6 0 15 6 18 12zM530 596l-247 -647c-5 -8 -14 -16 -23 -21l-48 -48c-8 -9 -22 -16 -32 -16h-137c-27 0 -43 19 -43 42c0 4 0 10 4 18
l246 642c2 4 4 9 8 13l51 51c7 15 29 28 42 28h136c27 0 46 -20 46 -45c0 -4 -1 -11 -3 -17z" />
    <glyph glyph-name="zero" unicode="0" 
d="M424 310c0 47 -37 84 -84 84c-13 0 -25 -3 -37 -8c-5 -11 -8 -24 -8 -36c0 -47 38 -85 85 -85c12 0 25 3 36 8c5 12 8 24 8 37zM492 350c0 -62 -50 -113 -112 -113s-113 51 -113 113s51 112 113 112s112 -50 112 -112zM692 350c0 172 -140 312 -312 312
s-313 -140 -313 -312c0 -173 141 -312 313 -312s312 140 312 312zM719 350c0 -92 -36 -176 -100 -241l-40 -40c-65 -63 -148 -99 -239 -99c-187 0 -340 153 -340 340c0 90 33 174 97 238l37 36c68 65 151 105 246 105c187 0 339 -152 339 -339z" />
    <glyph glyph-name="one" unicode="1" horiz-adv-x="407" 
d="M367 604c9 4 12 11 12 19c0 12 -9 24 -21 24c-3 0 -7 -1 -10 -3c-91 -51 -179 -97 -268 -133c-9 -5 -12 -12 -12 -19c0 -11 9 -22 22 -22c3 0 6 0 10 2l26 12v-376c-33 0 -48 -16 -48 -29c0 -11 11 -15 22 -15c43 2 86 4 128 4c44 0 86 -4 129 -4c13 0 19 6 19 14
c0 13 -16 30 -50 30v476zM405 610c-3 -9 -8 -15 -13 -21l-39 -38v-416c30 0 52 -25 52 -50c0 -12 -4 -23 -14 -33l-42 -42c-8 -8 -20 -14 -32 -14c-45 4 -86 6 -128 6s-84 -2 -131 -6c-26 0 -48 23 -48 50c0 14 6 26 15 35l34 34v288c-3 -1 -6 -1 -9 -1c-25 0 -50 22 -50 50
c0 12 5 25 14 34l40 40c4 4 9 8 15 10c86 35 173 79 265 132c7 4 15 6 23 6c26 0 50 -23 50 -50c0 -5 -1 -9 -2 -14z" />
    <glyph glyph-name="two" unicode="2" horiz-adv-x="564" 
d="M537 44c-4 33 -6 67 -6 100c0 34 2 67 6 101c0 14 -9 23 -20 23s-24 -12 -24 -39h-76c40 72 86 146 86 226c0 34 -9 70 -30 106c-34 57 -94 90 -164 90c-78 0 -142 -39 -190 -96c-12 8 -22 11 -30 11c-14 0 -22 -9 -22 -19c0 -6 3 -13 11 -17c56 -32 113 -68 172 -113
c4 -3 9 -5 13 -5c10 0 18 9 18 20c0 9 -5 21 -21 31c23 22 42 22 49 22c19 0 26 -13 26 -33c0 -15 -4 -35 -16 -56c-61 -110 -124 -221 -185 -332h359c0 -29 14 -42 26 -42c9 0 18 8 18 22zM564 47c0 -13 -2 -26 -13 -37l-39 -39c-10 -10 -23 -16 -38 -16
c-24 0 -44 18 -48 41h-332c-16 0 -27 13 -27 28c0 4 1 9 3 13c0 0 137 247 175 315c-6 -3 -12 -6 -23 -6c-10 0 -21 3 -29 10l-168 110c-16 9 -25 25 -25 42c0 12 5 25 14 34l41 41c9 9 22 14 35 14c9 0 17 -2 25 -6c54 57 121 88 194 88c80 0 148 -38 187 -104
c25 -42 34 -82 34 -120c0 -71 -32 -137 -66 -198c11 0 11 38 50 38c28 0 50 -22 50 -50c0 -45 -3 -87 -3 -131c0 -21 1 -44 3 -67z" />
    <glyph glyph-name="three" unicode="3" horiz-adv-x="550" 
d="M522 274c0 72 -25 143 -86 186l70 173h-332c0 15 -3 28 -22 28c-12 0 -22 -8 -22 -21c0 -29 6 -58 6 -96c0 -23 -1 -45 -3 -68c-1 -9 -3 -19 -3 -28c0 -13 10 -21 22 -21c18 0 22 14 22 40h85l-52 -129l115 -7c30 -2 34 -32 34 -57c0 -40 -47 -53 -79 -53
c-12 0 -24 1 -36 5c6 6 14 13 14 22c0 12 -11 23 -23 23c-6 0 -11 -2 -15 -6c-33 -31 -85 -90 -143 -141c-5 -4 -8 -11 -8 -17c0 -11 10 -18 20 -18c12 0 23 8 32 16c46 -33 102 -51 159 -51c127 0 245 85 245 220zM550 274c0 -59 -21 -115 -61 -159
c-18 -20 -40 -42 -62 -61c-52 -46 -121 -67 -190 -67c-55 0 -110 15 -156 44c-8 -8 -19 -12 -30 -12c-28 0 -51 22 -51 50c0 14 6 27 16 36l169 164c-16 1 -46 4 -46 26c0 14 32 87 39 104h-17c-4 -23 -25 -40 -48 -40c-27 0 -50 21 -50 49c0 42 3 83 3 125
c0 23 -3 47 -3 69c0 12 5 24 13 32l41 41c9 9 23 14 36 14c19 0 36 -11 44 -28h309c15 0 28 -13 28 -28c0 -12 -56 -143 -64 -164c55 -49 80 -122 80 -195z" />
    <glyph glyph-name="four" unicode="4" horiz-adv-x="552" 
d="M288 337h-40l40 39v-39zM524 178c0 26 -6 53 -6 87c0 27 6 53 6 82c0 13 -9 22 -22 22c-21 0 -22 -16 -22 -32h-31v302h-52l-330 -319v-132h221v-80c-15 0 -36 0 -36 -22c0 -12 8 -22 21 -22c10 0 20 2 30 3c22 1 43 2 64 2c22 0 43 -1 64 -2c10 -1 20 -3 30 -3
c13 0 22 9 22 22c0 22 -18 22 -34 22v80h31c0 -16 1 -32 22 -32c13 0 22 9 22 22zM552 352c0 -27 -6 -55 -6 -89c0 -28 6 -57 6 -89c0 -24 -33 -50 -47 -65c4 -7 6 -15 6 -23c0 -12 -5 -25 -13 -33l-40 -40c-10 -10 -23 -17 -37 -17c-10 0 -20 2 -30 3c-20 2 -40 3 -60 3
c-23 0 -45 -1 -68 -3c-10 -1 -20 -3 -30 -3c-27 0 -49 23 -49 50c0 22 16 42 37 48v26h-194c-13 0 -27 15 -27 28v132c0 7 3 15 8 20l368 356c9 9 22 9 46 9c28 0 55 -1 55 -26v-250c8 5 17 8 26 8c24 0 49 -19 49 -45z" />
    <glyph glyph-name="five" unicode="5" horiz-adv-x="517" 
d="M490 274c0 91 -67 158 -147 191l4 17h90c0 -16 0 -34 22 -34c13 0 22 9 22 22c0 8 -2 17 -3 25c-1 19 -2 38 -2 57s1 38 2 57c1 8 3 17 3 25c0 13 -9 22 -22 22c-15 0 -22 -10 -22 -24h-226l-72 -306c36 -2 184 0 184 -52c0 -40 -45 -54 -78 -54c-10 0 -19 2 -29 4
c3 4 5 9 5 14c0 13 -11 23 -23 23c-7 0 -14 -4 -17 -9c-32 -53 -65 -104 -109 -150c-3 -4 -5 -8 -5 -13c0 -12 12 -22 24 -22c11 0 18 11 24 20c40 -21 85 -33 130 -33c127 0 245 85 245 220zM517 274c0 -59 -21 -115 -60 -159c-9 -10 -20 -18 -30 -28
c-11 -11 -20 -23 -32 -33c-52 -46 -121 -67 -190 -67c-42 0 -84 9 -122 25c-9 -8 -22 -13 -34 -13c-28 0 -49 24 -49 51c0 12 4 22 11 31c39 46 75 91 106 144c7 12 20 21 30 31c-21 2 -76 -4 -76 28c0 3 0 5 1 8l73 307c1 6 4 9 8 13l39 40c5 5 13 8 20 8h205
c9 15 25 24 42 24c27 0 49 -22 49 -49c0 -36 -3 -71 -3 -107c0 -20 3 -41 3 -61c0 -25 -24 -42 -40 -58c31 -39 49 -85 49 -135z" />
    <glyph glyph-name="six" unicode="6" horiz-adv-x="585" 
d="M390 267c0 -34 -38 -47 -66 -47c-29 0 -65 15 -65 48c0 34 37 46 65 46s66 -13 66 -47zM558 267c0 126 -114 213 -234 213c-10 0 -21 -1 -31 -2c23 19 52 30 82 30c8 0 17 -1 25 -2c-2 -4 -4 -8 -4 -13c0 -12 11 -21 23 -21c8 0 14 4 18 10c28 51 57 99 95 155
c2 3 3 7 3 11c0 13 -12 23 -24 23s-18 -10 -22 -20c-36 16 -75 24 -114 24c-177 0 -307 -156 -307 -327c0 -150 94 -294 256 -294c120 0 234 87 234 213zM585 267c0 -59 -24 -115 -64 -158c-8 -9 -18 -16 -26 -24c-10 -10 -19 -22 -30 -32c-50 -44 -115 -67 -181 -67
c-177 0 -284 157 -284 322c0 86 30 171 86 237c13 14 27 26 40 39c11 11 21 23 33 34c59 53 136 84 216 84c35 0 71 -6 104 -17c10 7 21 12 33 12c27 0 51 -23 51 -50c0 -11 -4 -19 -10 -28c-33 -47 -64 -94 -91 -148c74 -42 123 -118 123 -204z" />
    <glyph glyph-name="seven" unicode="7" horiz-adv-x="563" 
d="M536 640h-373v11c0 14 -11 22 -22 22s-22 -7 -22 -22c3 -33 5 -66 5 -99s-1 -66 -5 -99c0 -14 11 -21 22 -21s22 7 22 21v21h104l-158 -315c-6 2 -12 3 -17 3c-16 0 -25 -9 -25 -19c0 -8 6 -18 21 -23c57 -21 106 -43 163 -79c4 -2 7 -3 10 -3c12 0 21 12 21 24
c0 7 -3 15 -12 19l-12 6zM560 629l-266 -532c12 -11 17 -24 17 -36c0 -13 -6 -26 -15 -35l-40 -40c-10 -10 -22 -16 -36 -16c-7 0 -15 2 -23 7c-52 33 -98 55 -159 77c-26 10 -38 30 -38 49c0 20 6 32 54 72c5 5 11 9 18 11l110 221h-24c-3 -1 -6 -2 -9 -2
c-4 -23 -24 -41 -48 -41c-25 0 -50 21 -50 47c0 32 6 64 6 103c0 31 -6 63 -6 99c0 13 6 24 14 32l40 40c10 10 24 15 37 15c19 0 37 -10 45 -31h349c16 0 27 -13 27 -27c0 -5 -1 -9 -3 -13z" />
    <glyph glyph-name="eight" unicode="8" horiz-adv-x="564" 
d="M371 262c0 -26 -49 -38 -68 -38s-69 12 -69 38c0 27 49 39 69 39s68 -12 68 -39zM343 499c0 -13 -15 -32 -29 -32h-18c-14 0 -28 19 -28 32c0 19 19 32 37 32c17 0 38 -13 38 -32zM537 262c0 63 -33 120 -83 157c15 24 21 52 21 80c0 93 -79 164 -170 164
s-170 -71 -170 -164c0 -27 7 -54 20 -78c-52 -36 -87 -94 -87 -159c0 -125 119 -204 235 -204c115 0 234 80 234 204zM564 262c0 -55 -23 -106 -59 -147c-61 -69 -119 -125 -242 -125c-131 0 -263 92 -263 232c0 66 31 125 81 167c-9 22 -14 46 -14 70c0 50 21 97 56 133
c57 59 94 99 182 99c107 0 198 -84 198 -192c0 -25 -5 -51 -15 -74c47 -41 76 -100 76 -163z" />
    <glyph glyph-name="nine" unicode="9" horiz-adv-x="585" 
d="M366 459c0 -34 -37 -46 -65 -46c-29 0 -66 14 -66 48s37 47 66 47s65 -15 65 -49zM557 379c0 150 -94 295 -256 295c-119 0 -234 -88 -234 -213c0 -126 114 -214 234 -214c10 0 21 1 31 2c-23 -18 -52 -30 -82 -30c-8 0 -17 1 -25 3c2 4 4 8 4 13c0 12 -11 21 -23 21
c-8 0 -14 -4 -18 -11c-28 -57 -59 -109 -95 -154c-2 -3 -3 -8 -3 -12c0 -12 11 -22 23 -22c11 0 18 10 23 19c36 -15 75 -23 114 -23c177 0 307 155 307 326zM585 379c0 -84 -29 -168 -83 -232c-13 -16 -28 -29 -42 -43c-12 -12 -23 -25 -36 -37c-60 -52 -135 -81 -214 -81
c-35 0 -70 6 -103 17c-9 -8 -21 -14 -33 -14c-26 0 -52 23 -52 50c0 11 4 19 10 28c35 52 65 91 91 150c-74 42 -123 118 -123 204c0 58 23 113 62 155c9 10 20 18 29 27c12 11 21 24 33 35c49 42 113 64 177 64c178 0 284 -157 284 -323z" />
    <glyph glyph-name="colon" unicode=":" horiz-adv-x="273" 
d="M245 110c0 59 -44 89 -89 89c-44 0 -89 -30 -89 -89c0 -49 40 -89 90 -89c48 0 88 40 88 89zM245 360c0 59 -44 88 -89 88c-44 0 -89 -29 -89 -88c0 -49 40 -90 90 -90c48 0 88 41 88 90zM273 110c0 -42 -23 -80 -57 -100c-20 -34 -57 -57 -99 -57
c-65 0 -117 53 -117 117c0 33 14 62 35 83c48 47 51 50 55 53c-52 12 -90 58 -90 114c0 32 13 62 35 83l44 43c19 18 45 30 82 30c61 0 112 -56 112 -116c0 -43 -23 -80 -57 -101c-8 -14 -20 -26 -34 -36c51 -12 91 -59 91 -113z" />
    <glyph glyph-name="semicolon" unicode=";" horiz-adv-x="280" 
d="M246 110c0 50 -40 90 -89 90s-90 -40 -90 -90c0 -40 28 -75 66 -86l-23 -68h60l57 99c10 17 19 34 19 55zM253 360c0 59 -45 88 -89 88c-45 0 -90 -29 -90 -88c0 -49 40 -90 90 -90c49 0 89 41 89 90zM280 360c0 -43 -23 -80 -57 -101c-8 -14 -20 -26 -34 -36
c49 -14 85 -59 85 -112c0 -28 -12 -51 -23 -70l-56 -99l-46 -47c-5 -5 -12 -7 -18 -7h-60c-9 0 -17 4 -23 11c-3 4 -4 10 -4 15c0 4 0 7 1 10l14 45c-36 21 -59 60 -59 102c0 31 13 60 34 81c48 48 53 52 57 55c-48 14 -84 59 -84 113c0 32 13 62 35 83l44 43
c19 18 45 30 82 30c61 0 112 -56 112 -116z" />
    <glyph glyph-name="less" unicode="&#x3c;" horiz-adv-x="590" 
d="M98 296l439 -182c2 -1 5 -1 7 -1c10 0 19 8 19 19v79c0 7 -5 14 -11 17l-315 131l314 126c6 3 12 11 12 18v80c0 10 -8 18 -18 18c-3 0 -5 -1 -8 -2l-439 -180c-6 -3 -12 -10 -12 -17v-90c0 -6 6 -14 12 -16zM498 401l-149 -59l214 -90c14 -8 27 -24 27 -41v-79
c0 -20 -14 -30 -26 -42l-51 -50c-8 -8 -19 -13 -31 -13c-4 0 -10 0 -18 4l-436 180c-13 6 -28 24 -28 39v90c0 11 5 24 13 32l50 50c8 8 13 17 24 21l440 181c6 2 13 4 18 4c25 0 45 -20 45 -45v-80c0 -16 -15 -31 -28 -44l-53 -50c-4 -3 -7 -6 -11 -8z" />
    <glyph glyph-name="equal" unicode="=" horiz-adv-x="609" 
d="M104 374h460c10 0 18 8 18 18v84c0 10 -8 18 -18 18h-460c-10 0 -18 -8 -18 -18v-84c0 -10 8 -18 18 -18zM104 182h460c10 0 18 9 18 19v83c0 10 -8 19 -18 19h-460c-10 0 -18 -9 -18 -19v-83c0 -10 8 -19 18 -19zM0 414c0 11 4 25 12 33l51 51c12 12 23 23 41 23h460
c25 0 45 -20 45 -45v-84c0 -18 -15 -32 -26 -44l-19 -18c25 0 45 -21 45 -46v-83c0 -20 -16 -34 -29 -47l-49 -45c-8 -8 -18 -13 -29 -13h-460c-23 0 -42 20 -42 43v83c0 12 5 22 13 30l36 36h-7c-23 0 -42 19 -42 42v84z" />
    <glyph glyph-name="greater" unicode="&#x3e;" horiz-adv-x="590" 
d="M112 112l440 180c6 2 11 11 11 17v90c0 7 -5 14 -11 17l-440 180c-3 1 -5 2 -8 2c-10 0 -18 -8 -18 -18v-80c0 -7 7 -15 13 -18c105 -41 208 -84 313 -126l-314 -131c-6 -3 -12 -10 -12 -17v-79c0 -11 8 -19 18 -19c3 0 5 1 8 2zM565 267l-55 -52c-4 -4 -7 -5 -11 -7
l-442 -181c-7 -3 -11 -3 -15 -3c-23 0 -42 18 -42 43v79c0 11 5 20 13 28l50 50c5 10 14 19 24 25l151 64l-20 9c-61 25 -128 52 -190 76c-13 7 -28 25 -28 40v80c0 11 4 22 12 30l51 51c7 15 23 26 41 26c3 0 12 -2 18 -4c143 -59 298 -123 441 -181c14 -8 27 -24 27 -41
v-90c0 -14 -14 -31 -25 -42z" />
    <glyph glyph-name="question" unicode="?" horiz-adv-x="525" 
d="M422 148c0 49 -40 89 -89 89s-90 -39 -90 -89c0 -49 41 -90 90 -90s89 41 89 90zM497 469c0 103 -86 182 -187 182c-92 0 -155 -49 -200 -126c-7 4 -15 8 -23 8c-12 0 -20 -10 -20 -22c0 -9 3 -15 12 -19c27 -10 54 -17 81 -31c28 -14 51 -32 78 -51c3 -2 7 -3 10 -3
c12 0 22 12 22 24c0 8 -5 14 -12 18c9 16 24 37 44 37c13 0 27 -9 27 -23c0 -3 -1 -5 -2 -7c-36 -55 -57 -85 -57 -153c0 -10 0 -21 1 -31h122c52 52 104 120 104 197zM525 468c0 -81 -65 -174 -126 -224c32 -22 51 -57 51 -96c0 -41 -21 -80 -57 -100
c-20 -35 -60 -57 -100 -57c-65 0 -117 52 -117 117c0 39 19 76 52 97c-23 2 -25 26 -25 46c0 29 1 58 11 90c-3 0 -5 -1 -8 -1c-10 0 -18 3 -26 9c-58 43 -78 56 -148 77c-21 6 -32 24 -32 46c0 12 4 25 13 34l42 42c9 9 19 12 40 12c9 9 17 19 25 28c51 59 111 91 190 91
c113 0 215 -92 215 -211z" />
    <glyph glyph-name="at" unicode="@" horiz-adv-x="693" 
d="M673 414c0 143 -105 239 -264 239c-184 0 -344 -139 -344 -320c0 -169 123 -282 325 -282c84 0 163 27 232 80l-15 22c-72 -46 -136 -71 -218 -71c-158 0 -255 92 -255 242c0 164 122 298 282 298c81 0 154 -34 192 -84c24 -30 37 -75 37 -125c0 -68 -46 -197 -126 -197
c-14 0 -23 12 -23 32c0 8 2 17 5 29l60 216h-80l-15 -51c-5 40 -30 59 -75 59c-102 0 -180 -98 -180 -192c0 -73 45 -118 114 -118c37 0 69 21 96 64c1 -38 31 -65 78 -65c114 0 174 129 174 224zM443 436c0 -21 -37 -215 -102 -215c-24 0 -38 18 -38 49
c0 54 44 201 110 201c20 0 30 -12 30 -35zM693 414c0 -74 -35 -167 -101 -214c-32 -44 -79 -75 -138 -75c-41 0 -70 15 -86 41c-26 -28 -55 -40 -88 -40h-12c34 -16 74 -24 121 -24c77 0 144 27 223 78l37 -53c-17 -13 -34 -25 -52 -36l7 -9c-83 -64 -171 -96 -259 -96
c-214 0 -345 121 -345 302c0 102 47 191 121 253c68 81 173 132 288 132c171 0 284 -104 284 -259zM154 324v-4c13 46 43 90 82 119c37 48 91 82 155 82c31 0 54 -7 70 -23l5 15h48c-37 27 -88 44 -143 44c-60 0 -114 -21 -157 -55c-38 -48 -60 -110 -60 -178zM519 236
c9 0 17 2 25 5c23 39 36 92 36 127c0 27 -5 53 -13 75l-47 -171c-2 -9 -4 -18 -4 -24c0 -8 1 -12 3 -12zM378 391c0 10 -3 15 -10 15c-3 0 -6 -1 -8 -1c-23 -43 -37 -105 -37 -135c0 -17 6 -28 16 -29c25 53 39 137 39 150z" />
    <glyph glyph-name="A" unicode="A" horiz-adv-x="754" 
d="M445 248h-90l46 89zM743 160c0 13 -11 22 -23 22c-7 0 -13 -3 -19 -6l-283 471c-6 9 -16 18 -27 18s-21 -9 -26 -18l-272 -471c-5 3 -11 5 -17 5c-13 0 -23 -10 -23 -22c0 -7 4 -13 10 -17l187 -113c4 -2 9 -4 14 -4c11 0 17 9 17 19c0 12 -8 22 -17 28l22 40h221l24 -40
c-10 -6 -18 -16 -18 -27c0 -10 7 -21 18 -21c5 0 9 2 13 5c59 40 119 75 188 113c6 3 11 11 11 18zM770 158c0 -11 -4 -21 -11 -30c-12 -14 -39 -41 -238 -161c-9 -6 -16 -10 -28 -10c-26 0 -49 25 -49 51c0 11 4 22 11 31l-4 5h-140c-1 -12 -7 -23 -16 -32l-38 -38
c-10 -10 -23 -16 -37 -16c-10 0 -19 3 -27 9c-50 35 -100 68 -182 111c-16 8 -27 22 -27 41c0 13 6 26 15 36c13 14 27 27 41 41c7 7 14 12 24 14l160 277c26 44 50 90 77 133c10 16 24 29 40 40c10 19 28 33 50 33s40 -14 51 -32l271 -451c3 0 5 1 8 1c28 0 49 -25 49 -53z
" />
    <glyph glyph-name="B" unicode="B" horiz-adv-x="589" 
d="M370 259c0 -29 -23 -55 -53 -55c-5 0 -11 1 -16 2v103c5 2 10 3 16 3c29 0 53 -23 53 -53zM360 454c0 -24 -20 -44 -44 -44c-5 0 -10 0 -15 1v86l35 -3c15 -8 24 -24 24 -40zM562 238c0 56 -24 109 -67 145c11 23 16 49 16 74c0 101 -77 171 -175 171h-246
c-12 0 -22 -9 -22 -21c0 -20 16 -24 33 -24c6 0 12 1 17 1v-476c-6 0 -12 1 -18 1c-16 0 -32 -4 -32 -23c0 -12 10 -22 22 -22h246c115 0 226 41 226 174zM589 238c0 -133 -135 -242 -266 -242h-273c-27 0 -50 23 -50 50c0 24 18 44 41 49c1 8 5 16 10 22v400
c-28 0 -51 21 -51 50c0 12 5 23 12 32c12 15 29 29 43 42c10 9 21 15 35 15h236c114 0 212 -81 212 -199c0 -23 -3 -46 -11 -67c42 -41 62 -94 62 -152z" />
    <glyph glyph-name="C" unicode="C" horiz-adv-x="678" 
d="M644 140c-58 45 -110 96 -161 148c-4 4 -9 6 -14 6c-12 0 -22 -10 -22 -23c0 -5 2 -11 8 -17c-21 -17 -46 -25 -70 -25c-60 0 -118 48 -118 118c0 71 57 117 117 117c26 0 53 -9 76 -29c-7 -7 -11 -16 -11 -24c0 -12 8 -23 18 -23c5 0 11 3 16 8c54 55 106 104 158 145
c5 5 8 11 8 17c0 11 -10 20 -22 20c-6 0 -13 -2 -19 -8c-64 64 -145 93 -224 93c-161 0 -317 -121 -317 -316c0 -193 158 -317 320 -317c76 0 153 27 215 88c11 -10 21 -13 29 -13c13 0 21 8 21 18c0 6 -3 12 -8 17zM664 89l-40 -41c-9 -9 -21 -14 -34 -14c-9 0 -19 3 -27 8
c-65 -55 -141 -80 -216 -80c-176 0 -347 137 -347 345c0 106 47 201 122 264c68 81 164 122 260 122c82 0 163 -29 229 -88c5 2 11 2 15 2c29 0 51 -25 51 -51c0 -13 -6 -27 -19 -37l-40 -40c-54 -42 -107 -92 -155 -142c-10 -10 -22 -15 -33 -15c-26 0 -51 22 -51 49
c0 6 1 11 3 17c-12 6 -25 10 -38 10s-26 -3 -39 -10c-7 -13 -10 -27 -10 -41c0 -46 36 -91 90 -91l35 25c4 24 26 39 49 39c12 0 24 -4 34 -13l159 -147c11 -10 16 -23 16 -37c0 -12 -4 -24 -14 -34z" />
    <glyph glyph-name="D" unicode="D" horiz-adv-x="668" 
d="M441 346c0 -34 -33 -80 -71 -80c-23 0 -47 1 -70 1v157h70c36 0 71 -42 71 -78zM639 346c0 159 -117 264 -270 281c-36 4 -73 5 -109 5c-57 0 -114 -3 -171 -3c-13 0 -21 -10 -21 -22c0 -21 17 -22 32 -22v-479c-15 0 -40 0 -40 -22c0 -15 16 -22 29 -22h281
c151 0 269 141 269 284zM668 346c0 -249 -243 -355 -460 -355c-53 0 -106 3 -159 3c-28 0 -49 24 -49 51c0 21 13 39 32 46v430c-20 7 -32 26 -32 47c0 12 4 24 13 33l42 42c9 9 21 14 34 14h235c187 0 344 -114 344 -311z" />
    <glyph glyph-name="E" unicode="E" horiz-adv-x="518" 
d="M490 62c-3 32 -5 64 -5 96s1 64 5 97c0 14 -11 21 -22 21s-22 -7 -22 -21v-14h-145v42h73c0 -16 11 -24 22 -24s22 7 22 22c-4 24 -6 48 -6 73c0 22 2 43 6 65c0 14 -11 21 -22 21s-22 -7 -22 -24h-73v36h145c0 -23 14 -35 26 -35c10 0 18 7 18 23c-4 32 -6 65 -6 98
c0 35 2 70 6 105c0 14 -11 21 -22 21s-22 -7 -22 -21v-14h-347c-15 0 -31 -1 -31 -22c0 -18 13 -22 39 -22v-478c-15 0 -39 -1 -39 -22c0 -12 10 -22 22 -22h356c0 -15 11 -23 22 -23s22 8 22 22zM513 157c0 -31 5 -62 5 -97c0 -14 -6 -25 -15 -34l-38 -38
c-10 -10 -23 -15 -37 -15c-16 0 -31 7 -41 23h-337c-32 0 -49 25 -49 50c0 21 12 41 38 47v426c-26 5 -39 24 -39 44c0 13 5 26 15 36l41 41c10 10 26 17 47 17h318c6 20 25 35 47 35c26 0 50 -21 50 -47c0 -33 -6 -65 -6 -105c0 -32 6 -65 6 -102c0 -13 -5 -24 -13 -32
l-40 -41c-7 -6 -16 -11 -25 -13c0 -17 1 -35 3 -55c8 5 16 7 25 7c25 0 50 -19 50 -47c0 -31 -5 -62 -5 -100z" />
    <glyph glyph-name="F" unicode="F" horiz-adv-x="517" 
d="M489 432c-3 35 -5 70 -5 105s1 70 5 106c0 13 -10 21 -20 21c-12 0 -25 -10 -25 -35h-355c-14 0 -21 -11 -21 -22s7 -22 21 -22h16v-477h-7c-14 0 -31 -1 -31 -22c0 -12 10 -22 22 -22h229c12 0 22 9 22 22c0 21 -18 22 -33 22h-7v175h72c0 -17 12 -24 23 -24s21 7 21 20
c0 24 -4 49 -4 79c0 20 1 41 4 61c0 14 -11 21 -22 21s-22 -7 -22 -24h-72v36h145v-20c0 -14 11 -21 22 -21s22 7 22 21zM514 505c0 -23 3 -47 3 -74c0 -13 -6 -25 -15 -34l-40 -40c-6 -6 -15 -10 -23 -12c0 -17 5 -38 5 -57c0 -16 -3 -31 -15 -43l-40 -40
c-9 -9 -21 -14 -35 -14c-10 0 -19 3 -27 8v-65c28 -5 42 -27 42 -49c0 -13 -5 -25 -14 -34l-41 -40c-9 -8 -20 -15 -36 -15h-229c-32 0 -49 25 -49 50c0 21 12 42 38 48v425c-24 6 -38 27 -38 49c0 12 5 25 15 35l40 40c9 9 21 14 34 14h330c6 21 26 35 48 35
c28 0 50 -22 50 -49c0 -48 -3 -92 -3 -138z" />
    <glyph glyph-name="G" unicode="G" horiz-adv-x="669" 
d="M371 373c-1 3 -1 6 -1 8c0 4 0 8 1 11c-10 4 -20 5 -30 5c-12 0 -24 -2 -35 -8c-7 -13 -11 -27 -11 -43s5 -32 12 -45c6 27 42 59 64 72zM634 556c5 5 7 11 7 16c0 12 -10 22 -22 22c-5 0 -10 -2 -15 -6l-8 -7c-58 54 -135 84 -213 84c-174 0 -315 -143 -315 -319
s141 -318 315 -318c90 0 155 38 225 88v192c21 0 31 12 31 23s-9 21 -23 21c-36 -3 -73 -5 -110 -5s-74 1 -111 5c-14 0 -22 -10 -22 -20c0 -12 10 -24 35 -24v-78c-8 -1 -16 -2 -25 -2c-63 0 -115 53 -115 118c0 66 52 119 115 119c23 0 45 -8 65 -21l-4 -3
c-5 -5 -7 -10 -7 -15c0 -12 11 -24 23 -24c5 0 10 2 14 6c51 57 105 106 160 148zM650 534c-59 -45 -117 -110 -173 -160c80 0 90 5 142 5c29 0 47 -25 47 -50c0 -18 -9 -36 -30 -45v-168c0 -7 -3 -14 -8 -19c-78 -79 -166 -136 -285 -136c-189 0 -343 155 -343 345
c0 95 37 183 99 244l43 42c63 61 147 101 241 101c78 0 153 -27 214 -77c8 4 16 5 23 5c28 0 49 -25 49 -51c0 -13 -6 -26 -19 -36z" />
    <glyph glyph-name="H" unicode="H" horiz-adv-x="697" 
d="M647 64c14 0 22 10 22 21s-9 23 -29 23v477c21 0 29 11 29 23c0 10 -8 21 -20 21c-36 0 -72 -5 -117 -5c-33 0 -65 1 -98 5c-13 0 -21 -11 -21 -21c0 -12 8 -23 28 -23v-139h-143v139c18 0 25 10 25 21s-8 23 -18 23c-30 0 -60 -9 -95 -9c-40 0 -81 4 -121 9
c-13 0 -22 -11 -22 -21c0 -12 10 -23 32 -23v-477c-23 0 -32 -12 -32 -23s8 -21 22 -21c35 3 71 5 106 5c36 0 71 -1 107 -5c14 0 22 10 22 21s-9 23 -26 23v161h143v-161c-20 0 -28 -12 -28 -24c0 -10 7 -20 19 -20c38 0 76 5 124 5c30 0 61 -2 91 -5zM684 52l-41 -41
c-9 -9 -21 -14 -34 -14c-31 0 -62 5 -103 5c-36 0 -73 -5 -113 -5c-26 0 -48 22 -48 49c0 19 12 36 28 45v110h-47v-72c13 -9 25 -23 25 -42c0 -14 -4 -26 -13 -35l-40 -41c-9 -9 -21 -14 -34 -14c-32 0 -65 5 -108 5c-35 0 -69 -5 -109 -5c-26 0 -47 23 -47 49
c0 21 13 39 31 46v429c-20 8 -31 27 -31 46c0 13 5 26 15 36l39 39c9 9 20 14 33 14c30 0 61 -5 101 -5c38 0 78 8 117 8c25 0 45 -28 45 -54c0 -16 -7 -31 -24 -41v-90h47v49c-17 8 -28 25 -28 44c0 31 36 56 56 76c8 8 19 13 31 13c33 0 66 -6 106 -6c35 0 71 6 111 6
c29 0 47 -25 47 -50c0 -17 -8 -35 -28 -44v-431c18 -9 29 -28 29 -47c0 -11 -4 -23 -13 -32z" />
    <glyph glyph-name="I" unicode="I" horiz-adv-x="352" 
d="M324 86c0 18 -15 22 -29 22v477c14 0 29 4 29 22c0 12 -10 22 -23 22c-35 -4 -70 -6 -106 -6c-35 0 -70 2 -106 6c-15 0 -22 -9 -22 -19c0 -12 10 -25 28 -25v-477c-18 0 -28 -13 -28 -25c0 -10 7 -19 22 -19c35 3 71 5 106 5c36 0 71 -1 106 -5c13 0 23 10 23 22z
M322 131c17 -9 30 -28 30 -47c0 -11 -5 -23 -15 -33l-41 -40c-9 -8 -20 -14 -33 -14c-32 0 -64 5 -106 5c-35 0 -70 -5 -110 -5c-27 0 -47 23 -47 49c0 21 11 37 28 45v431c-18 8 -28 26 -28 45c0 14 5 27 14 36l41 41c8 8 19 12 31 12c34 0 69 -6 111 -6c34 0 67 6 106 6
c26 0 48 -24 48 -49c0 -20 -11 -37 -29 -45v-431z" />
    <glyph glyph-name="J" unicode="J" horiz-adv-x="475" 
d="M447 607c0 12 -10 22 -22 22c-10 0 -22 -2 -32 -3c-25 -2 -49 -3 -74 -3s-49 1 -74 3c-10 1 -22 3 -32 3c-11 0 -21 -6 -21 -18c0 -16 14 -26 29 -26v-340c0 -7 -4 -13 -11 -13c-4 0 -9 2 -12 4c3 6 5 12 5 19c0 12 -8 21 -20 21c-8 0 -15 -5 -19 -12
c-31 -63 -57 -121 -94 -190c-2 -3 -3 -7 -3 -11c0 -12 12 -21 23 -21c9 0 15 5 19 12c38 -13 78 -21 118 -21c106 0 194 52 194 168v384c14 0 26 6 26 22zM475 607c0 -19 -11 -35 -27 -44v-362c0 -82 -42 -125 -97 -179c-43 -42 -100 -57 -158 -57c-39 0 -79 7 -116 18
c-8 -6 -18 -9 -28 -9c-28 0 -49 23 -49 50c0 9 2 17 6 24l92 186c9 18 41 45 55 60v228c-18 7 -29 26 -29 45c0 13 6 27 15 36l40 40c8 8 19 13 30 13c35 0 70 -6 111 -6c35 0 69 6 109 6c25 0 46 -24 46 -49z" />
    <glyph glyph-name="K" unicode="K" horiz-adv-x="700" 
d="M672 156c0 12 -10 20 -21 20c-10 0 -19 -5 -27 -10l-145 196l140 131c7 -8 17 -15 28 -15s20 9 20 20c0 6 -3 12 -7 16c-53 49 -103 96 -150 151c-4 4 -10 8 -16 8c-11 0 -17 -10 -17 -20c0 -13 8 -25 17 -34l-178 -167v132c16 0 50 7 50 29c0 11 -10 15 -19 15
c-41 0 -82 -4 -133 -4c-28 0 -57 1 -85 2c-14 0 -28 2 -41 2s-21 -8 -21 -21c0 -21 15 -23 31 -23h18v-476c-6 0 -12 1 -19 1c-15 0 -30 -3 -30 -23c0 -13 8 -22 21 -22c43 0 86 5 141 5c37 0 75 -5 115 -5c12 0 22 10 22 22c0 20 -18 22 -34 22h-16v176l165 -223
c-11 -8 -23 -20 -23 -34c0 -10 7 -18 17 -18c5 0 11 2 15 5c56 43 111 85 172 125c6 4 10 10 10 17zM700 155c0 -12 -4 -27 -13 -34c-65 -54 -147 -108 -219 -168c-9 -7 -19 -12 -31 -12c-26 0 -50 24 -50 50c0 14 7 26 16 35l-21 28l-43 -44c-8 -8 -19 -13 -30 -13
c-41 0 -82 6 -129 6c-45 0 -89 -6 -136 -6c-27 0 -44 24 -44 50c0 13 4 27 14 36l35 34v400c-29 0 -49 20 -49 49c0 14 4 27 14 37l41 41c8 8 19 12 30 12c48 -2 90 -5 132 -5c43 0 87 5 132 5c27 0 44 -24 44 -50c0 -13 -4 -26 -13 -35l-36 -36v-19l70 66c-5 8 -9 18 -9 28
c0 13 6 25 15 34l41 42c9 9 21 14 34 14c14 0 27 -6 36 -17c47 -53 94 -101 147 -148c10 -9 17 -20 17 -34s-7 -27 -16 -37l-40 -41c-9 -9 -21 -15 -34 -15c-9 0 -18 3 -25 8l-63 -59l114 -155c6 3 13 4 20 4c27 0 49 -25 49 -51z" />
    <glyph glyph-name="L" unicode="L" horiz-adv-x="518" 
d="M490 42c0 14 -2 28 -2 42c-1 29 -2 58 -2 88c0 25 0 51 2 77c0 13 2 27 2 40c0 12 -9 22 -22 22c-19 0 -22 -16 -22 -47h-125v320c16 0 47 6 47 27c0 12 -13 17 -23 17c-34 0 -68 -5 -112 -5c-48 0 -95 4 -146 5c-9 0 -19 -4 -19 -14c0 -22 36 -30 53 -30v-476
c-12 0 -55 -3 -55 -22s43 -22 55 -22h325c0 -16 6 -44 27 -44c13 0 17 11 17 22zM518 294c0 -39 -5 -79 -5 -127c0 -42 5 -84 5 -128c0 -12 -5 -23 -14 -32l-39 -39c-10 -10 -24 -15 -38 -15c-26 0 -44 17 -48 43h-329c-29 0 -50 21 -50 50c0 13 4 25 13 34l40 40v397
c-30 0 -52 19 -52 50c0 13 5 27 14 36l41 41c8 8 19 12 29 12c43 0 86 -6 135 -6c43 0 85 6 130 6c27 0 44 -24 44 -50c0 -31 -26 -48 -46 -68v-247h53c20 20 38 46 68 46c26 0 49 -17 49 -43z" />
    <glyph glyph-name="M" unicode="M" horiz-adv-x="960" 
d="M932 125c0 12 -10 22 -22 22c-5 0 -9 -1 -13 -3l-183 444c14 1 34 9 34 26c0 12 -12 17 -22 17h-107l-117 -207l-119 207h-106c-10 0 -22 -4 -22 -16c0 -17 21 -26 35 -27l-183 -446c-6 3 -12 4 -18 4c-12 0 -22 -8 -22 -20c0 -9 6 -17 14 -20c31 -13 62 -23 93 -37
c34 -15 66 -34 100 -51c3 -1 6 -2 10 -2c11 0 20 11 20 22c0 10 -7 18 -16 22l80 193l135 -235l132 235l79 -191c-10 -4 -19 -13 -19 -24s9 -22 21 -22c3 0 7 1 10 3c39 20 77 41 118 58c25 11 50 19 75 29c8 3 13 11 13 19zM960 123c0 -11 -5 -23 -13 -31l-40 -40
c-5 -5 -12 -9 -19 -12c-66 -23 -127 -52 -189 -85c-7 -4 -15 -7 -24 -7c-26 0 -47 25 -47 50c0 13 5 24 13 33l-42 101l-72 -128c-4 -7 -38 -39 -45 -46c-5 -5 -12 -8 -19 -8c-10 0 -19 5 -24 14l-93 163l-24 -59c6 -9 10 -19 10 -29c0 -14 -6 -27 -15 -36l-41 -41
c-8 -8 -20 -14 -32 -14c-8 0 -17 3 -24 7c-61 34 -123 61 -188 85c-19 7 -32 22 -32 44c0 13 6 26 15 36l50 51l148 358c-15 8 -25 23 -25 40c0 13 5 26 14 35l40 40c9 9 22 15 35 15h106c11 0 19 -5 24 -14l86 -150l62 110c6 11 35 36 45 46c5 5 12 8 19 8
c36 0 71 -1 107 -1c27 0 50 -21 50 -49c0 -17 -10 -32 -25 -40l163 -395c26 -2 46 -25 46 -51z" />
    <glyph glyph-name="N" unicode="N" horiz-adv-x="727" 
d="M699 614c0 12 -12 17 -23 17c-13 0 -27 -2 -41 -3c-28 -2 -57 -3 -86 -3s-58 1 -86 3c-14 1 -28 3 -42 3c-9 0 -21 -3 -21 -14c0 -23 38 -30 54 -30v-181l-245 225h-115c-11 0 -22 -7 -22 -19c0 -19 23 -25 42 -25v-480c-16 0 -46 -7 -46 -28c0 -11 9 -16 18 -16
c51 1 99 5 148 5c36 0 72 -5 110 -5c9 0 22 4 22 15c0 22 -36 29 -52 29v182l243 -224h97v522c16 0 45 6 45 27zM727 608c0 -29 -26 -45 -45 -64v-479c0 -7 -4 -14 -9 -19l-40 -39c-6 -5 -11 -10 -19 -10h-97c-7 0 -13 3 -18 8l-110 100c3 -7 4 -14 4 -21
c0 -12 -4 -25 -13 -34l-39 -39c-9 -9 -20 -15 -33 -15c-39 0 -77 6 -122 6c-46 0 -93 -6 -141 -6c-27 0 -45 23 -45 49s16 44 41 49c1 5 3 10 5 15v412c-25 5 -42 25 -42 50c0 13 5 25 14 34l41 40c10 9 22 14 35 14h115c7 0 13 -3 18 -7l109 -100c-2 6 -3 12 -3 19
c0 13 5 26 14 35l40 39c8 8 19 13 31 13c41 0 82 -5 132 -5c43 0 86 5 131 5c27 0 46 -23 46 -50z" />
    <glyph glyph-name="O" unicode="O" 
d="M424 310c0 47 -37 84 -84 84c-13 0 -25 -3 -37 -8c-5 -11 -8 -24 -8 -36c0 -47 38 -85 85 -85c12 0 25 3 36 8c5 12 8 24 8 37zM492 350c0 -62 -50 -113 -112 -113s-113 51 -113 113s51 112 113 112s112 -50 112 -112zM692 350c0 172 -140 312 -312 312
s-313 -140 -313 -312c0 -173 141 -312 313 -312s312 140 312 312zM719 350c0 -92 -36 -176 -100 -241l-40 -40c-65 -63 -148 -99 -239 -99c-187 0 -340 153 -340 340c0 90 33 174 97 238l37 36c68 65 151 105 246 105c187 0 339 -152 339 -339z" />
    <glyph glyph-name="P" unicode="P" horiz-adv-x="589" 
d="M296 347v103c5 1 11 1 15 1c36 0 52 -25 52 -50c0 -28 -18 -57 -49 -57c-6 0 -12 1 -18 3zM561 398c0 124 -99 229 -223 229c-49 0 -97 -5 -157 -5c-30 0 -60 1 -91 5c-14 0 -22 -11 -22 -21c0 -11 8 -22 28 -22v-476c-19 0 -28 -11 -28 -23c0 -10 8 -21 22 -21
c35 3 71 5 106 5c36 0 71 -1 106 -5c15 0 23 10 23 21s-9 23 -29 23v62h34c124 12 231 82 231 228zM589 398c0 -83 -33 -150 -90 -195c-35 -45 -88 -77 -155 -92c6 -6 8 -16 8 -25c0 -12 -4 -25 -11 -32l-42 -42c-9 -9 -22 -15 -35 -15c-32 0 -64 5 -107 5
c-18 0 -81 -6 -107 -6c-28 0 -50 23 -50 50c0 19 12 36 28 45v430c-17 8 -28 25 -28 44c0 13 6 25 14 34l41 42c8 8 21 14 33 14c28 0 57 -5 94 -5c34 0 68 1 103 3c49 2 53 2 56 2c62 0 121 -25 168 -70c51 -49 80 -117 80 -187z" />
    <glyph glyph-name="Q" unicode="Q" 
d="M424 280c0 45 -40 85 -85 85c-12 0 -25 -3 -36 -8c-5 -12 -8 -24 -8 -37c0 -46 38 -84 84 -84c13 0 25 3 37 8c5 11 8 24 8 36zM491 320c0 -62 -50 -112 -112 -112s-112 50 -112 112s50 113 112 113c61 0 112 -52 112 -113zM691 320c0 172 -140 313 -312 313
s-312 -141 -312 -313s140 -312 312 -312c7 0 14 1 21 1l83 -92c-7 -6 -19 -17 -19 -27c0 -9 7 -19 16 -19c34 0 151 130 189 165c4 4 7 8 7 15c0 11 -10 23 -21 23c-10 0 -22 -11 -29 -18l-33 37c62 59 98 141 98 227zM719 320c0 -83 -30 -161 -85 -224c7 4 14 6 22 6
c26 0 48 -25 48 -50c0 -16 -6 -27 -17 -38c-65 -65 -130 -139 -204 -199c-11 -9 -21 -14 -35 -14c-26 0 -51 20 -51 47c0 10 4 20 9 29l-58 64h-6c-190 0 -342 150 -342 339c0 94 39 180 105 246l40 40c62 62 147 94 234 94c188 0 340 -152 340 -340z" />
    <glyph glyph-name="R" unicode="R" horiz-adv-x="706" 
d="M382 407c0 -30 -25 -54 -53 -54c-5 0 -11 1 -16 3v102c5 2 11 3 16 3c28 0 53 -24 53 -54zM672 163c6 7 9 13 9 18c0 9 -9 16 -21 16c-9 0 -20 -4 -31 -14l-84 94c27 36 42 80 42 129c0 116 -90 222 -204 222c-42 0 -85 -6 -140 -6c-52 0 -103 2 -155 5
c-12 0 -20 -9 -20 -21c0 -20 15 -22 30 -22h16v-477c-26 0 -37 -13 -37 -25c0 -10 8 -19 21 -19c39 4 77 6 116 6c36 0 72 -2 108 -6c14 0 22 10 22 21s-9 23 -30 23v78h45l127 -139c-11 -11 -16 -22 -16 -31c0 -12 9 -20 19 -20c5 0 11 2 16 7c55 61 111 116 167 161z
M692 214c9 -9 14 -22 14 -35c0 -14 -6 -28 -17 -37c-72 -59 -143 -132 -204 -198c-10 -11 -22 -15 -34 -15c-26 0 -52 22 -52 50c0 8 3 18 9 27l-45 50l-47 -47c-8 -8 -20 -13 -32 -13c-33 0 -66 6 -108 6c-38 0 -77 -6 -119 -6c-26 0 -48 23 -48 49c0 24 16 43 38 48v423
c-27 2 -47 23 -47 50c0 30 34 54 54 74c9 9 21 15 35 15c44 0 88 -5 143 -5c49 0 99 6 150 6c55 0 107 -21 150 -60c52 -48 83 -119 83 -190c0 -45 -12 -89 -35 -127l52 -58c8 5 17 8 26 8c12 0 24 -5 34 -15z" />
    <glyph glyph-name="S" unicode="S" horiz-adv-x="541" 
d="M513 419c0 36 -22 108 -28 154c-3 21 -5 42 -7 63c-1 10 0 21 -2 31c-1 9 -8 20 -18 20c-17 0 -23 -22 -23 -35c0 -4 0 -8 1 -12c-14 2 -28 3 -41 3c-131 0 -229 -94 -229 -225c0 -25 4 -49 10 -73c5 -19 17 -49 17 -68c0 -27 -32 -27 -52 -27c-8 0 -17 0 -25 1
c-2 16 -13 46 -34 46c-10 0 -14 -9 -14 -18c0 -30 21 -124 41 -249c1 -8 7 -19 18 -19c16 0 20 21 20 40c116 0 245 79 245 213c0 46 -12 91 -24 135c-2 7 -4 13 -4 20c0 25 39 26 56 26c15 0 31 -1 46 -4c2 -16 11 -41 31 -41c11 0 16 9 16 19zM541 419
c0 -12 -5 -24 -14 -33l-40 -40c-9 -9 -23 -14 -36 -14c-19 0 -35 10 -44 27c8 -31 13 -63 13 -95c0 -74 -32 -136 -90 -182c-57 -57 -105 -89 -194 -97c-4 -24 -23 -40 -46 -40c-26 0 -42 18 -46 42c-8 48 -16 95 -25 143c-5 27 -19 85 -19 109c0 12 4 24 13 32l40 39
c10 10 24 16 38 16c4 0 8 -1 12 -2c-3 17 -5 34 -5 52c0 62 21 124 63 171c10 11 22 20 32 30s18 21 29 31c48 43 110 63 174 63c3 0 6 1 10 1c4 25 24 41 49 41c27 0 46 -17 49 -44c3 -28 4 -57 8 -85c6 -53 29 -112 29 -165z" />
    <glyph glyph-name="T" unicode="T" horiz-adv-x="564" 
d="M536 405c-4 35 -5 69 -5 103c0 48 5 95 5 145c0 14 -8 21 -17 21c-13 0 -27 -14 -27 -45h-380c0 31 -15 45 -27 45c-9 0 -17 -8 -17 -21c0 -44 5 -88 5 -142c0 -35 -2 -70 -5 -106c0 -14 8 -21 17 -21c12 0 27 14 27 45h88v-322c-34 0 -50 -16 -50 -29c0 -8 7 -15 20 -15
c40 0 81 4 131 4c43 0 87 -4 133 -4c13 0 19 6 19 14c0 13 -18 30 -54 30v322h93c0 -32 14 -45 27 -45c9 0 17 7 17 21zM558 519c0 -37 6 -74 6 -115c0 -14 -6 -25 -15 -34l-40 -39c-9 -9 -22 -15 -35 -15c-18 0 -29 8 -35 14s-10 12 -12 16v-211c29 0 54 -17 54 -49
c0 -12 -3 -25 -11 -33l-44 -44c-8 -8 -20 -13 -33 -13c-40 0 -80 5 -134 5c-42 0 -83 -5 -129 -5c-27 0 -47 23 -47 50c0 13 5 26 14 35l35 35v246h-18c-4 -2 -10 -4 -16 -5c0 -24 -26 -41 -49 -41c-27 0 -49 22 -49 49c0 56 3 108 3 162c0 27 -3 55 -3 85c0 15 8 28 17 37
l41 41c8 8 19 12 31 12c13 0 27 -5 36 -15c9 -9 3 -30 14 -30h313c4 2 8 3 14 4c5 27 26 40 48 40c25 0 50 -17 50 -48c0 -42 -6 -83 -6 -134z" />
    <glyph glyph-name="U" unicode="U" horiz-adv-x="736" 
d="M688 627c-38 -3 -76 -5 -113 -5c-38 0 -76 1 -114 5c-14 0 -22 -10 -22 -20c0 -11 10 -23 35 -23v-271c0 -36 -39 -67 -87 -67c-37 0 -86 24 -86 67v271c26 0 37 12 37 24c0 10 -9 19 -23 19c-37 -3 -75 -5 -113 -5c-37 0 -75 1 -113 5c-13 0 -22 -10 -22 -20
c0 -11 10 -23 34 -23v-271c0 -147 129 -266 286 -266c148 0 287 111 287 266v271c25 0 36 12 36 23c0 10 -9 20 -22 20zM702 313c0 -89 -42 -165 -105 -218c-59 -71 -152 -115 -250 -115c-173 0 -314 131 -314 293v246c-20 6 -33 25 -33 47c0 12 4 24 13 33l42 42
c9 9 20 14 33 14c36 0 72 -5 116 -5c36 0 72 5 113 5c30 0 47 -25 47 -50c0 -20 -11 -41 -36 -47v-245c0 -26 39 -39 59 -39c7 0 14 1 20 2v242c-21 7 -36 26 -36 48c0 31 36 56 56 76c9 8 21 13 34 13c51 0 99 -3 148 -3c25 0 51 3 81 3c29 0 46 -25 46 -50
c0 -20 -10 -40 -34 -47v-245z" />
    <glyph glyph-name="V" unicode="V" horiz-adv-x="758" 
d="M719 583c-68 26 -134 61 -203 100c-4 2 -7 3 -11 3c-11 0 -19 -9 -19 -19c0 -9 6 -20 22 -28l-119 -207l-103 205c19 9 26 21 26 30c0 11 -8 19 -19 19c-4 0 -8 -1 -12 -3c-68 -39 -134 -75 -202 -100c-8 -5 -12 -12 -12 -19c0 -11 8 -21 22 -21c6 0 12 2 19 5l269 -521
l310 522c8 -4 15 -5 21 -5c15 0 23 10 23 20c0 7 -4 14 -12 19zM729 608c21 -8 29 -22 29 -38c0 -41 -51 -93 -84 -96l-274 -461c-9 -15 -37 -52 -63 -52c-8 0 -19 3 -25 14l-258 499c-19 0 -39 6 -49 26c-4 7 -5 14 -5 22c0 13 5 27 14 36l40 40c4 4 9 8 16 11
c62 23 127 55 197 98c8 5 16 7 24 7c27 0 50 -25 50 -52c0 -13 -5 -26 -18 -36l59 -120l49 84c-9 9 -14 21 -14 34c0 12 5 25 14 34l41 41c9 9 22 15 35 15c8 0 16 -2 24 -7c64 -39 131 -73 198 -99z" />
    <glyph glyph-name="W" unicode="W" horiz-adv-x="967" 
d="M926 603c-72 22 -143 52 -214 88c-3 1 -7 2 -10 2c-12 0 -20 -9 -20 -20c0 -9 6 -20 23 -27l-90 -212l-101 208l-130 -208l-79 207c14 6 19 17 19 27s-7 20 -18 20c-3 0 -7 -1 -11 -3c-73 -35 -143 -66 -215 -87c-9 -4 -13 -12 -13 -20c0 -11 8 -23 20 -23c3 0 6 1 9 2
l24 10l245 -539l131 213l108 -214l285 545c11 -5 19 -6 27 -6c16 0 24 9 24 19c0 8 -5 15 -14 18zM963 603c3 -7 4 -13 4 -20c0 -13 -5 -25 -14 -34l-40 -40c-9 -9 -21 -14 -33 -15l-252 -480c-8 -15 -38 -54 -64 -54c-8 0 -20 4 -25 15l-78 156l-73 -117
c-9 -15 -38 -53 -63 -53c-8 0 -20 5 -25 16l-235 514c-5 -2 -11 -3 -16 -3c-20 0 -39 12 -46 31c-2 6 -3 12 -3 18c0 14 5 27 14 36l39 39c6 6 12 10 19 12c67 20 136 48 211 86c6 3 13 5 20 5c19 0 38 -13 46 -31c3 -7 4 -13 4 -20c0 -13 -5 -25 -14 -34l45 -120l67 107
c10 15 31 32 45 45c5 5 12 7 18 7c10 0 20 -5 25 -15l62 -128l29 68c-10 10 -16 23 -16 37c0 12 5 24 14 34l40 41c9 9 21 14 34 14c7 0 15 -1 22 -5c74 -37 142 -65 210 -85c13 -4 24 -14 29 -27z" />
    <glyph glyph-name="X" unicode="X" horiz-adv-x="753" 
d="M718 163c6 5 8 10 8 16c0 12 -11 23 -23 23c-5 0 -10 -1 -14 -5l-19 -16l-154 176l145 227l21 -13c4 -3 8 -4 12 -4c12 0 22 12 22 23c0 7 -3 13 -10 17c-64 37 -128 75 -192 126c-4 3 -8 4 -12 4c-12 0 -22 -11 -22 -23c0 -6 3 -13 14 -21l-115 -180l-112 129
c18 15 20 20 20 26c0 12 -11 23 -23 23c-5 0 -10 -1 -14 -5c-57 -58 -116 -107 -173 -150c-6 -5 -8 -10 -8 -16c0 -12 10 -23 22 -23c5 0 10 2 24 15l153 -175l-146 -227l-20 12c-4 2 -8 4 -12 4c-12 0 -22 -12 -22 -24c0 -6 3 -12 10 -16c64 -36 127 -78 192 -127
c4 -3 8 -4 11 -4c12 0 23 12 23 24c0 7 -3 13 -15 20l116 182l114 -130c-10 -7 -12 -13 -12 -18c0 -12 11 -25 23 -25c4 0 9 2 13 6c60 57 117 108 175 149zM734 141l-23 -17c-2 -8 -8 -17 -17 -23c-57 -41 -114 -92 -172 -147c-10 -9 -21 -13 -31 -13c-26 0 -51 23 -51 51
c0 6 1 12 4 18l-67 76l-53 -83c5 -8 8 -17 8 -26c0 -13 -6 -25 -14 -33l-41 -41c-9 -9 -22 -15 -35 -15c-10 0 -20 3 -29 10c-63 49 -127 90 -188 123c-17 9 -25 25 -25 41c0 14 6 28 16 38l41 41c8 8 19 13 32 13c4 0 8 -1 13 -2l91 143l-122 140c-7 -4 -15 -5 -21 -5
c-28 0 -49 25 -49 51c0 12 5 24 15 34l43 43c59 49 116 91 172 147c10 10 21 14 32 14c27 0 51 -24 51 -51c0 -9 -2 -19 -9 -28l62 -71l52 81c-5 9 -7 17 -7 24c0 31 34 54 55 75c9 9 22 14 35 14c9 0 18 -2 26 -7c66 -40 122 -86 191 -124c17 -10 25 -26 25 -42
c0 -13 -6 -27 -15 -36l-41 -41c-9 -9 -20 -14 -32 -14c-5 0 -10 0 -15 2l-90 -142l122 -140c10 8 21 11 31 11c27 0 49 -26 49 -52c0 -14 -5 -27 -19 -37z" />
    <glyph glyph-name="Y" unicode="Y" horiz-adv-x="771" 
d="M735 590c-64 44 -119 87 -169 129c-5 4 -10 6 -14 6c-12 0 -21 -11 -21 -22c0 -8 3 -15 12 -22l-140 -190l-148 154c6 6 9 13 9 19c0 12 -10 22 -22 22c-5 0 -10 -2 -15 -7c-43 -49 -95 -98 -153 -147c-5 -4 -7 -10 -7 -15c0 -12 9 -23 21 -23c7 0 15 4 23 12l171 -178
l-153 -206c-9 7 -16 10 -23 10c-13 0 -22 -11 -22 -22c0 -6 3 -13 10 -17c55 -37 113 -78 170 -129c4 -3 9 -4 13 -4c12 0 22 11 22 22c0 7 -3 14 -11 19l414 559c8 -5 15 -7 21 -7c13 0 21 10 21 20c0 6 -3 13 -9 17zM751 613c14 -10 20 -24 20 -39c0 -23 -15 -46 -41 -50
c-6 -23 -25 -41 -51 -41l-357 -482c3 -7 4 -13 4 -19c0 -14 -6 -26 -15 -35l-40 -40c-10 -10 -22 -16 -35 -16c-11 0 -21 4 -31 13c-50 45 -104 86 -165 126c-15 10 -22 25 -22 39s6 27 15 37l40 41c9 9 21 13 40 13l93 126l-138 144c-7 -3 -13 -4 -19 -4
c-28 0 -49 25 -49 51c0 12 5 25 16 36c64 61 131 117 190 185c10 11 22 16 34 16c26 0 51 -22 51 -50c0 -5 0 -10 -2 -15l105 -109l74 101c-3 7 -5 14 -5 21c0 14 6 26 15 35l41 41c9 9 21 14 34 14c11 0 21 -3 31 -12c45 -40 99 -81 167 -127z" />
    <glyph glyph-name="Z" unicode="Z" horiz-adv-x="568" 
d="M541 637h-400c0 20 -11 28 -22 28s-22 -8 -22 -22c4 -37 6 -73 6 -110c0 -34 -2 -69 -6 -103c0 -13 11 -22 22 -22s22 9 22 29h92l-166 -372h380c0 -21 11 -30 23 -30c10 0 21 8 21 22c-4 35 -6 70 -6 106c0 35 2 70 6 106c0 14 -10 22 -21 22s-23 -9 -23 -27h-72z
M566 626l-149 -335c23 0 17 28 52 28c27 0 49 -23 49 -50c0 -49 -3 -92 -3 -138c0 -24 3 -47 3 -75c0 -13 -5 -25 -13 -33l-41 -41c-9 -9 -22 -14 -35 -14c-20 0 -38 12 -46 29h-356c-16 0 -27 13 -27 28c0 4 0 7 2 11l149 334h-27c-8 -18 -26 -29 -45 -29
c-25 0 -50 21 -50 47c0 32 6 65 6 105c0 36 -6 71 -6 111c0 13 6 25 15 34l40 40c9 9 22 15 35 15c19 0 36 -12 44 -28h378c16 0 27 -13 27 -28c0 -4 0 -7 -2 -11z" />
    <glyph glyph-name="bracketleft" unicode="[" horiz-adv-x="330" 
d="M303 -96c-4 13 -7 33 -7 49v120c0 18 2 35 7 48l-6 3c-10 -22 -33 -38 -59 -38h-27v502h27c26 0 49 -16 59 -39l6 4c-5 13 -7 30 -7 47v120c0 17 3 37 7 49l-6 4c-11 -22 -33 -37 -59 -37h-176v-799h176c26 0 48 -14 59 -36zM329 -87c1 -2 1 -5 1 -7
c0 -17 -16 -32 -36 -32c1 -3 2 -7 2 -10c0 -15 -14 -31 -31 -31c-29 0 -31 36 -61 36h-176c-14 0 -28 14 -28 28v797c0 13 14 29 34 29v13c0 14 14 28 28 28h176c14 0 28 8 34 21c4 9 16 15 27 15c15 0 31 -16 31 -33c0 -14 -6 -28 -6 -47v-120c0 -14 6 -28 6 -44
c0 -20 -16 -33 -36 -34c1 -3 1 -7 1 -10c0 -14 -15 -31 -31 -31c-11 0 -21 6 -26 15v-382c15 0 28 9 34 22c4 10 15 16 25 16c17 0 33 -16 33 -34c0 -2 0 -4 -1 -6c-4 -12 -5 -26 -5 -39v-120c0 -13 1 -28 5 -40z" />
    <glyph glyph-name="backslash" unicode="\" horiz-adv-x="528" 
d="M0 567c0 12 4 22 12 30l50 50c6 16 21 27 42 27h129c14 0 37 -14 42 -28c80 -195 169 -414 249 -608c3 -7 4 -15 4 -19c0 -19 -11 -35 -28 -42l-50 -51c-8 -7 -18 -12 -30 -12h-128c-13 0 -33 14 -39 26l-251 610c-2 6 -2 10 -2 17zM87 621l250 -610c2 -5 11 -11 17 -11
h128c11 0 19 9 19 19c0 2 0 5 -1 7l-250 610c-2 6 -11 11 -17 11h-129c-11 0 -18 -8 -18 -18c0 -3 0 -5 1 -8z" />
    <glyph glyph-name="bracketright" unicode="]" horiz-adv-x="334" 
d="M306 -63v799h-176c-25 0 -47 15 -58 37l-6 -4c4 -12 6 -32 6 -49v-120c0 -17 -1 -34 -6 -47l6 -4c10 23 33 39 59 39h27v-502h-27c-26 0 -49 16 -59 38l-6 -3c5 -13 6 -30 6 -48v-120c0 -16 -2 -36 -6 -49l6 -3c11 22 33 36 58 36h176zM334 -63c0 -13 -14 -27 -28 -27
h-11v-17c0 -14 -14 -28 -28 -28h-176c-12 0 -29 -8 -33 -21c-5 -9 -16 -15 -27 -15c-4 0 -8 1 -12 3c-10 5 -19 16 -19 30s6 28 6 47c0 18 2 53 2 86c0 30 -2 59 -7 73c-1 2 -1 4 -1 6c0 16 14 33 32 33c3 0 6 -1 10 -2c-1 3 -3 8 -3 14c0 16 14 32 32 32c7 0 15 -2 20 -7
v371c-14 0 -27 -8 -33 -22c-4 -10 -15 -16 -26 -16c-15 0 -32 17 -32 33c0 38 6 78 6 166c0 15 -6 30 -6 47c0 15 14 33 32 33c3 0 6 -1 10 -2c-2 3 -3 8 -3 14c0 10 6 21 13 25c2 2 4 3 6 4c4 2 8 3 13 3c10 0 21 -6 26 -15c6 -13 19 -21 33 -21h176c14 0 28 -14 28 -28
v-799z" />
    <glyph glyph-name="underscore" unicode="_" horiz-adv-x="500" 
d="M500 -186h-500v138h500v-138z" />
    <glyph glyph-name="grave" unicode="`" horiz-adv-x="335" 
d="M292 761l-170 132l-39 -89l192 -83zM319 761c0 -14 -14 -39 -19 -51c-4 -10 -15 -16 -30 -16c-7 -17 -12 -40 -35 -40c-4 0 -7 0 -11 2l-192 83c-9 4 -17 13 -17 24c0 4 1 8 3 12l39 90c5 12 17 16 29 16c8 16 13 40 36 40c6 0 12 -2 17 -6l170 -132c7 -5 10 -14 10 -22z
" />
    <glyph glyph-name="a" unicode="a" horiz-adv-x="786" 
d="M461 248h-90l46 89zM759 160c0 13 -11 22 -23 22c-7 0 -13 -3 -19 -6l-283 471c-6 9 -16 18 -27 18s-21 -9 -26 -18l-272 -471c-5 3 -11 5 -17 5c-13 0 -23 -10 -23 -22c0 -7 4 -13 10 -17l187 -113c4 -2 9 -4 14 -4c11 0 17 9 17 19c0 12 -8 22 -17 28l22 40h221l24 -40
c-10 -6 -18 -16 -18 -27c0 -10 7 -21 18 -21c5 0 9 2 13 5c59 40 119 75 188 113c6 3 11 11 11 18zM786 158c0 -11 -4 -21 -11 -30c-12 -14 -39 -41 -238 -161c-9 -6 -16 -10 -28 -10c-26 0 -49 25 -49 51c0 11 4 22 11 31l-4 5h-140c-1 -12 -7 -23 -16 -32l-38 -38
c-10 -10 -23 -16 -37 -16c-10 0 -19 3 -27 9c-50 35 -100 68 -182 111c-16 8 -27 22 -27 41c0 13 6 26 15 36c13 14 27 27 41 41c7 7 14 12 24 14l160 277c26 44 50 90 77 133c10 16 24 29 40 40c10 19 28 33 50 33s40 -14 51 -32l271 -451c3 0 5 1 8 1c28 0 49 -25 49 -53z
" />
    <glyph glyph-name="b" unicode="b" horiz-adv-x="589" 
d="M370 259c0 -29 -23 -55 -53 -55c-5 0 -11 1 -16 2v103c5 2 10 3 16 3c29 0 53 -23 53 -53zM360 454c0 -24 -20 -44 -44 -44c-5 0 -10 0 -15 1v86l35 -3c15 -8 24 -24 24 -40zM562 238c0 56 -24 109 -67 145c11 23 16 49 16 74c0 101 -77 171 -175 171h-246
c-12 0 -22 -9 -22 -21c0 -20 16 -24 33 -24c6 0 12 1 17 1v-476c-6 0 -12 1 -18 1c-16 0 -32 -4 -32 -23c0 -12 10 -22 22 -22h246c115 0 226 41 226 174zM589 238c0 -133 -135 -242 -266 -242h-273c-27 0 -50 23 -50 50c0 24 18 44 41 49c1 8 5 16 10 22v400
c-28 0 -51 21 -51 50c0 12 5 23 12 32c12 15 29 29 43 42c10 9 21 15 35 15h236c114 0 212 -81 212 -199c0 -23 -3 -46 -11 -67c42 -41 62 -94 62 -152z" />
    <glyph glyph-name="c" unicode="c" horiz-adv-x="678" 
d="M644 140c-58 45 -110 96 -161 148c-4 4 -9 6 -14 6c-12 0 -22 -10 -22 -23c0 -5 2 -11 8 -17c-21 -17 -46 -25 -70 -25c-60 0 -118 48 -118 118c0 71 57 117 117 117c26 0 53 -9 76 -29c-7 -7 -11 -16 -11 -24c0 -12 8 -23 18 -23c5 0 11 3 16 8c54 55 106 104 158 145
c5 5 8 11 8 17c0 11 -10 20 -22 20c-6 0 -13 -2 -19 -8c-64 64 -145 93 -224 93c-161 0 -317 -121 -317 -316c0 -193 158 -317 320 -317c76 0 153 27 215 88c11 -10 21 -13 29 -13c13 0 21 8 21 18c0 6 -3 12 -8 17zM664 89l-40 -41c-9 -9 -21 -14 -34 -14c-9 0 -19 3 -27 8
c-65 -55 -141 -80 -216 -80c-176 0 -347 137 -347 345c0 106 47 201 122 264c68 81 164 122 260 122c82 0 163 -29 229 -88c5 2 11 2 15 2c29 0 51 -25 51 -51c0 -13 -6 -27 -19 -37l-40 -40c-54 -42 -107 -92 -155 -142c-10 -10 -22 -15 -33 -15c-26 0 -51 22 -51 49
c0 6 1 11 3 17c-12 6 -25 10 -38 10s-26 -3 -39 -10c-7 -13 -10 -27 -10 -41c0 -46 36 -91 90 -91l35 25c4 24 26 39 49 39c12 0 24 -4 34 -13l159 -147c11 -10 16 -23 16 -37c0 -12 -4 -24 -14 -34z" />
    <glyph glyph-name="d" unicode="d" horiz-adv-x="668" 
d="M441 346c0 -34 -33 -80 -71 -80c-23 0 -47 1 -70 1v157h70c36 0 71 -42 71 -78zM639 346c0 159 -117 264 -270 281c-36 4 -73 5 -109 5c-57 0 -114 -3 -171 -3c-13 0 -21 -10 -21 -22c0 -21 17 -22 32 -22v-479c-15 0 -40 0 -40 -22c0 -15 16 -22 29 -22h281
c151 0 269 141 269 284zM668 346c0 -249 -243 -355 -460 -355c-53 0 -106 3 -159 3c-28 0 -49 24 -49 51c0 21 13 39 32 46v430c-20 7 -32 26 -32 47c0 12 4 24 13 33l42 42c9 9 21 14 34 14h235c187 0 344 -114 344 -311z" />
    <glyph glyph-name="e" unicode="e" horiz-adv-x="518" 
d="M490 62c-3 32 -5 64 -5 96s1 64 5 97c0 14 -11 21 -22 21s-22 -7 -22 -21v-14h-145v42h73c0 -16 11 -24 22 -24s22 7 22 22c-4 24 -6 48 -6 73c0 22 2 43 6 65c0 14 -11 21 -22 21s-22 -7 -22 -24h-73v36h145c0 -23 14 -35 26 -35c10 0 18 7 18 23c-4 32 -6 65 -6 98
c0 35 2 70 6 105c0 14 -11 21 -22 21s-22 -7 -22 -21v-14h-347c-15 0 -31 -1 -31 -22c0 -18 13 -22 39 -22v-478c-15 0 -39 -1 -39 -22c0 -12 10 -22 22 -22h356c0 -15 11 -23 22 -23s22 8 22 22zM513 157c0 -31 5 -62 5 -97c0 -14 -6 -25 -15 -34l-38 -38
c-10 -10 -23 -15 -37 -15c-16 0 -31 7 -41 23h-337c-32 0 -49 25 -49 50c0 21 12 41 38 47v426c-26 5 -39 24 -39 44c0 13 5 26 15 36l41 41c10 10 26 17 47 17h318c6 20 25 35 47 35c26 0 50 -21 50 -47c0 -33 -6 -65 -6 -105c0 -32 6 -65 6 -102c0 -13 -5 -24 -13 -32
l-40 -41c-7 -6 -16 -11 -25 -13c0 -17 1 -35 3 -55c8 5 16 7 25 7c25 0 50 -19 50 -47c0 -31 -5 -62 -5 -100z" />
    <glyph glyph-name="f" unicode="f" horiz-adv-x="517" 
d="M489 432c-3 35 -5 70 -5 105s1 70 5 106c0 13 -10 21 -20 21c-12 0 -25 -10 -25 -35h-355c-14 0 -21 -11 -21 -22s7 -22 21 -22h16v-477h-7c-14 0 -31 -1 -31 -22c0 -12 10 -22 22 -22h229c12 0 22 9 22 22c0 21 -18 22 -33 22h-7v175h72c0 -17 12 -24 23 -24s21 7 21 20
c0 24 -4 49 -4 79c0 20 1 41 4 61c0 14 -11 21 -22 21s-22 -7 -22 -24h-72v36h145v-20c0 -14 11 -21 22 -21s22 7 22 21zM514 505c0 -23 3 -47 3 -74c0 -13 -6 -25 -15 -34l-40 -40c-6 -6 -15 -10 -23 -12c0 -17 5 -38 5 -57c0 -16 -3 -31 -15 -43l-40 -40
c-9 -9 -21 -14 -35 -14c-10 0 -19 3 -27 8v-65c28 -5 42 -27 42 -49c0 -13 -5 -25 -14 -34l-41 -40c-9 -8 -20 -15 -36 -15h-229c-32 0 -49 25 -49 50c0 21 12 42 38 48v425c-24 6 -38 27 -38 49c0 12 5 25 15 35l40 40c9 9 21 14 34 14h330c6 21 26 35 48 35
c28 0 50 -22 50 -49c0 -48 -3 -92 -3 -138z" />
    <glyph glyph-name="g" unicode="g" horiz-adv-x="669" 
d="M371 373c-1 3 -1 6 -1 8c0 4 0 8 1 11c-10 4 -20 5 -30 5c-12 0 -24 -2 -35 -8c-7 -13 -11 -27 -11 -43s5 -32 12 -45c6 27 42 59 64 72zM634 556c5 5 7 11 7 16c0 12 -10 22 -22 22c-5 0 -10 -2 -15 -6l-8 -7c-58 54 -135 84 -213 84c-174 0 -315 -143 -315 -319
s141 -318 315 -318c90 0 155 38 225 88v192c21 0 31 12 31 23s-9 21 -23 21c-36 -3 -73 -5 -110 -5s-74 1 -111 5c-14 0 -22 -10 -22 -20c0 -12 10 -24 35 -24v-78c-8 -1 -16 -2 -25 -2c-63 0 -115 53 -115 118c0 66 52 119 115 119c23 0 45 -8 65 -21l-4 -3
c-5 -5 -7 -10 -7 -15c0 -12 11 -24 23 -24c5 0 10 2 14 6c51 57 105 106 160 148zM650 534c-59 -45 -117 -110 -173 -160c80 0 90 5 142 5c29 0 47 -25 47 -50c0 -18 -9 -36 -30 -45v-168c0 -7 -3 -14 -8 -19c-78 -79 -166 -136 -285 -136c-189 0 -343 155 -343 345
c0 95 37 183 99 244l43 42c63 61 147 101 241 101c78 0 153 -27 214 -77c8 4 16 5 23 5c28 0 49 -25 49 -51c0 -13 -6 -26 -19 -36z" />
    <glyph glyph-name="h" unicode="h" horiz-adv-x="697" 
d="M647 64c14 0 22 10 22 21s-9 23 -29 23v477c21 0 29 11 29 23c0 10 -8 21 -20 21c-36 0 -72 -5 -117 -5c-33 0 -65 1 -98 5c-13 0 -21 -11 -21 -21c0 -12 8 -23 28 -23v-139h-143v139c18 0 25 10 25 21s-8 23 -18 23c-30 0 -60 -9 -95 -9c-40 0 -81 4 -121 9
c-13 0 -22 -11 -22 -21c0 -12 10 -23 32 -23v-477c-23 0 -32 -12 -32 -23s8 -21 22 -21c35 3 71 5 106 5c36 0 71 -1 107 -5c14 0 22 10 22 21s-9 23 -26 23v161h143v-161c-20 0 -28 -12 -28 -24c0 -10 7 -20 19 -20c38 0 76 5 124 5c30 0 61 -2 91 -5zM684 52l-41 -41
c-9 -9 -21 -14 -34 -14c-31 0 -62 5 -103 5c-36 0 -73 -5 -113 -5c-26 0 -48 22 -48 49c0 19 12 36 28 45v110h-47v-72c13 -9 25 -23 25 -42c0 -14 -4 -26 -13 -35l-40 -41c-9 -9 -21 -14 -34 -14c-32 0 -65 5 -108 5c-35 0 -69 -5 -109 -5c-26 0 -47 23 -47 49
c0 21 13 39 31 46v429c-20 8 -31 27 -31 46c0 13 5 26 15 36l39 39c9 9 20 14 33 14c30 0 61 -5 101 -5c38 0 78 8 117 8c25 0 45 -28 45 -54c0 -16 -7 -31 -24 -41v-90h47v49c-17 8 -28 25 -28 44c0 31 36 56 56 76c8 8 19 13 31 13c33 0 66 -6 106 -6c35 0 71 6 111 6
c29 0 47 -25 47 -50c0 -17 -8 -35 -28 -44v-431c18 -9 29 -28 29 -47c0 -11 -4 -23 -13 -32z" />
    <glyph glyph-name="i" unicode="i" horiz-adv-x="352" 
d="M324 86c0 18 -15 22 -29 22v477c14 0 29 4 29 22c0 12 -10 22 -23 22c-35 -4 -70 -6 -106 -6c-35 0 -70 2 -106 6c-15 0 -22 -9 -22 -19c0 -12 10 -25 28 -25v-477c-18 0 -28 -13 -28 -25c0 -10 7 -19 22 -19c35 3 71 5 106 5c36 0 71 -1 106 -5c13 0 23 10 23 22z
M322 131c17 -9 30 -28 30 -47c0 -11 -5 -23 -15 -33l-41 -40c-9 -8 -20 -14 -33 -14c-32 0 -64 5 -106 5c-35 0 -70 -5 -110 -5c-27 0 -47 23 -47 49c0 21 11 37 28 45v431c-18 8 -28 26 -28 45c0 14 5 27 14 36l41 41c8 8 19 12 31 12c34 0 69 -6 111 -6c34 0 67 6 106 6
c26 0 48 -24 48 -49c0 -20 -11 -37 -29 -45v-431z" />
    <glyph glyph-name="j" unicode="j" horiz-adv-x="475" 
d="M447 607c0 12 -10 22 -22 22c-10 0 -22 -2 -32 -3c-25 -2 -49 -3 -74 -3s-49 1 -74 3c-10 1 -22 3 -32 3c-11 0 -21 -6 -21 -18c0 -16 14 -26 29 -26v-340c0 -7 -4 -13 -11 -13c-4 0 -9 2 -12 4c3 6 5 12 5 19c0 12 -8 21 -20 21c-8 0 -15 -5 -19 -12
c-31 -63 -57 -121 -94 -190c-2 -3 -3 -7 -3 -11c0 -12 12 -21 23 -21c9 0 15 5 19 12c38 -13 78 -21 118 -21c106 0 194 52 194 168v384c14 0 26 6 26 22zM475 607c0 -19 -11 -35 -27 -44v-362c0 -82 -42 -125 -97 -179c-43 -42 -100 -57 -158 -57c-39 0 -79 7 -116 18
c-8 -6 -18 -9 -28 -9c-28 0 -49 23 -49 50c0 9 2 17 6 24l92 186c9 18 41 45 55 60v228c-18 7 -29 26 -29 45c0 13 6 27 15 36l40 40c8 8 19 13 30 13c35 0 70 -6 111 -6c35 0 69 6 109 6c25 0 46 -24 46 -49z" />
    <glyph glyph-name="k" unicode="k" horiz-adv-x="700" 
d="M672 156c0 12 -10 20 -21 20c-10 0 -19 -5 -27 -10l-145 196l140 131c7 -8 17 -15 28 -15s20 9 20 20c0 6 -3 12 -7 16c-53 49 -103 96 -150 151c-4 4 -10 8 -16 8c-11 0 -17 -10 -17 -20c0 -13 8 -25 17 -34l-178 -167v132c16 0 50 7 50 29c0 11 -10 15 -19 15
c-41 0 -82 -4 -133 -4c-28 0 -57 1 -85 2c-14 0 -28 2 -41 2s-21 -8 -21 -21c0 -21 15 -23 31 -23h18v-476c-6 0 -12 1 -19 1c-15 0 -30 -3 -30 -23c0 -13 8 -22 21 -22c43 0 86 5 141 5c37 0 75 -5 115 -5c12 0 22 10 22 22c0 20 -18 22 -34 22h-16v176l165 -223
c-11 -8 -23 -20 -23 -34c0 -10 7 -18 17 -18c5 0 11 2 15 5c56 43 111 85 172 125c6 4 10 10 10 17zM700 155c0 -12 -4 -27 -13 -34c-65 -54 -147 -108 -219 -168c-9 -7 -19 -12 -31 -12c-26 0 -50 24 -50 50c0 14 7 26 16 35l-21 28l-43 -44c-8 -8 -19 -13 -30 -13
c-41 0 -82 6 -129 6c-45 0 -89 -6 -136 -6c-27 0 -44 24 -44 50c0 13 4 27 14 36l35 34v400c-29 0 -49 20 -49 49c0 14 4 27 14 37l41 41c8 8 19 12 30 12c48 -2 90 -5 132 -5c43 0 87 5 132 5c27 0 44 -24 44 -50c0 -13 -4 -26 -13 -35l-36 -36v-19l70 66c-5 8 -9 18 -9 28
c0 13 6 25 15 34l41 42c9 9 21 14 34 14c14 0 27 -6 36 -17c47 -53 94 -101 147 -148c10 -9 17 -20 17 -34s-7 -27 -16 -37l-40 -41c-9 -9 -21 -15 -34 -15c-9 0 -18 3 -25 8l-63 -59l114 -155c6 3 13 4 20 4c27 0 49 -25 49 -51z" />
    <glyph glyph-name="l" unicode="l" horiz-adv-x="518" 
d="M490 42c0 14 -2 28 -2 42c-1 29 -2 58 -2 88c0 25 0 51 2 77c0 13 2 27 2 40c0 12 -9 22 -22 22c-19 0 -22 -16 -22 -47h-125v320c16 0 47 6 47 27c0 12 -13 17 -23 17c-34 0 -68 -5 -112 -5c-48 0 -95 4 -146 5c-9 0 -19 -4 -19 -14c0 -22 36 -30 53 -30v-476
c-12 0 -55 -3 -55 -22s43 -22 55 -22h325c0 -16 6 -44 27 -44c13 0 17 11 17 22zM518 294c0 -39 -5 -79 -5 -127c0 -42 5 -84 5 -128c0 -12 -5 -23 -14 -32l-39 -39c-10 -10 -24 -15 -38 -15c-26 0 -44 17 -48 43h-329c-29 0 -50 21 -50 50c0 13 4 25 13 34l40 40v397
c-30 0 -52 19 -52 50c0 13 5 27 14 36l41 41c8 8 19 12 29 12c43 0 86 -6 135 -6c43 0 85 6 130 6c27 0 44 -24 44 -50c0 -31 -26 -48 -46 -68v-247h53c20 20 38 46 68 46c26 0 49 -17 49 -43z" />
    <glyph glyph-name="m" unicode="m" horiz-adv-x="960" 
d="M932 125c0 12 -10 22 -22 22c-5 0 -9 -1 -13 -3l-183 444c14 1 34 9 34 26c0 12 -12 17 -22 17h-107l-117 -207l-119 207h-106c-10 0 -22 -4 -22 -16c0 -17 21 -26 35 -27l-183 -446c-6 3 -12 4 -18 4c-12 0 -22 -8 -22 -20c0 -9 6 -17 14 -20c31 -13 62 -23 93 -37
c34 -15 66 -34 100 -51c3 -1 6 -2 10 -2c11 0 20 11 20 22c0 10 -7 18 -16 22l80 193l135 -235l132 235l79 -191c-10 -4 -19 -13 -19 -24s9 -22 21 -22c3 0 7 1 10 3c39 20 77 41 118 58c25 11 50 19 75 29c8 3 13 11 13 19zM960 123c0 -11 -5 -23 -13 -31l-40 -40
c-5 -5 -12 -9 -19 -12c-66 -23 -127 -52 -189 -85c-7 -4 -15 -7 -24 -7c-26 0 -47 25 -47 50c0 13 5 24 13 33l-42 101l-72 -128c-4 -7 -38 -39 -45 -46c-5 -5 -12 -8 -19 -8c-10 0 -19 5 -24 14l-93 163l-24 -59c6 -9 10 -19 10 -29c0 -14 -6 -27 -15 -36l-41 -41
c-8 -8 -20 -14 -32 -14c-8 0 -17 3 -24 7c-61 34 -123 61 -188 85c-19 7 -32 22 -32 44c0 13 6 26 15 36l50 51l148 358c-15 8 -25 23 -25 40c0 13 5 26 14 35l40 40c9 9 22 15 35 15h106c11 0 19 -5 24 -14l86 -150l62 110c6 11 35 36 45 46c5 5 12 8 19 8
c36 0 71 -1 107 -1c27 0 50 -21 50 -49c0 -17 -10 -32 -25 -40l163 -395c26 -2 46 -25 46 -51z" />
    <glyph glyph-name="n" unicode="n" horiz-adv-x="727" 
d="M699 614c0 12 -12 17 -23 17c-13 0 -27 -2 -41 -3c-28 -2 -57 -3 -86 -3s-58 1 -86 3c-14 1 -28 3 -42 3c-9 0 -21 -3 -21 -14c0 -23 38 -30 54 -30v-181l-245 225h-115c-11 0 -22 -7 -22 -19c0 -19 23 -25 42 -25v-480c-16 0 -46 -7 -46 -28c0 -11 9 -16 18 -16
c51 1 99 5 148 5c36 0 72 -5 110 -5c9 0 22 4 22 15c0 22 -36 29 -52 29v182l243 -224h97v522c16 0 45 6 45 27zM727 608c0 -29 -26 -45 -45 -64v-479c0 -7 -4 -14 -9 -19l-40 -39c-6 -5 -11 -10 -19 -10h-97c-7 0 -13 3 -18 8l-110 100c3 -7 4 -14 4 -21
c0 -12 -4 -25 -13 -34l-39 -39c-9 -9 -20 -15 -33 -15c-39 0 -77 6 -122 6c-46 0 -93 -6 -141 -6c-27 0 -45 23 -45 49s16 44 41 49c1 5 3 10 5 15v412c-25 5 -42 25 -42 50c0 13 5 25 14 34l41 40c10 9 22 14 35 14h115c7 0 13 -3 18 -7l109 -100c-2 6 -3 12 -3 19
c0 13 5 26 14 35l40 39c8 8 19 13 31 13c41 0 82 -5 132 -5c43 0 86 5 131 5c27 0 46 -23 46 -50z" />
    <glyph glyph-name="o" unicode="o" 
d="M424 310c0 47 -37 84 -84 84c-13 0 -25 -3 -37 -8c-5 -11 -8 -24 -8 -36c0 -47 38 -85 85 -85c12 0 25 3 36 8c5 12 8 24 8 37zM492 350c0 -62 -50 -113 -112 -113s-113 51 -113 113s51 112 113 112s112 -50 112 -112zM692 350c0 172 -140 312 -312 312
s-313 -140 -313 -312c0 -173 141 -312 313 -312s312 140 312 312zM719 350c0 -92 -36 -176 -100 -241l-40 -40c-65 -63 -148 -99 -239 -99c-187 0 -340 153 -340 340c0 90 33 174 97 238l37 36c68 65 151 105 246 105c187 0 339 -152 339 -339z" />
    <glyph glyph-name="p" unicode="p" horiz-adv-x="589" 
d="M296 347v103c5 1 11 1 15 1c36 0 52 -25 52 -50c0 -28 -18 -57 -49 -57c-6 0 -12 1 -18 3zM561 398c0 124 -99 229 -223 229c-49 0 -97 -5 -157 -5c-30 0 -60 1 -91 5c-14 0 -22 -11 -22 -21c0 -11 8 -22 28 -22v-476c-19 0 -28 -11 -28 -23c0 -10 8 -21 22 -21
c35 3 71 5 106 5c36 0 71 -1 106 -5c15 0 23 10 23 21s-9 23 -29 23v62h34c124 12 231 82 231 228zM589 398c0 -83 -33 -150 -90 -195c-35 -45 -88 -77 -155 -92c6 -6 8 -16 8 -25c0 -12 -4 -25 -11 -32l-42 -42c-9 -9 -22 -15 -35 -15c-32 0 -64 5 -107 5
c-18 0 -81 -6 -107 -6c-28 0 -50 23 -50 50c0 19 12 36 28 45v430c-17 8 -28 25 -28 44c0 13 6 25 14 34l41 42c8 8 21 14 33 14c28 0 57 -5 94 -5c34 0 68 1 103 3c49 2 53 2 56 2c62 0 121 -25 168 -70c51 -49 80 -117 80 -187z" />
    <glyph glyph-name="q" unicode="q" 
d="M424 280c0 45 -40 85 -85 85c-12 0 -25 -3 -36 -8c-5 -12 -8 -24 -8 -37c0 -46 38 -84 84 -84c13 0 25 3 37 8c5 11 8 24 8 36zM491 320c0 -62 -50 -112 -112 -112s-112 50 -112 112s50 113 112 113c61 0 112 -52 112 -113zM691 320c0 172 -140 313 -312 313
s-312 -141 -312 -313s140 -312 312 -312c7 0 14 1 21 1l83 -92c-7 -6 -19 -17 -19 -27c0 -9 7 -19 16 -19c34 0 151 130 189 165c4 4 7 8 7 15c0 11 -10 23 -21 23c-10 0 -22 -11 -29 -18l-33 37c62 59 98 141 98 227zM719 320c0 -83 -30 -161 -85 -224c7 4 14 6 22 6
c26 0 48 -25 48 -50c0 -16 -6 -27 -17 -38c-65 -65 -130 -139 -204 -199c-11 -9 -21 -14 -35 -14c-26 0 -51 20 -51 47c0 10 4 20 9 29l-58 64h-6c-190 0 -342 150 -342 339c0 94 39 180 105 246l40 40c62 62 147 94 234 94c188 0 340 -152 340 -340z" />
    <glyph glyph-name="r" unicode="r" horiz-adv-x="706" 
d="M382 407c0 -30 -25 -54 -53 -54c-5 0 -11 1 -16 3v102c5 2 11 3 16 3c28 0 53 -24 53 -54zM672 163c6 7 9 13 9 18c0 9 -9 16 -21 16c-9 0 -20 -4 -31 -14l-84 94c27 36 42 80 42 129c0 116 -90 222 -204 222c-42 0 -85 -6 -140 -6c-52 0 -103 2 -155 5
c-12 0 -20 -9 -20 -21c0 -20 15 -22 30 -22h16v-477c-26 0 -37 -13 -37 -25c0 -10 8 -19 21 -19c39 4 77 6 116 6c36 0 72 -2 108 -6c14 0 22 10 22 21s-9 23 -30 23v78h45l127 -139c-11 -11 -16 -22 -16 -31c0 -12 9 -20 19 -20c5 0 11 2 16 7c55 61 111 116 167 161z
M692 214c9 -9 14 -22 14 -35c0 -14 -6 -28 -17 -37c-72 -59 -143 -132 -204 -198c-10 -11 -22 -15 -34 -15c-26 0 -52 22 -52 50c0 8 3 18 9 27l-45 50l-47 -47c-8 -8 -20 -13 -32 -13c-33 0 -66 6 -108 6c-38 0 -77 -6 -119 -6c-26 0 -48 23 -48 49c0 24 16 43 38 48v423
c-27 2 -47 23 -47 50c0 30 34 54 54 74c9 9 21 15 35 15c44 0 88 -5 143 -5c49 0 99 6 150 6c55 0 107 -21 150 -60c52 -48 83 -119 83 -190c0 -45 -12 -89 -35 -127l52 -58c8 5 17 8 26 8c12 0 24 -5 34 -15z" />
    <glyph glyph-name="s" unicode="s" horiz-adv-x="541" 
d="M513 419c0 36 -22 108 -28 154c-3 21 -5 42 -7 63c-1 10 0 21 -2 31c-1 9 -8 20 -18 20c-17 0 -23 -22 -23 -35c0 -4 0 -8 1 -12c-14 2 -28 3 -41 3c-131 0 -229 -94 -229 -225c0 -25 4 -49 10 -73c5 -19 17 -49 17 -68c0 -27 -32 -27 -52 -27c-8 0 -17 0 -25 1
c-2 16 -13 46 -34 46c-10 0 -14 -9 -14 -18c0 -30 21 -124 41 -249c1 -8 7 -19 18 -19c16 0 20 21 20 40c116 0 245 79 245 213c0 46 -12 91 -24 135c-2 7 -4 13 -4 20c0 25 39 26 56 26c15 0 31 -1 46 -4c2 -16 11 -41 31 -41c11 0 16 9 16 19zM541 419
c0 -12 -5 -24 -14 -33l-40 -40c-9 -9 -23 -14 -36 -14c-19 0 -35 10 -44 27c8 -31 13 -63 13 -95c0 -74 -32 -136 -90 -182c-57 -57 -105 -89 -194 -97c-4 -24 -23 -40 -46 -40c-26 0 -42 18 -46 42c-8 48 -16 95 -25 143c-5 27 -19 85 -19 109c0 12 4 24 13 32l40 39
c10 10 24 16 38 16c4 0 8 -1 12 -2c-3 17 -5 34 -5 52c0 62 21 124 63 171c10 11 22 20 32 30s18 21 29 31c48 43 110 63 174 63c3 0 6 1 10 1c4 25 24 41 49 41c27 0 46 -17 49 -44c3 -28 4 -57 8 -85c6 -53 29 -112 29 -165z" />
    <glyph glyph-name="t" unicode="t" horiz-adv-x="564" 
d="M536 405c-4 35 -5 69 -5 103c0 48 5 95 5 145c0 14 -8 21 -17 21c-13 0 -27 -14 -27 -45h-380c0 31 -15 45 -27 45c-9 0 -17 -8 -17 -21c0 -44 5 -88 5 -142c0 -35 -2 -70 -5 -106c0 -14 8 -21 17 -21c12 0 27 14 27 45h88v-322c-34 0 -50 -16 -50 -29c0 -8 7 -15 20 -15
c40 0 81 4 131 4c43 0 87 -4 133 -4c13 0 19 6 19 14c0 13 -18 30 -54 30v322h93c0 -32 14 -45 27 -45c9 0 17 7 17 21zM558 519c0 -37 6 -74 6 -115c0 -14 -6 -25 -15 -34l-40 -39c-9 -9 -22 -15 -35 -15c-18 0 -29 8 -35 14s-10 12 -12 16v-211c29 0 54 -17 54 -49
c0 -12 -3 -25 -11 -33l-44 -44c-8 -8 -20 -13 -33 -13c-40 0 -80 5 -134 5c-42 0 -83 -5 -129 -5c-27 0 -47 23 -47 50c0 13 5 26 14 35l35 35v246h-18c-4 -2 -10 -4 -16 -5c0 -24 -26 -41 -49 -41c-27 0 -49 22 -49 49c0 56 3 108 3 162c0 27 -3 55 -3 85c0 15 8 28 17 37
l41 41c8 8 19 12 31 12c13 0 27 -5 36 -15c9 -9 3 -30 14 -30h313c4 2 8 3 14 4c5 27 26 40 48 40c25 0 50 -17 50 -48c0 -42 -6 -83 -6 -134z" />
    <glyph glyph-name="u" unicode="u" horiz-adv-x="736" 
d="M688 627c-38 -3 -76 -5 -113 -5c-38 0 -76 1 -114 5c-14 0 -22 -10 -22 -20c0 -11 10 -23 35 -23v-271c0 -36 -39 -67 -87 -67c-37 0 -86 24 -86 67v271c26 0 37 12 37 24c0 10 -9 19 -23 19c-37 -3 -75 -5 -113 -5c-37 0 -75 1 -113 5c-13 0 -22 -10 -22 -20
c0 -11 10 -23 34 -23v-271c0 -147 129 -266 286 -266c148 0 287 111 287 266v271c25 0 36 12 36 23c0 10 -9 20 -22 20zM702 313c0 -89 -42 -165 -105 -218c-59 -71 -152 -115 -250 -115c-173 0 -314 131 -314 293v246c-20 6 -33 25 -33 47c0 12 4 24 13 33l42 42
c9 9 20 14 33 14c36 0 72 -5 116 -5c36 0 72 5 113 5c30 0 47 -25 47 -50c0 -20 -11 -41 -36 -47v-245c0 -26 39 -39 59 -39c7 0 14 1 20 2v242c-21 7 -36 26 -36 48c0 31 36 56 56 76c9 8 21 13 34 13c51 0 99 -3 148 -3c25 0 51 3 81 3c29 0 46 -25 46 -50
c0 -20 -10 -40 -34 -47v-245z" />
    <glyph glyph-name="v" unicode="v" horiz-adv-x="758" 
d="M719 583c-68 26 -134 61 -203 100c-4 2 -7 3 -11 3c-11 0 -19 -9 -19 -19c0 -9 6 -20 22 -28l-119 -207l-103 205c19 9 26 21 26 30c0 11 -8 19 -19 19c-4 0 -8 -1 -12 -3c-68 -39 -134 -75 -202 -100c-8 -5 -12 -12 -12 -19c0 -11 8 -21 22 -21c6 0 12 2 19 5l269 -521
l310 522c8 -4 15 -5 21 -5c15 0 23 10 23 20c0 7 -4 14 -12 19zM729 608c21 -8 29 -22 29 -38c0 -41 -51 -93 -84 -96l-274 -461c-9 -15 -37 -52 -63 -52c-8 0 -19 3 -25 14l-258 499c-19 0 -39 6 -49 26c-4 7 -5 14 -5 22c0 13 5 27 14 36l40 40c4 4 9 8 16 11
c62 23 127 55 197 98c8 5 16 7 24 7c27 0 50 -25 50 -52c0 -13 -5 -26 -18 -36l59 -120l49 84c-9 9 -14 21 -14 34c0 12 5 25 14 34l41 41c9 9 22 15 35 15c8 0 16 -2 24 -7c64 -39 131 -73 198 -99z" />
    <glyph glyph-name="w" unicode="w" horiz-adv-x="967" 
d="M926 603c-72 22 -143 52 -214 88c-3 1 -7 2 -10 2c-12 0 -20 -9 -20 -20c0 -9 6 -20 23 -27l-90 -212l-101 208l-130 -208l-79 207c14 6 19 17 19 27s-7 20 -18 20c-3 0 -7 -1 -11 -3c-73 -35 -143 -66 -215 -87c-9 -4 -13 -12 -13 -20c0 -11 8 -23 20 -23c3 0 6 1 9 2
l24 10l245 -539l131 213l108 -214l285 545c11 -5 19 -6 27 -6c16 0 24 9 24 19c0 8 -5 15 -14 18zM963 603c3 -7 4 -13 4 -20c0 -13 -5 -25 -14 -34l-40 -40c-9 -9 -21 -14 -33 -15l-252 -480c-8 -15 -38 -54 -64 -54c-8 0 -20 4 -25 15l-78 156l-73 -117
c-9 -15 -38 -53 -63 -53c-8 0 -20 5 -25 16l-235 514c-5 -2 -11 -3 -16 -3c-20 0 -39 12 -46 31c-2 6 -3 12 -3 18c0 14 5 27 14 36l39 39c6 6 12 10 19 12c67 20 136 48 211 86c6 3 13 5 20 5c19 0 38 -13 46 -31c3 -7 4 -13 4 -20c0 -13 -5 -25 -14 -34l45 -120l67 107
c10 15 31 32 45 45c5 5 12 7 18 7c10 0 20 -5 25 -15l62 -128l29 68c-10 10 -16 23 -16 37c0 12 5 24 14 34l40 41c9 9 21 14 34 14c7 0 15 -1 22 -5c74 -37 142 -65 210 -85c13 -4 24 -14 29 -27z" />
    <glyph glyph-name="x" unicode="x" horiz-adv-x="753" 
d="M718 163c6 5 8 10 8 16c0 12 -11 23 -23 23c-5 0 -10 -1 -14 -5l-19 -16l-154 176l145 227l21 -13c4 -3 8 -4 12 -4c12 0 22 12 22 23c0 7 -3 13 -10 17c-64 37 -128 75 -192 126c-4 3 -8 4 -12 4c-12 0 -22 -11 -22 -23c0 -6 3 -13 14 -21l-115 -180l-112 129
c18 15 20 20 20 26c0 12 -11 23 -23 23c-5 0 -10 -1 -14 -5c-57 -58 -116 -107 -173 -150c-6 -5 -8 -10 -8 -16c0 -12 10 -23 22 -23c5 0 10 2 24 15l153 -175l-146 -227l-20 12c-4 2 -8 4 -12 4c-12 0 -22 -12 -22 -24c0 -6 3 -12 10 -16c64 -36 127 -78 192 -127
c4 -3 8 -4 11 -4c12 0 23 12 23 24c0 7 -3 13 -15 20l116 182l114 -130c-10 -7 -12 -13 -12 -18c0 -12 11 -25 23 -25c4 0 9 2 13 6c60 57 117 108 175 149zM734 141l-23 -17c-2 -8 -8 -17 -17 -23c-57 -41 -114 -92 -172 -147c-10 -9 -21 -13 -31 -13c-26 0 -51 23 -51 51
c0 6 1 12 4 18l-67 76l-53 -83c5 -8 8 -17 8 -26c0 -13 -6 -25 -14 -33l-41 -41c-9 -9 -22 -15 -35 -15c-10 0 -20 3 -29 10c-63 49 -127 90 -188 123c-17 9 -25 25 -25 41c0 14 6 28 16 38l41 41c8 8 19 13 32 13c4 0 8 -1 13 -2l91 143l-122 140c-7 -4 -15 -5 -21 -5
c-28 0 -49 25 -49 51c0 12 5 24 15 34l43 43c59 49 116 91 172 147c10 10 21 14 32 14c27 0 51 -24 51 -51c0 -9 -2 -19 -9 -28l62 -71l52 81c-5 9 -7 17 -7 24c0 31 34 54 55 75c9 9 22 14 35 14c9 0 18 -2 26 -7c66 -40 122 -86 191 -124c17 -10 25 -26 25 -42
c0 -13 -6 -27 -15 -36l-41 -41c-9 -9 -20 -14 -32 -14c-5 0 -10 0 -15 2l-90 -142l122 -140c10 8 21 11 31 11c27 0 49 -26 49 -52c0 -14 -5 -27 -19 -37z" />
    <glyph glyph-name="y" unicode="y" horiz-adv-x="771" 
d="M735 590c-64 44 -119 87 -169 129c-5 4 -10 6 -14 6c-12 0 -21 -11 -21 -22c0 -8 3 -15 12 -22l-140 -190l-148 154c6 6 9 13 9 19c0 12 -10 22 -22 22c-5 0 -10 -2 -15 -7c-43 -49 -95 -98 -153 -147c-5 -4 -7 -10 -7 -15c0 -12 9 -23 21 -23c7 0 15 4 23 12l171 -178
l-153 -206c-9 7 -16 10 -23 10c-13 0 -22 -11 -22 -22c0 -6 3 -13 10 -17c55 -37 113 -78 170 -129c4 -3 9 -4 13 -4c12 0 22 11 22 22c0 7 -3 14 -11 19l414 559c8 -5 15 -7 21 -7c13 0 21 10 21 20c0 6 -3 13 -9 17zM751 613c14 -10 20 -24 20 -39c0 -23 -15 -46 -41 -50
c-6 -23 -25 -41 -51 -41l-357 -482c3 -7 4 -13 4 -19c0 -14 -6 -26 -15 -35l-40 -40c-10 -10 -22 -16 -35 -16c-11 0 -21 4 -31 13c-50 45 -104 86 -165 126c-15 10 -22 25 -22 39s6 27 15 37l40 41c9 9 21 13 40 13l93 126l-138 144c-7 -3 -13 -4 -19 -4
c-28 0 -49 25 -49 51c0 12 5 25 16 36c64 61 131 117 190 185c10 11 22 16 34 16c26 0 51 -22 51 -50c0 -5 0 -10 -2 -15l105 -109l74 101c-3 7 -5 14 -5 21c0 14 6 26 15 35l41 41c9 9 21 14 34 14c11 0 21 -3 31 -12c45 -40 99 -81 167 -127z" />
    <glyph glyph-name="z" unicode="z" horiz-adv-x="568" 
d="M541 637h-400c0 20 -11 28 -22 28s-22 -8 -22 -22c4 -37 6 -73 6 -110c0 -34 -2 -69 -6 -103c0 -13 11 -22 22 -22s22 9 22 29h92l-166 -372h380c0 -21 11 -30 23 -30c10 0 21 8 21 22c-4 35 -6 70 -6 106c0 35 2 70 6 106c0 14 -10 22 -21 22s-23 -9 -23 -27h-72z
M566 626l-149 -335c23 0 17 28 52 28c27 0 49 -23 49 -50c0 -49 -3 -92 -3 -138c0 -24 3 -47 3 -75c0 -13 -5 -25 -13 -33l-41 -41c-9 -9 -22 -14 -35 -14c-20 0 -38 12 -46 29h-356c-16 0 -27 13 -27 28c0 4 0 7 2 11l149 334h-27c-8 -18 -26 -29 -45 -29
c-25 0 -50 21 -50 47c0 32 6 65 6 105c0 36 -6 71 -6 111c0 13 6 25 15 34l40 40c9 9 22 15 35 15c19 0 36 -12 44 -28h378c16 0 27 -13 27 -28c0 -4 0 -7 -2 -11z" />
    <glyph glyph-name="braceleft" unicode="{" horiz-adv-x="433" 
d="M386 -99c-4 13 -6 30 -6 48v119c0 17 2 37 6 49l-6 4c-11 -22 -33 -37 -58 -37h-23c-6 0 -11 5 -11 11v133c0 46 -10 80 -30 107c20 28 30 61 30 107v133c0 6 5 11 11 11h23c25 0 47 -15 58 -36l6 3c-4 13 -6 32 -6 49v120c0 17 2 34 6 47l-6 4c-10 -22 -32 -39 -56 -39
c-9 0 -19 1 -32 1c-85 0 -153 -74 -153 -160v-134c0 -27 -32 -36 -58 -37v-138c26 -2 58 -8 58 -37v-134c0 -87 72 -159 160 -159h22c26 0 49 -16 59 -38zM408 -51c0 -15 5 -29 5 -46c0 -19 -15 -31 -35 -32c1 -3 1 -5 1 -8c0 -15 -13 -33 -31 -33c-29 0 -30 38 -61 38h-22
c-103 0 -187 84 -187 187v134c0 7 -26 8 -32 9c-13 1 -26 14 -26 27v139c0 13 13 27 27 27c2 0 4 0 7 1v12c0 13 11 26 24 28v102c0 53 22 104 61 139c34 55 94 89 160 89h20c15 0 30 7 36 22c4 10 16 16 27 16c16 0 31 -15 31 -33c0 -12 -5 -24 -5 -45
c-1 -40 -1 -80 -1 -120c0 -15 6 -30 6 -47c0 -10 -6 -22 -13 -26c-6 -3 -12 -6 -22 -6c1 -3 1 -5 1 -8c0 -16 -12 -33 -31 -33s-21 13 -33 23c0 -21 1 -42 1 -63c0 -37 -7 -72 -25 -107c17 -32 25 -68 25 -107c-1 -39 -1 -77 -1 -116h7c14 0 27 8 33 21c5 9 16 15 26 15
c16 0 32 -15 32 -32c0 -15 -6 -29 -6 -48c0 -40 0 -80 1 -119z" />
    <glyph glyph-name="braceright" unicode="}" horiz-adv-x="439" 
d="M391 266v138c-26 1 -58 10 -58 37v134c0 86 -69 160 -153 160c-10 0 -19 -1 -31 -1c-25 0 -46 17 -57 39l-5 -4c4 -13 6 -30 6 -47v-120c0 -17 -2 -36 -6 -49l5 -3c11 21 33 36 59 36h23c6 0 11 -5 11 -11v-133c0 -46 10 -79 30 -107c-20 -27 -30 -61 -30 -107v-133
c0 -6 -5 -11 -11 -11h-23c-26 0 -48 15 -59 37l-5 -4c4 -12 6 -32 6 -49v-119c0 -18 -2 -35 -6 -48l5 -3c11 22 33 38 60 38h22c87 0 159 72 159 159v134c0 29 32 35 58 37zM419 266c0 -24 -22 -29 -39 -29c0 -17 0 -31 -19 -42v-100c0 -55 -25 -108 -68 -143
c-34 -54 -94 -88 -158 -88h-23c-30 0 -31 -38 -60 -38c-16 0 -32 16 -32 33c0 14 6 27 6 45v120c0 15 -6 30 -6 47c0 15 15 33 33 33c3 0 6 -1 9 -2c0 4 -3 7 -3 13c0 16 15 33 33 33c10 0 21 -6 26 -16v36c0 42 2 84 25 123c-19 32 -25 69 -25 107v116
c-17 0 -31 -4 -40 -21c-5 -9 -16 -15 -26 -15c-17 0 -32 15 -32 33c0 14 6 28 6 46v120c0 15 -6 30 -6 47c0 18 17 31 33 31c3 0 6 0 9 -1c0 4 -3 7 -3 13c0 10 6 22 14 26c4 4 11 7 18 7c11 0 22 -6 27 -16c6 -15 21 -22 39 -22h17c102 -1 187 -84 187 -187v-134
c0 -7 26 -9 31 -9c13 0 27 -14 27 -28v-138z" />
    <glyph glyph-name="nbspace" unicode="&#xa0;" horiz-adv-x="500" 
 />
    <glyph glyph-name="exclamdown" unicode="&#xa1;" horiz-adv-x="351" 
d="M285 403c0 49 -40 90 -89 90s-90 -40 -90 -90c0 -52 38 -88 90 -88c51 0 89 36 89 88zM323 -63c0 20 -28 26 -43 26l-34 324h-100l-34 -324c-16 0 -44 -6 -44 -26c0 -12 11 -18 22 -18c37 0 71 6 106 6c41 0 73 -6 105 -6c11 0 22 6 22 18zM351 -60
c0 -24 -21 -49 -46 -49c-39 0 -73 5 -107 5c-36 0 -71 -3 -111 -5c-12 0 -23 6 -31 14l-41 40c-9 9 -15 22 -15 35c0 26 21 49 47 50l31 300c1 8 5 13 11 17c-31 22 -50 58 -50 96c0 65 52 117 117 117c40 0 79 -21 99 -56c36 -20 57 -60 57 -101c0 -39 -21 -77 -54 -98
l16 -15l29 -283c3 -5 6 -11 7 -18c24 -4 41 -25 41 -49z" />
    <glyph glyph-name="cent" unicode="&#xa2;" horiz-adv-x="516" 
d="M266 276c-27 16 -44 45 -44 76s17 59 44 74v-150zM488 172c0 6 -3 11 -7 15l-123 117c-4 4 -9 6 -15 6c-12 0 -22 -10 -22 -22c0 -10 5 -11 9 -18c-7 -2 -14 -3 -20 -4v170c6 0 13 -1 20 -3c-5 -5 -9 -11 -9 -18c0 -11 10 -22 22 -22c6 0 11 2 15 6l123 117
c4 4 7 10 7 15c0 12 -11 24 -23 24c-8 0 -13 -6 -18 -11c-39 30 -88 46 -137 47c0 15 -4 29 -22 29c-21 0 -22 -16 -22 -32c-114 -19 -199 -120 -199 -236c0 -117 83 -218 199 -238c0 -16 2 -31 22 -31c18 0 22 13 22 28c49 1 98 18 138 47c6 -4 9 -8 18 -8
c11 0 22 10 22 22zM516 172c0 -12 -5 -24 -13 -33l-43 -43c-9 -9 -21 -14 -34 -14c-6 0 -12 1 -17 3c-36 -22 -75 -36 -116 -40c-9 -17 -26 -29 -45 -29c-22 0 -41 15 -47 36c-120 29 -201 137 -201 260c0 65 23 128 67 177c17 19 36 38 58 58c32 31 73 53 116 64
c5 22 24 37 47 37c19 0 37 -13 46 -30c40 -5 78 -19 113 -40c6 2 12 4 18 4c28 0 51 -25 51 -52c0 -13 -7 -26 -16 -35l-162 -154c0 -1 0 -3 2 -3c3 0 6 1 9 1c11 0 19 -8 27 -14c22 -19 43 -41 65 -61c20 -19 41 -37 60 -57c9 -10 15 -21 15 -35z" />
    <glyph glyph-name="sterling" unicode="&#xa3;" horiz-adv-x="440" 
d="M412 53c0 9 -2 18 -3 27c-1 20 -2 40 -2 59c0 20 1 40 2 60c1 9 3 18 3 27c0 13 -9 22 -22 22c-19 0 -22 -14 -22 -29h-70c3 15 5 30 5 46c0 11 -1 23 -3 34h13c16 0 31 2 31 22s-16 23 -33 23c-8 0 -16 -1 -22 -1c-7 28 -23 58 -23 87c0 21 12 33 41 33
c-2 -6 -6 -13 -6 -19c0 -12 12 -21 23 -21c9 0 17 5 20 14c7 21 11 42 19 63c12 34 26 66 41 99c1 3 2 6 2 9c0 13 -12 21 -23 21c-13 0 -18 -8 -22 -19c-19 4 -38 6 -57 6c-100 0 -193 -61 -193 -169c0 -35 9 -70 18 -104h-10c-15 0 -31 -2 -31 -22s16 -23 32 -23
c8 0 15 1 21 1c3 -12 7 -24 7 -37c0 -23 -18 -32 -37 -39c-3 10 -10 16 -20 16c-13 0 -23 -9 -23 -22c0 -30 17 -61 21 -95c3 -21 3 -43 6 -65c1 -11 11 -18 21 -18c12 0 23 8 23 25h229c0 -16 1 -33 22 -33c13 0 22 9 22 22zM440 50c0 -11 -4 -22 -12 -30l-41 -42
c-9 -10 -23 -14 -36 -14c-22 0 -40 12 -47 32h-183c-9 -16 -26 -24 -44 -24c-26 0 -47 16 -49 43c-3 52 -11 100 -26 150c-1 5 -2 9 -2 14c0 26 26 45 42 62c-15 8 -21 24 -21 40c0 21 13 40 33 46c-6 25 -11 51 -11 78c0 53 19 98 57 136l40 40c43 43 103 62 163 62
c15 0 29 -1 44 -3c9 10 22 16 35 16c26 0 52 -21 52 -48c0 -8 -2 -14 -5 -21c-25 -52 -43 -101 -58 -156c-6 -21 -37 -46 -52 -61c29 0 53 -19 53 -49c0 -24 -18 -44 -41 -49c-1 -7 -1 -15 -1 -26h15c8 18 26 29 46 29c24 0 49 -20 49 -45c0 -28 -5 -55 -5 -89
c0 -28 5 -57 5 -91z" />
    <glyph glyph-name="currency" unicode="&#xa4;" horiz-adv-x="584" 
d="M550 484c5 4 7 9 7 14c0 12 -12 23 -24 23c-5 0 -10 -2 -14 -6l-4 -3c-45 44 -104 68 -166 68c-116 0 -213 -84 -234 -194h-28c-13 0 -19 -10 -19 -19c0 -10 6 -20 19 -20h23c0 -5 0 -9 1 -14h-24c-13 0 -19 -10 -19 -19c0 -10 6 -20 19 -20h28
c21 -110 118 -194 234 -194c51 0 100 16 141 47l9 -9c5 -5 10 -7 15 -7c12 0 23 11 23 23c0 5 -2 10 -7 15c-46 41 -89 81 -121 121c-5 5 -10 7 -15 7c-12 0 -23 -11 -23 -23c0 -4 2 -9 6 -14c-9 -3 -19 -5 -28 -5c-30 0 -56 16 -70 39h78c12 0 19 10 19 19
c0 10 -7 20 -19 20h-91c-1 2 -1 5 -1 7s0 4 1 7h91c12 0 19 10 19 19c0 10 -7 20 -19 20h-79c15 23 41 39 71 39c21 0 41 -8 57 -23l-9 -9c-5 -5 -7 -10 -7 -15c0 -12 11 -22 23 -22c5 0 10 1 15 6c33 41 75 80 122 122zM568 463c-41 -35 -86 -78 -118 -118
c-9 -11 -23 -15 -31 -28c5 -3 9 -6 12 -10c29 -37 68 -77 117 -117c12 -10 17 -23 17 -35c0 -13 -5 -26 -14 -35l-41 -41c-10 -10 -23 -16 -36 -16c-9 0 -18 3 -26 9c-42 -26 -90 -40 -140 -40c-119 0 -223 81 -255 195c-28 0 -53 15 -53 46c0 10 3 19 8 27
c-5 7 -8 16 -8 26c0 14 4 24 12 32l40 40c4 3 8 7 13 9c17 40 44 75 78 102c49 61 123 99 205 99c62 0 121 -22 170 -62c6 2 11 3 17 3c28 0 49 -25 49 -51c0 -13 -5 -25 -16 -35z" />
    <glyph glyph-name="yen" unicode="&#xa5;" horiz-adv-x="633" 
d="M596 531c-49 26 -97 60 -147 99c-4 3 -9 5 -13 5c-12 0 -21 -12 -21 -24c0 -6 2 -12 9 -17l10 -7l-97 -138l-97 139l9 6c7 5 10 11 10 17c0 12 -10 24 -22 24c-4 0 -9 -2 -13 -5c-50 -39 -98 -74 -147 -99c-7 -5 -10 -11 -10 -17c0 -12 11 -24 23 -24c4 0 8 1 12 4l10 7
l116 -166h-35c-14 0 -22 -11 -22 -22s8 -22 22 -22h49l1 -18h-50c-14 0 -22 -11 -22 -22s8 -22 22 -22h50v-121h-11c-14 0 -22 -11 -22 -22s8 -22 22 -22c30 3 68 5 106 5s76 -1 105 -5c15 0 22 11 22 22s-7 22 -22 22h-11v121h48c15 0 22 11 22 22s-7 22 -22 22h-48v18h48
c15 0 22 11 22 22s-7 22 -22 22h-34l116 165l9 -6c4 -3 8 -4 12 -4c13 0 23 12 23 24c0 6 -3 12 -10 17zM608 556c18 -9 25 -26 25 -42c0 -23 -16 -46 -41 -50c-4 -23 -22 -41 -50 -41l-45 -64c19 -7 33 -25 33 -46c0 -12 -5 -22 -12 -31c7 -8 12 -19 12 -31
c0 -31 -19 -43 -41 -47c-2 -22 -14 -33 -30 -38v-34c20 -7 33 -25 33 -46c0 -12 -4 -25 -13 -34l-41 -41c-9 -9 -21 -15 -34 -15c-32 0 -64 6 -104 6c-35 0 -70 -6 -110 -6c-26 0 -48 24 -48 50c0 22 14 40 34 46v70h-22c-30 0 -50 24 -50 50c0 10 3 21 11 30
c-7 9 -11 19 -11 31c0 22 13 40 33 46l-74 106c-5 -1 -10 -2 -15 -2c-29 0 -48 26 -48 52c0 12 4 24 13 33l38 38c4 4 8 7 13 10c44 21 90 53 142 96c9 8 19 11 29 11c27 0 51 -25 51 -52c0 -9 -3 -18 -9 -27l54 -78l26 37c-7 9 -11 20 -11 30c0 13 6 25 15 34l41 40
c10 9 22 16 36 16c9 0 19 -4 28 -11c48 -40 95 -71 142 -96z" />
    <glyph glyph-name="section" unicode="&#xa7;" horiz-adv-x="2170" 
d="M27 750h128v-750h-128v750zM2020 750h122v-750h-122v750zM1249 468c10 26.667 23.5 51.334 40.5 74.001s37 42.167 60 58.5s48.333 29 76 38s56.5 13.5 86.5 13.5s58.833 -4.5 86.5 -13.5s53 -21.667 76 -38s43 -35.833 60 -58.5s30.5 -47.334 40.5 -74.001h123
c-8 33.333 -20.167 64.833 -36.5 94.5s-36 56.667 -59 81s-48.667 45.5 -77 63.5s-58.833 32.333 -91.5 43h-244c-32.667 -10.667 -63.167 -25 -91.5 -43s-54 -39.167 -77 -63.5s-42.667 -51.333 -59 -81s-28.5 -61.167 -36.5 -94.5h123zM1775 276
c-10 -26.667 -23.501 -51.333 -40.501 -74s-37 -42.167 -60 -58.5s-48.333 -29 -76 -38s-56.5 -13.5 -86.5 -13.5s-58.833 4.5 -86.5 13.5s-53 21.667 -76 38s-43 35.833 -60 58.5s-30.5 47.334 -40.5 74h-123c16 -64 45.833 -120.167 89.5 -168.5
s95.834 -84.166 156.501 -107.499h281c60.667 23.333 112.667 59.166 156 107.499s73 104.5 89 168.5h-123zM922.999 276.001c-10 -26.667 -23.667 -51.334 -41 -74.001s-37.5 -42.167 -60.5 -58.5s-48.333 -29 -76 -38s-56.5 -13.5 -86.5 -13.5s-58.667 4.5 -86 13.5
s-52.5 21.667 -75.5 38s-43.167 35.833 -60.5 58.5s-31 47.334 -41 74.001h-122c8 -32 19.5 -62.167 34.5 -90.5s33 -54.333 54 -78s44.833 -44.667 71.5 -63s55 -33.166 85 -44.499h281c30 11.333 58.333 26.166 85 44.499s50.5 39.333 71.5 63s39 49.667 54 78
s26.5 58.5 34.5 90.5h-122zM396.999 468.001c10 26.667 23.5 51.334 40.5 74.001s37 42.167 60 58.5s48.167 29 75.5 38s56 13.5 86 13.5s58.833 -4.5 86.5 -13.5s53 -21.667 76 -38s43 -35.833 60 -58.5s30.5 -47.334 40.5 -74.001h123
c-8 33.333 -20.167 64.833 -36.5 94.5s-36 56.667 -59 81s-48.667 45.5 -77 63.5s-58.5 32.333 -90.5 43h-245c-32 -10.667 -62.167 -25 -90.5 -43s-54 -39.167 -77 -63.5s-42.667 -51.333 -59 -81s-28.5 -61.167 -36.5 -94.5h123zM273.999 448.001h95v-30h-56v-33h50v-32
h-51v-58h-38v153zM1006 448.001h44l71 -102v102h38v-153h-35l-81 104v-104h-37v153zM1457 448.001h115v-38h-32v-115h-51v116h-32v37zM661.999 456.001c-9.33594 0 -19.1689 -1.33301 -29.5 -4c-10.333 -2.66992 -19.833 -7.33691 -28.5 -14
c-8.66699 -6.66699 -16 -16 -22 -28s-9 -27.333 -9 -46s4.16699 -33.334 12.5 -44c8.33301 -10.667 17.5 -18.667 27.5 -24c12 -6.66699 25.667 -10.667 41 -12c16 1.33301 30.333 5.33301 43 12c11.333 5.33496 21.5 13.668 30.5 25c9 11.334 13.5 27.667 13.5 49
c0 21.334 -4.16699 37.667 -12.5 49c-8.33301 11.335 -17.5 19.668 -27.5 25c-12 6.66699 -25 10.667 -39 12zM654.999 322.001c-8 1.33789 -15.335 3.66992 -22.002 6.99805c-5.34277 3.33301 -10.1758 7.83301 -14.5 13.5c-4.33301 5.66699 -6.5 13.834 -6.5 24.501
c0 10 1.5 18.333 4.5 25s6.83301 12 11.5 16c4.67676 4 9.84375 6.66699 15.501 8c5.67188 1.33301 10.8389 2 15.501 2c7.33301 -0.666992 14.333 -2.66699 21 -6c5.33301 -3.33301 10.333 -8.33301 15 -15s7 -15.667 7 -27c0 -12 -2.5 -21.167 -7.5 -27.5
s-10.5 -11.166 -16.5 -14.499c-7.33301 -3.33301 -15 -5.33301 -23 -6zM1790 333c5.33301 -2.66699 11.498 -5.00195 18.498 -7.00195s14.833 -3 23.5 -3c6.66699 0 12.5 1 17.5 3s7.5 6 7.5 12c0 6.66699 -3.83301 11.334 -11.5 14.001s-16 5.5 -25 8.5
s-17.167 7.5 -24.5 13.5s-11 16 -11 30c0 8.66699 2 16 6 22s9.16699 10.833 15.5 14.5s13.5 6.16699 21.5 7.5s15.667 2 23 2c16 0 29 -2 39 -6l-3 -31c-9.33301 4.66699 -20.333 7 -33 7c-5.33301 0 -11.166 -0.666992 -17.499 -2s-9.5 -5.33301 -9.5 -12
c0 -6 3.66699 -10.167 11 -12.5s15.5 -5 24.5 -8s17.167 -7.33301 24.5 -13s11 -15.5 11 -29.5c0 -19.333 -6.66699 -32.333 -20 -39s-28.666 -10 -45.999 -10c-7.33301 0 -15 0.333008 -23 1s-15.667 2.33398 -23 5.00098z" />
    <glyph glyph-name="dieresis" unicode="&#xa8;" horiz-adv-x="277" 
d="M151 764c0 23 -19 42 -42 42s-42 -19 -42 -42s19 -41 42 -41s42 18 42 41zM250 764c0 23 -19 42 -42 42s-41 -19 -41 -42s18 -41 41 -41s42 18 42 41zM277 764c0 -29 -17 -55 -44 -65c-10 -27 -36 -44 -65 -44c-19 0 -37 8 -50 21c-12 -13 -31 -21 -49 -21
c-38 0 -69 31 -69 69c0 28 17 55 44 65c10 26 37 44 65 44c19 0 37 -8 50 -21c12 13 31 21 49 21c38 0 69 -31 69 -69z" />
    <glyph glyph-name="copyright" unicode="&#xa9;" horiz-adv-x="657" 
d="M475 234c-36 -61 -84 -89 -147 -89c-103 0 -180 75 -180 177s77 177 180 177c59 0 83 -26 96 -26c12 0 16 7 21 24h21v-135h-21c-18 72 -55 109 -105 109c-55 0 -84 -49 -84 -144c0 -98 33 -150 91 -150c39 0 75 24 106 71zM583 324c0 141 -114 256 -255 256
s-255 -114 -255 -256s114 -254 255 -254c140 0 255 114 255 254zM633 324c0 -168 -137 -305 -305 -305c-169 0 -304 136 -304 305s136 306 305 306c168 0 304 -139 304 -306z" />
    <glyph glyph-name="ordfeminine" unicode="&#xaa;" horiz-adv-x="393" 
d="M230 452h-45l23 45zM379 408c0 6 -5 11 -11 11c-3 0 -7 -1 -10 -3l-141 236c-3 4 -8 9 -14 9c-5 0 -10 -5 -13 -9l-136 -236c-2 2 -5 3 -8 3c-6 0 -11 -5 -11 -11c0 -4 1 -7 4 -9l94 -56c2 -2 4 -3 7 -3c5 0 8 5 8 10c0 6 -3 11 -8 14l11 20h110l12 -20
c-5 -3 -8 -8 -8 -14c0 -5 3 -10 8 -10c3 0 5 1 7 3c20 13 40 26 61 38c10 7 22 12 33 18c3 2 5 6 5 9zM393 407c0 -6 -2 -10 -6 -15c-6 -7 -19 -20 -27 -25l-92 -55c-4 -3 -8 -5 -13 -5c-14 0 -25 12 -25 25c0 6 2 13 5 18h-72c0 -6 -3 -12 -8 -16l-19 -19
c-4 -5 -11 -8 -18 -8c-5 0 -9 2 -14 5c-29 19 -57 38 -91 55c-8 4 -13 11 -13 20c0 18 22 42 40 46l80 139c13 22 25 45 38 66c5 8 13 15 20 20c6 9 15 16 26 16c10 0 19 -6 25 -15l135 -226h4c14 0 25 -12 25 -26z" />
    <glyph glyph-name="guillemotleft" unicode="&#xab;" horiz-adv-x="378" 
d="M354 116l-93 153l93 153c3 6 4 11 4 16c0 14 -11 24 -23 24c-7 0 -15 -4 -21 -12l-125 -167c-3 -3 -4 -9 -4 -14s1 -11 4 -14l125 -167c6 -8 14 -12 21 -12c12 0 23 10 23 24c0 5 -1 10 -4 16zM234 116l-93 153l93 153c3 6 4 11 4 16c0 14 -11 24 -23 24
c-7 0 -15 -4 -21 -12l-125 -167c-3 -3 -4 -9 -4 -14s1 -11 4 -14l125 -167c6 -8 14 -12 21 -12c12 0 23 10 23 24c0 5 -1 10 -4 16zM371 126c5 -10 7 -18 7 -26c0 -26 -21 -44 -45 -45c0 -26 -21 -44 -43 -44c-13 0 -27 7 -37 20l-22 28c-5 -2 -11 -3 -18 -4
c0 -26 -21 -44 -43 -44c-13 0 -27 7 -37 20l-125 167c-6 7 -8 18 -8 26s2 19 8 26l125 167c7 9 16 15 25 18l20 27c10 13 24 20 37 20c22 0 43 -18 43 -44c0 -6 -1 -13 -4 -20c6 8 15 14 24 17l20 27c10 13 24 20 37 20c22 0 43 -18 43 -44c0 -8 -2 -16 -7 -26l-87 -143z
" />
    <glyph glyph-name="logicalnot" unicode="&#xac;" horiz-adv-x="638" 
d="M482 189h111c10 0 18 8 18 19v204c0 10 -8 19 -18 19h-488c-10 0 -19 -9 -19 -19v-108c0 -10 9 -19 19 -19h358v-77c0 -11 9 -19 19 -19zM0 350c0 11 5 26 13 34l50 49c13 13 23 25 42 25h488c25 0 45 -21 45 -46v-204c0 -20 -14 -34 -26 -46l-51 -51
c-8 -8 -19 -8 -30 -8h-111c-23 0 -43 18 -43 43v53h-334c-23 0 -43 20 -43 43v108z" />
    <glyph glyph-name="registered" unicode="&#xae;" horiz-adv-x="418" 
d="M239 565c0 22 -11 35 -28 35c-10 0 -15 -4 -15 -13v-63c27 9 43 4 43 41zM322 455c0 -29 -16 -46 -47 -46c-75 0 -21 100 -79 100v-59c0 -14 3 -17 18 -20v-16h-98v16c16 0 22 5 22 20v129c0 15 -5 19 -22 21v15h100c51 0 81 -22 81 -48c0 -31 -21 -46 -67 -53
c37 -4 56 -26 56 -57v-13c0 -8 3 -13 9 -13c8 0 12 10 12 32h15v-8zM364 513c0 83 -69 155 -155 155c-84 0 -155 -72 -155 -155c0 -85 70 -156 155 -156c87 0 155 74 155 156zM394 513c0 -102 -82 -186 -185 -186c-109 0 -185 89 -185 186c0 98 80 184 185 184
c97 0 185 -80 185 -184z" />
    <glyph glyph-name="macron" unicode="&#xaf;" horiz-adv-x="322" 
d="M298 678c0 -15 -4 -21 -18 -21h-238c-14 0 -18 6 -18 21v9c0 15 4 20 17 20h238c14 0 19 -5 19 -20v-9z" />
    <glyph glyph-name="degree" unicode="&#xb0;" horiz-adv-x="412" 
d="M385 486c0 83 -67 150 -149 150s-150 -67 -150 -150s67 -149 149 -149c83 0 150 69 150 149zM279 487c0 -23 -19 -44 -43 -44c-25 0 -44 20 -44 44s20 44 43 44c24 0 44 -21 44 -44zM412 486c0 -59 -30 -112 -76 -144l-40 -40c-31 -31 -75 -51 -123 -51
c-95 0 -173 77 -173 173c0 48 20 92 51 123l40 40c32 46 85 76 145 76c97 0 176 -79 176 -177z" />
    <glyph glyph-name="plusminus" unicode="&#xb1;" horiz-adv-x="610" 
d="M397 380h168c10 0 18 8 18 18v84c0 10 -8 18 -18 18h-169v108c0 10 -8 18 -18 18h-88c-10 0 -18 -8 -18 -18v-108h-168c-10 0 -18 -8 -18 -18v-84c0 -10 8 -18 18 -18h169v-108c0 -10 8 -18 18 -18h87c11 0 19 8 19 18v108zM104 86h461c10 0 18 9 18 19v83
c0 10 -8 19 -18 19h-461c-10 0 -18 -9 -18 -19v-83c0 -10 8 -19 18 -19zM503 294h-79v-22c0 -16 -8 -30 -21 -38h162c25 0 45 -21 45 -46v-83c0 -19 -12 -36 -29 -43l-49 -49c-8 -8 -18 -13 -29 -13h-461c-23 0 -42 20 -42 43v83c0 12 5 22 13 30l50 49c6 17 22 29 41 29h83
v60h-145c-23 0 -42 19 -42 42v84c0 11 4 22 12 30l51 51c7 15 23 26 41 26h82v19c0 11 4 22 12 30l51 51c7 15 23 26 41 26h88c25 0 45 -20 45 -45v-81h142c25 0 45 -20 45 -45v-84c0 -18 -11 -34 -26 -41l-51 -51c-8 -8 -19 -12 -30 -12z" />
    <glyph glyph-name="twosuperior" unicode="&#xb2;" horiz-adv-x="282" 
d="M268 353c-2 17 -3 34 -3 50c0 17 1 34 3 51c0 7 -4 11 -9 11c-6 0 -13 -6 -13 -19h-38c20 36 43 73 43 113c0 52 -41 98 -97 98c-39 0 -71 -20 -95 -48c-5 4 -11 5 -15 5c-7 0 -11 -4 -11 -9c0 -3 2 -7 6 -9c28 -16 56 -34 86 -56c2 -2 4 -3 6 -3c5 0 10 4 10 10
c0 5 -3 10 -11 16c11 11 21 11 24 11c9 0 14 -6 14 -17c0 -8 -3 -17 -9 -28c-30 -55 -62 -110 -92 -166h179c0 -15 7 -21 13 -21c5 0 9 4 9 11zM280 388c0 -11 2 -22 2 -36c0 -6 -2 -12 -7 -16l-19 -19c-5 -5 -12 -8 -19 -8c-12 0 -22 9 -24 20h-166c-8 0 -14 7 -14 14
c0 2 1 5 2 7c0 0 68 123 87 157c-2 -1 -6 -3 -11 -3s-10 2 -99 60c-8 4 -12 13 -12 21c0 6 2 12 7 17l20 21c5 4 12 7 18 7c4 0 9 -1 12 -3c27 28 61 44 97 44c60 0 111 -49 111 -113c0 -35 -16 -68 -33 -98c5 0 5 19 25 19c14 0 25 -11 25 -25c0 -23 -2 -44 -2 -66z" />
    <glyph glyph-name="threesuperior" unicode="&#xb3;" horiz-adv-x="274" 
d="M260 476c0 36 -12 72 -43 93l35 87h-166c0 7 -1 14 -10 14c-7 0 -12 -4 -12 -11c0 -4 2 -9 2 -14c1 -11 1 -22 1 -34c0 -11 0 -22 -1 -34c0 -4 -2 -9 -2 -14c0 -6 5 -10 11 -10c11 0 12 7 12 15c0 1 -1 3 -1 5h43l-26 -65l57 -3c15 -1 17 -16 17 -29
c0 -20 -23 -26 -39 -26c-6 0 -12 0 -18 2c3 3 7 7 7 11c0 6 -6 12 -12 12c-2 0 -5 -1 -7 -3c-21 -19 -43 -49 -72 -71c-2 -2 -3 -5 -3 -8c0 -6 4 -9 9 -9c7 0 12 4 16 8c24 -17 52 -26 80 -26c64 0 122 43 122 110zM274 476c0 -29 -10 -57 -30 -79c-10 -10 -19 -21 -31 -31
c-26 -23 -61 -33 -95 -33c-27 0 -55 7 -78 22c-4 -4 -10 -6 -15 -6c-14 0 -25 11 -25 25c0 7 3 13 7 18l85 82c-8 0 -23 2 -23 13c0 7 16 43 19 52h-8c-2 -12 -12 -20 -24 -20c-14 0 -25 10 -25 24c0 21 2 42 2 63c0 11 -2 23 -2 34c0 6 2 12 6 16l21 21c5 4 11 7 18 7
c9 0 18 -6 22 -14h154c8 0 14 -7 14 -14c0 -6 -27 -72 -32 -82c28 -25 40 -61 40 -98z" />
    <glyph glyph-name="acute" unicode="&#xb4;" horiz-adv-x="304" 
d="M278 801l-39 89l-171 -132l18 -40zM302 812c1 -4 2 -7 2 -11c0 -10 -6 -20 -16 -25l-24 -11v-5c0 -10 -6 -19 -16 -24l-192 -83c-4 -2 -8 -2 -11 -2c-11 0 -21 6 -25 16l-17 40c-2 4 -3 7 -3 11c0 9 4 17 11 22l30 23c1 6 4 12 10 17l171 132c5 4 11 6 17 6c2 0 4 0 7 -1
c8 -2 14 -8 18 -16z" />
    <glyph glyph-name="mu1" unicode="&#xb5;" horiz-adv-x="652" 
d="M650 232c1 -4 2 -11 2 -19c0 -18 -3 -43 -11 -68c-21 -62 -62 -96 -123 -96c-52 0 -90 24 -114 65c-25 -41 -75 -62 -124 -62c-39 0 -77 13 -103 40v-22c0 -37 -1 -73 -1 -113c0 -65 -41 -101 -89 -101c-55 0 -85 49 -85 98c0 13 2 26 6 38c3 8 7 16 12 27
c7 20 16 53 16 137v405h200v-329c0 -39 18 -58 37 -58c18 0 38 19 38 58v329h199v-302c0 -47 10 -62 34 -62c33 0 16 69 68 69c20 0 35 -17 38 -34z" />
    <glyph glyph-name="paragraph" unicode="&#xb6;" horiz-adv-x="506" 
d="M439 558h22c10 0 18 9 18 19v38c0 10 -8 18 -18 18h-208c-102 0 -167 -61 -167 -151c0 -79 53 -138 147 -148v-433c0 -10 8 -19 19 -19h62c10 0 18 9 18 19v657h7v-657c0 -10 8 -19 18 -19h63c10 0 19 9 19 19v657zM506 577c0 -20 -13 -38 -30 -44l-10 -10v-622
c0 -19 -12 -35 -29 -42l-49 -50c-8 -8 -19 -13 -30 -13h-63c-8 0 -16 3 -22 7c-7 -4 -14 -7 -21 -7h-62c-25 0 -43 20 -43 43v412c-94 18 -147 83 -147 169c0 50 17 92 48 123l39 39c32 48 90 78 166 78h208c25 0 45 -20 45 -45v-38z" />
    <glyph glyph-name="periodcentered" unicode="&#xb7;" horiz-adv-x="273" 
d="M245 340c0 59 -44 89 -89 89c-44 0 -89 -30 -89 -89c0 -49 40 -89 90 -89c48 0 88 40 88 89zM273 340c0 -42 -23 -80 -57 -100c-20 -34 -57 -57 -99 -57c-65 0 -117 53 -117 117c0 33 14 62 35 83l44 43c19 19 45 30 82 30c61 0 112 -55 112 -116z" />
    <glyph glyph-name="cedilla" unicode="&#xb8;" horiz-adv-x="206" 
d="M206 -111c0 -53 -57 -73 -113 -73c-32 0 -63 6 -82 17c-8 5 -11 11 -11 18c0 10 8 20 19 20c4 0 7 -1 11 -3c12 -7 40 -12 68 -12c34 0 68 8 68 33c0 26 -59 35 -76 35c-10 0 -20 9 -20 19v73c0 10 0 20 20 20s20 -10 20 -20v-54c39 -4 96 -26 96 -73z" />
    <glyph glyph-name="onesuperior" unicode="&#xb9;" horiz-adv-x="204" 
d="M184 655c4 2 6 6 6 9c0 6 -5 12 -11 12c-1 0 -3 0 -5 -1c-45 -25 -89 -49 -134 -67c-4 -2 -6 -6 -6 -9c0 -6 5 -11 11 -11c2 0 3 0 5 1l13 6v-188c-16 0 -24 -8 -24 -15c0 -4 3 -7 10 -7c23 1 44 2 65 2c22 0 43 -1 65 -2c6 0 9 3 9 7c0 6 -8 15 -25 15v238zM204 665
c0 -6 -3 -13 -8 -18l-19 -19v-208c15 0 26 -12 26 -25c0 -6 -2 -11 -7 -16l-21 -21c-4 -4 -10 -7 -16 -7c-19 0 -37 3 -64 3c-21 0 -43 -3 -66 -3c-13 0 -24 11 -24 25c0 7 3 13 8 17l17 17v144c-14 0 -30 7 -30 25c0 6 3 12 7 17l20 20c2 2 5 4 8 5c43 17 86 39 132 66
c4 2 8 3 12 3c13 0 25 -12 25 -25z" />
    <glyph glyph-name="ordmasculine" unicode="&#xba;" horiz-adv-x="359" 
d="M212 481c0 24 -19 42 -42 42c-7 0 -13 -1 -19 -4c-2 -5 -4 -12 -4 -18c0 -23 19 -42 43 -42c6 0 12 1 18 4c2 6 4 12 4 18zM246 501c0 -31 -25 -56 -56 -56s-57 25 -57 56s26 56 57 56s56 -25 56 -56zM346 501c0 86 -70 156 -156 156s-157 -70 -157 -156
s71 -156 157 -156s156 70 156 156zM359 501c0 -46 -18 -88 -50 -120c-6 -7 -13 -14 -20 -20c-32 -32 -74 -50 -119 -50c-94 0 -170 77 -170 170c0 57 26 96 67 137c34 33 75 53 123 53c93 0 169 -76 169 -170z" />
    <glyph glyph-name="guillemotright" unicode="&#xbb;" horiz-adv-x="378" 
d="M229 88l125 167c3 3 4 9 4 14s-1 11 -4 14l-125 167c-6 8 -14 12 -21 12c-12 0 -23 -10 -23 -24c0 -5 1 -10 4 -16l93 -153l-93 -153c-3 -6 -4 -11 -4 -16c0 -14 11 -24 23 -24c7 0 15 4 21 12zM109 88l125 167c3 3 4 9 4 14s-1 11 -4 14l-125 167c-6 8 -14 12 -21 12
c-12 0 -23 -10 -23 -24c0 -5 1 -10 4 -16l93 -153l-93 -153c-3 -6 -4 -11 -4 -16c0 -14 11 -24 23 -24c7 0 15 4 21 12zM370 243l-125 -167c-7 -9 -16 -15 -25 -18l-20 -27c-10 -13 -24 -20 -37 -20c-22 0 -43 18 -43 44c0 6 0 12 2 18c-6 -8 -14 -13 -22 -15l-20 -27
c-10 -13 -24 -20 -37 -20c-22 0 -43 18 -43 44c0 8 1 16 6 25l88 144l-90 148c-3 6 -4 13 -4 21c0 26 21 44 45 45c0 26 21 44 43 44c13 0 27 -7 37 -20l21 -29c5 3 11 4 19 5c0 26 21 44 43 44c13 0 27 -7 37 -20l125 -167c6 -7 8 -18 8 -26s-2 -19 -8 -26z" />
    <glyph glyph-name="onequarter" unicode="&#xbc;" horiz-adv-x="736" 
d="M257 651c0 -7 -5 -26 -35 -45v-263c18 0 31 -13 33 -27l224 300c2 2 7 5 9 5h28l31 40c1 2 6 5 8 5h170c7 0 11 -6 11 -11c0 -3 0 -5 -2 -7l-308 -411l181 175c6 6 19 7 27 7c11 0 35 -4 35 -19v-158c5 3 11 5 16 5c16 0 32 -12 32 -28s-4 -33 -4 -56c0 -19 4 -38 4 -56
c0 -15 -21 -32 -30 -41c2 -4 4 -10 4 -15c0 -7 -3 -15 -9 -20l-25 -26c-6 -6 -14 -10 -23 -10c-15 0 -29 3 -57 3c-20 0 -40 -3 -62 -3c-17 0 -30 14 -30 31c0 14 9 27 23 31v16h-122c-9 0 -17 9 -17 18v69l-78 -104c-2 -2 -7 -4 -9 -4h-28l-30 -41c-2 -2 -7 -4 -9 -4h-170
c-6 0 -11 5 -11 11c0 2 0 5 2 7c58 78 117 156 176 234c-4 -2 -8 -3 -12 -3c-24 0 -47 3 -81 3c-27 0 -53 -3 -82 -3c-17 0 -31 15 -31 31c0 9 4 17 10 22l21 22v181c-16 0 -37 10 -37 31c0 8 3 16 9 22l25 25c3 2 6 5 10 6c54 22 109 50 167 83c4 3 9 4 14 4
c17 0 32 -15 32 -32zM703 643h-142l-427 -569h142zM699 109c0 6 -2 12 -2 17c-1 13 -2 26 -2 38s1 23 2 35c0 5 2 11 2 17c0 8 -6 14 -14 14c-13 0 -14 -10 -14 -20h-20v190h-32l-208 -201v-83h139v-51c-10 0 -23 0 -23 -14c0 -7 6 -13 14 -13c18 0 36 3 59 3
c19 0 38 -3 59 -3c8 0 14 5 14 13c0 14 -11 14 -22 14v51h20c0 -10 1 -20 14 -20c8 0 14 5 14 13zM231 639c6 3 8 7 8 12c0 7 -6 15 -13 15c-2 0 -5 -1 -7 -2c-57 -32 -112 -61 -169 -84c-5 -3 -7 -7 -7 -12c0 -7 6 -14 14 -14c2 0 4 1 6 2l16 7v-237c-20 0 -30 -10 -30 -18
c0 -5 4 -9 13 -9c28 1 55 2 82 2s53 -1 81 -2c8 0 12 4 12 9c0 8 -10 18 -32 18v300zM550 210h-25l25 24v-24z" />
    <glyph glyph-name="onehalf" unicode="&#xbd;" horiz-adv-x="826" 
d="M257 651c0 -7 -5 -26 -35 -45v-263c18 0 31 -13 33 -27l224 300c2 2 7 5 9 5h28l31 40c1 2 6 5 8 5h170c7 0 11 -6 11 -11c0 -3 0 -5 -2 -7l-202 -269c4 -1 7 -2 11 -4c34 36 76 56 122 56c75 0 140 -62 140 -142c0 -45 -21 -86 -42 -124c7 0 7 24 32 24
c17 0 31 -14 31 -32c0 -28 -2 -55 -2 -82c0 -14 2 -29 2 -46c0 -7 -3 -15 -8 -20l-25 -24c-6 -7 -14 -11 -24 -11c-15 0 -27 12 -30 26h-209c-10 0 -17 9 -17 18c0 3 0 5 2 8c0 0 86 156 110 199c-2 -2 -5 -4 -14 -4c-7 0 -13 2 -19 6l-105 69c-4 2 -8 5 -10 8l-186 -248
c-2 -2 -7 -4 -9 -4h-28l-30 -41c-2 -2 -7 -4 -9 -4h-170c-6 0 -11 5 -11 11c0 2 0 5 2 7c58 78 117 156 176 234c-4 -2 -8 -3 -12 -3c-24 0 -47 3 -81 3c-27 0 -53 -3 -82 -3c-17 0 -31 15 -31 31c0 9 4 17 10 22l21 22v181c-16 0 -37 10 -37 31c0 8 3 16 9 22l25 25
c3 2 6 5 10 6c54 22 109 50 167 83c4 3 9 4 14 4c17 0 32 -15 32 -32zM703 643h-142l-427 -569h142zM809 30c-2 22 -4 43 -4 64s2 42 4 63c0 9 -6 15 -12 15c-8 0 -16 -8 -16 -25h-47c25 45 54 92 54 142c0 66 -52 124 -123 124c-49 0 -89 -25 -119 -61c-8 6 -14 8 -19 8
c-9 0 -14 -6 -14 -12c0 -4 2 -9 7 -11c36 -20 71 -43 108 -72c3 -2 6 -2 8 -2c7 0 12 5 12 12c0 6 -4 13 -13 19c14 14 26 14 30 14c13 0 17 -6 17 -21c0 -9 -2 -21 -10 -35l-117 -209h226c0 -18 9 -26 17 -26c6 0 11 5 11 13zM231 639c6 3 8 7 8 12c0 7 -6 15 -13 15
c-2 0 -5 -1 -7 -2c-57 -32 -112 -61 -169 -84c-5 -3 -7 -7 -7 -12c0 -7 6 -14 14 -14c2 0 4 1 6 2l16 7v-237c-20 0 -30 -10 -30 -18c0 -5 4 -9 13 -9c28 1 55 2 82 2s53 -1 81 -2c8 0 12 4 12 9c0 8 -10 18 -32 18v300z" />
    <glyph glyph-name="threequarters" unicode="&#xbe;" horiz-adv-x="776" 
d="M76 25l182 243c-31 -23 -70 -33 -109 -33c-34 0 -69 9 -98 27c-5 -5 -12 -7 -19 -7c-17 0 -32 13 -32 31c0 9 4 17 10 23l107 103c-10 1 -29 3 -29 17c0 8 20 54 24 65h-10c-3 -14 -16 -25 -31 -25c-17 0 -31 13 -31 31c0 26 2 52 2 78c0 15 -2 30 -2 44c0 8 3 15 8 20
l26 26c6 6 14 9 22 9c12 0 23 -7 28 -18h195c9 0 17 -8 17 -18c0 -7 -35 -90 -40 -103c35 -31 51 -77 51 -123c0 -12 -2 -23 -4 -34l176 235c2 2 7 5 9 5h28l31 40c1 2 6 5 8 5h170c7 0 11 -6 11 -11c0 -3 0 -5 -2 -7l-308 -411l181 175c6 6 19 7 27 7c11 0 35 -4 35 -19
v-158c5 3 11 5 16 5c16 0 32 -12 32 -28s-4 -33 -4 -56c0 -19 4 -38 4 -56c0 -15 -21 -32 -30 -41c2 -4 4 -10 4 -15c0 -7 -3 -15 -9 -20l-25 -26c-6 -6 -14 -10 -23 -10c-15 0 -29 3 -57 3c-20 0 -40 -3 -62 -3c-17 0 -30 14 -30 31c0 14 9 27 23 31v16h-122
c-9 0 -17 9 -17 18v69l-78 -104c-2 -2 -7 -4 -9 -4h-28l-30 -41c-2 -2 -7 -4 -9 -4h-170c-6 0 -11 5 -11 11c0 2 0 5 2 7zM743 643h-142l-427 -569h142zM329 415c0 46 -16 91 -54 118l44 109h-209c0 9 -2 17 -14 17c-8 0 -14 -5 -14 -13c0 -6 1 -12 2 -18c1 -14 2 -28 2 -43
c0 -14 -1 -28 -2 -42c-1 -6 -2 -12 -2 -18c0 -8 6 -13 14 -13c11 0 14 8 14 25h53l-33 -81l73 -5c19 -1 21 -20 21 -36c0 -25 -29 -33 -49 -33c-8 0 -16 1 -23 3c4 4 9 8 9 14c0 8 -7 14 -15 14c-3 0 -7 -1 -9 -3c-30 -23 -61 -60 -90 -89c-3 -3 -5 -7 -5 -11
c0 -7 6 -11 12 -11c8 0 15 5 20 10c29 -21 65 -32 101 -32c80 0 154 53 154 138zM739 109c0 6 -2 12 -2 17c-1 13 -2 26 -2 38s1 23 2 35c0 5 2 11 2 17c0 8 -6 14 -14 14c-13 0 -14 -10 -14 -20h-20v190h-32l-208 -201v-83h139v-51c-10 0 -23 0 -23 -14c0 -7 6 -13 14 -13
c18 0 36 3 59 3c19 0 38 -3 59 -3c8 0 14 5 14 13c0 14 -11 14 -22 14v51h20c0 -10 1 -20 14 -20c8 0 14 5 14 13zM590 210h-25l25 24v-24z" />
    <glyph glyph-name="questiondown" unicode="&#xbf;" horiz-adv-x="528" 
d="M423 422c0 49 -40 90 -89 90c-50 0 -90 -41 -90 -90c0 -50 40 -89 90 -89c49 0 89 40 89 89zM498 101c0 77 -52 145 -104 197h-122c-1 -10 -1 -21 -1 -31c0 -68 21 -98 57 -153c1 -2 2 -4 2 -7c0 -14 -14 -23 -27 -23c-21 0 -35 21 -44 37c7 4 12 10 12 18
c0 12 -10 24 -22 24c-3 0 -8 -1 -10 -3l-21 -16c-18 -13 -37 -25 -57 -35c-18 -9 -37 -16 -56 -23l-25 -8c-9 -4 -13 -10 -13 -19c0 -12 8 -22 21 -22c8 0 16 4 23 8c45 -77 108 -126 200 -126c101 0 187 79 187 182zM528 103c0 -34 -10 -66 -25 -96
c-38 -73 -111 -116 -192 -116c-79 0 -139 32 -190 91c-8 9 -16 19 -25 28h-9c-12 0 -20 1 -31 12l-42 42c-9 9 -14 22 -14 34c0 22 12 40 33 46c70 21 90 34 148 77c8 6 16 9 26 9c3 0 5 -1 8 -1c-9 25 -12 50 -12 90c0 20 3 44 26 46c-33 21 -52 58 -52 97
c0 65 52 117 117 117c40 0 80 -22 100 -57c35 -20 57 -59 57 -100c0 -39 -19 -74 -51 -96c61 -50 128 -142 128 -223z" />
    <glyph glyph-name="Agrave" unicode="&#xc0;" horiz-adv-x="754" 
d="M445 248h-90l46 89zM743 160c0 13 -11 22 -23 22c-7 0 -13 -3 -19 -6l-283 471c-6 9 -16 18 -27 18s-21 -9 -26 -18l-272 -471c-5 3 -11 5 -17 5c-13 0 -23 -10 -23 -22c0 -7 4 -13 10 -17l187 -113c4 -2 9 -4 14 -4c11 0 17 9 17 19c0 12 -8 22 -17 28l22 40h221l24 -40
c-10 -6 -18 -16 -18 -27c0 -10 7 -21 18 -21c5 0 9 2 13 5c59 40 119 75 188 113c6 3 11 11 11 18zM770 158c0 -11 -4 -21 -11 -30c-12 -14 -39 -41 -238 -161c-9 -6 -16 -10 -28 -10c-26 0 -49 25 -49 51c0 11 4 22 11 31l-4 5h-140c-1 -12 -7 -23 -16 -32l-38 -38
c-10 -10 -23 -16 -37 -16c-10 0 -19 3 -27 9c-50 35 -100 68 -182 111c-16 8 -27 22 -27 41c0 13 6 26 15 36c13 14 27 27 41 41c7 7 14 12 24 14l160 277c26 44 50 90 77 133c10 16 24 29 40 40c10 19 28 33 50 33s40 -14 51 -32l271 -451c3 0 5 1 8 1c28 0 49 -25 49 -53z
M502 761l-170 132l-39 -89l192 -83zM529 761c0 -14 -14 -39 -19 -51c-4 -10 -15 -16 -30 -16c-7 -17 -12 -40 -35 -40c-4 0 -7 0 -11 2l-192 83c-9 4 -17 13 -17 24c0 4 1 8 3 12l39 90c5 12 17 16 29 16c8 16 13 40 36 40c6 0 12 -2 17 -6l170 -132c7 -5 10 -14 10 -22z
" />
    <glyph glyph-name="Aacute" unicode="&#xc1;" horiz-adv-x="754" 
d="M445 248h-90l46 89zM743 160c0 13 -11 22 -23 22c-7 0 -13 -3 -19 -6l-283 471c-6 9 -16 18 -27 18s-21 -9 -26 -18l-272 -471c-5 3 -11 5 -17 5c-13 0 -23 -10 -23 -22c0 -7 4 -13 10 -17l187 -113c4 -2 9 -4 14 -4c11 0 17 9 17 19c0 12 -8 22 -17 28l22 40h221l24 -40
c-10 -6 -18 -16 -18 -27c0 -10 7 -21 18 -21c5 0 9 2 13 5c59 40 119 75 188 113c6 3 11 11 11 18zM770 158c0 -11 -4 -21 -11 -30c-12 -14 -39 -41 -238 -161c-9 -6 -16 -10 -28 -10c-26 0 -49 25 -49 51c0 11 4 22 11 31l-4 5h-140c-1 -12 -7 -23 -16 -32l-38 -38
c-10 -10 -23 -16 -37 -16c-10 0 -19 3 -27 9c-50 35 -100 68 -182 111c-16 8 -27 22 -27 41c0 13 6 26 15 36c13 14 27 27 41 41c7 7 14 12 24 14l160 277c26 44 50 90 77 133c10 16 24 29 40 40c10 19 28 33 50 33s40 -14 51 -32l271 -451c3 0 5 1 8 1c28 0 49 -25 49 -53z
M528 801l-39 89l-171 -132l18 -40zM552 812c1 -4 2 -7 2 -11c0 -10 -6 -20 -16 -25l-24 -11v-5c0 -10 -6 -19 -16 -24l-192 -83c-4 -2 -8 -2 -11 -2c-11 0 -21 6 -25 16l-17 40c-2 4 -3 7 -3 11c0 9 4 17 11 22l30 23c1 6 4 12 10 17l171 132c5 4 11 6 17 6c2 0 4 0 7 -1
c8 -2 14 -8 18 -16z" />
    <glyph glyph-name="Acircumflex" unicode="&#xc2;" horiz-adv-x="754" 
d="M445 248h-90l46 89zM743 160c0 13 -11 22 -23 22c-7 0 -13 -3 -19 -6l-283 471c-6 9 -16 18 -27 18s-21 -9 -26 -18l-272 -471c-5 3 -11 5 -17 5c-13 0 -23 -10 -23 -22c0 -7 4 -13 10 -17l187 -113c4 -2 9 -4 14 -4c11 0 17 9 17 19c0 12 -8 22 -17 28l22 40h221l24 -40
c-10 -6 -18 -16 -18 -27c0 -10 7 -21 18 -21c5 0 9 2 13 5c59 40 119 75 188 113c6 3 11 11 11 18zM770 158c0 -11 -4 -21 -11 -30c-12 -14 -39 -41 -238 -161c-9 -6 -16 -10 -28 -10c-26 0 -49 25 -49 51c0 11 4 22 11 31l-4 5h-140c-1 -12 -7 -23 -16 -32l-38 -38
c-10 -10 -23 -16 -37 -16c-10 0 -19 3 -27 9c-50 35 -100 68 -182 111c-16 8 -27 22 -27 41c0 13 6 26 15 36c13 14 27 27 41 41c7 7 14 12 24 14l160 277c26 44 50 90 77 133c10 16 24 29 40 40c10 19 28 33 50 33s40 -14 51 -32l271 -451c3 0 5 1 8 1c28 0 49 -25 49 -53z
M522 720l-118 119l-119 -119h48l71 45l73 -45h45zM549 720c0 -27 -23 -27 -43 -27c2 -4 3 -8 3 -12c0 -16 -11 -28 -27 -28h-46c-5 0 -10 1 -14 4l-58 36l-57 -36c-5 -3 -10 -4 -15 -4h-47c-15 0 -27 12 -27 27c0 8 3 15 8 20l158 158c5 5 12 8 19 8c8 0 15 -3 20 -8
l118 -118c5 -5 8 -12 8 -20z" />
    <glyph glyph-name="Atilde" unicode="&#xc3;" horiz-adv-x="754" 
d="M445 248h-90l46 89zM743 160c0 13 -11 22 -23 22c-7 0 -13 -3 -19 -6l-283 471c-6 9 -16 18 -27 18s-21 -9 -26 -18l-272 -471c-5 3 -11 5 -17 5c-13 0 -23 -10 -23 -22c0 -7 4 -13 10 -17l187 -113c4 -2 9 -4 14 -4c11 0 17 9 17 19c0 12 -8 22 -17 28l22 40h221l24 -40
c-10 -6 -18 -16 -18 -27c0 -10 7 -21 18 -21c5 0 9 2 13 5c59 40 119 75 188 113c6 3 11 11 11 18zM770 158c0 -11 -4 -21 -11 -30c-12 -14 -39 -41 -238 -161c-9 -6 -16 -10 -28 -10c-26 0 -49 25 -49 51c0 11 4 22 11 31l-4 5h-140c-1 -12 -7 -23 -16 -32l-38 -38
c-10 -10 -23 -16 -37 -16c-10 0 -19 3 -27 9c-50 35 -100 68 -182 111c-16 8 -27 22 -27 41c0 13 6 26 15 36c13 14 27 27 41 41c7 7 14 12 24 14l160 277c26 44 50 90 77 133c10 16 24 29 40 40c10 19 28 33 50 33s40 -14 51 -32l271 -451c3 0 5 1 8 1c28 0 49 -25 49 -53z
M495 814h-43c0 -12 -3 -22 -16 -22c-23 0 -46 23 -75 23c-42 0 -56 -47 -56 -82h43c0 9 2 23 15 23c20 0 50 -22 80 -22c42 0 52 47 52 80zM522 814c0 -37 -12 -89 -52 -102c-11 -27 -37 -45 -66 -45c-26 0 -46 12 -70 18c-3 -12 -14 -20 -26 -20h-43c-15 0 -28 13 -28 28
c0 38 15 88 54 103c14 27 39 46 70 46c23 0 44 -10 64 -20c3 12 14 20 26 20h43c15 0 28 -13 28 -28z" />
    <glyph glyph-name="Adieresis" unicode="&#xc4;" horiz-adv-x="754" 
d="M445 248h-90l46 89zM743 160c0 13 -11 22 -23 22c-7 0 -13 -3 -19 -6l-283 471c-6 9 -16 18 -27 18s-21 -9 -26 -18l-272 -471c-5 3 -11 5 -17 5c-13 0 -23 -10 -23 -22c0 -7 4 -13 10 -17l187 -113c4 -2 9 -4 14 -4c11 0 17 9 17 19c0 12 -8 22 -17 28l22 40h221l24 -40
c-10 -6 -18 -16 -18 -27c0 -10 7 -21 18 -21c5 0 9 2 13 5c59 40 119 75 188 113c6 3 11 11 11 18zM770 158c0 -11 -4 -21 -11 -30c-12 -14 -39 -41 -238 -161c-9 -6 -16 -10 -28 -10c-26 0 -49 25 -49 51c0 11 4 22 11 31l-4 5h-140c-1 -12 -7 -23 -16 -32l-38 -38
c-10 -10 -23 -16 -37 -16c-10 0 -19 3 -27 9c-50 35 -100 68 -182 111c-16 8 -27 22 -27 41c0 13 6 26 15 36c13 14 27 27 41 41c7 7 14 12 24 14l160 277c26 44 50 90 77 133c10 16 24 29 40 40c10 19 28 33 50 33s40 -14 51 -32l271 -451c3 0 5 1 8 1c28 0 49 -25 49 -53z
M403 773c0 23 -19 42 -42 42s-42 -19 -42 -42s19 -41 42 -41s42 18 42 41zM502 773c0 23 -19 42 -42 42s-41 -19 -41 -42s18 -41 41 -41s42 18 42 41zM529 773c0 -29 -17 -55 -44 -65c-10 -27 -36 -44 -65 -44c-19 0 -37 8 -50 21c-12 -13 -31 -21 -49 -21
c-38 0 -69 31 -69 69c0 28 17 55 44 65c10 26 37 44 65 44c19 0 37 -8 50 -21c12 13 31 21 49 21c38 0 69 -31 69 -69z" />
    <glyph glyph-name="Aring" unicode="&#xc5;" horiz-adv-x="754" 
d="M486 760c0 -34 -21 -63 -51 -75l-5 -9c5 -5 8 -10 12 -15l271 -451c3 0 5 1 8 1c28 0 49 -25 49 -53c0 -11 -4 -21 -11 -30c-12 -14 -39 -41 -238 -161c-9 -6 -16 -10 -28 -10c-26 0 -49 25 -49 51c0 11 4 22 11 31l-4 5h-140c-1 -12 -7 -23 -16 -32l-38 -38
c-10 -10 -23 -16 -37 -16c-10 0 -19 3 -27 9c-50 35 -100 68 -182 111c-16 8 -27 22 -27 41c0 13 6 26 15 36c13 14 27 27 41 41c7 7 14 12 24 14l160 277c26 44 50 90 77 133c5 9 12 17 20 25c-24 13 -41 39 -41 70c0 34 21 62 50 74c12 30 42 51 76 51c44 0 80 -36 80 -80
zM466 760c0 33 -27 60 -60 60s-61 -26 -61 -60s28 -60 61 -60s60 27 60 60zM433 760c0 -15 -12 -27 -27 -27s-28 11 -28 27c0 15 13 28 28 28s27 -13 27 -28zM445 248h-90l46 89zM743 160c0 13 -11 22 -23 22c-7 0 -13 -3 -19 -6l-283 471c-6 9 -16 18 -27 18
s-21 -9 -26 -18l-272 -471c-5 3 -11 5 -17 5c-13 0 -23 -10 -23 -22c0 -7 4 -13 10 -17l187 -113c4 -2 9 -4 14 -4c11 0 17 9 17 19c0 12 -8 22 -17 28l22 40h221l24 -40c-10 -6 -18 -16 -18 -27c0 -10 7 -21 18 -21c5 0 9 2 13 5c59 40 119 75 188 113c6 3 11 11 11 18z
" />
    <glyph glyph-name="AE" unicode="&#xc6;" horiz-adv-x="814" 
d="M426 249h-47l47 67v-67zM788 67c-4 32 -6 64 -6 96s2 64 6 97c0 14 -11 21 -22 21s-22 -7 -22 -21v-15h-145v43l72 -3c0 -14 11 -22 22 -22s22 7 22 22c-4 24 -6 48 -6 71s2 45 6 67c0 14 -11 22 -22 22s-22 -7 -22 -25h-72v36h145v-12c0 -14 11 -22 22 -22s22 7 22 22
c-4 33 -6 66 -6 98c0 36 2 70 6 105c0 14 -11 22 -22 22s-22 -7 -22 -22v-13h-337c-18 0 -26 -1 -41 -26l-258 -427l-7 4c-4 2 -8 3 -12 3c-12 0 -22 -11 -22 -23c0 -7 3 -13 11 -18c62 -30 125 -68 187 -113c4 -3 8 -4 12 -4c12 0 21 11 21 23c0 6 -3 13 -10 18l-9 6l23 40
h103v-5c-28 0 -39 -13 -39 -25c0 -10 8 -19 22 -19h356c0 -15 11 -23 22 -23s22 8 22 22zM808 165c0 -32 6 -64 6 -100c0 -12 -5 -24 -14 -33l-41 -42c-8 -9 -21 -13 -34 -13c-17 0 -33 9 -42 23h-336c-14 0 -28 7 -37 17l-38 -38c-7 -7 -15 -12 -24 -14c-4 -1 -9 -2 -14 -2
c-9 0 -19 3 -26 8c-60 44 -121 81 -183 111c-16 8 -25 26 -25 44c0 9 2 18 7 26c11 18 35 36 50 52c6 6 15 9 23 11l222 367c11 19 22 30 37 36l3 4c17 29 32 39 65 39h311c7 24 27 35 47 35c25 0 49 -17 49 -46c0 -33 -5 -66 -5 -109c0 -31 5 -62 5 -99
c0 -13 -4 -23 -13 -32l-41 -41c-7 -7 -15 -11 -23 -13c0 -17 1 -35 3 -54c8 4 16 7 25 7c26 0 49 -22 49 -47c0 -30 -6 -60 -6 -97z" />
    <glyph glyph-name="Ccedilla" unicode="&#xc7;" horiz-adv-x="679" 
d="M650 148c0 6 -3 11 -7 15c-23 23 -52 42 -80 68c-27 25 -51 54 -80 80c-4 4 -9 6 -15 6c-12 0 -22 -10 -22 -22c0 -7 3 -13 8 -17c-20 -17 -45 -26 -71 -26c-65 0 -116 54 -116 118s51 118 116 118c28 0 55 -11 76 -30c-6 -6 -13 -13 -13 -22c0 -12 10 -23 22 -23
c6 0 11 2 15 6c24 20 44 45 68 68c29 27 60 51 90 78c5 4 7 8 7 15c0 12 -11 23 -23 23c-7 0 -13 -5 -18 -10c-59 60 -139 95 -224 95c-175 0 -316 -144 -316 -318c0 -130 80 -248 201 -296l-64 -86l129 -49l10 116c13 -2 27 -3 40 -3c82 0 160 32 219 90
c7 -7 15 -17 26 -17c12 0 22 11 22 23zM679 150c0 -14 -7 -28 -17 -38l-41 -41c-9 -9 -20 -14 -32 -14c-9 0 -18 3 -26 8c-56 -47 -125 -75 -198 -80c-6 -74 2 -52 -52 -106c-5 -5 -12 -8 -19 -8c-4 0 -7 1 -10 2l-130 49c-11 4 -18 15 -18 26c0 17 39 60 50 75
c-113 60 -186 179 -186 307c0 82 29 161 82 224c13 15 27 26 40 40s25 28 40 40c62 53 140 82 221 82c84 0 165 -32 227 -88c5 2 11 3 16 3c27 0 50 -25 50 -52c0 -15 -7 -25 -18 -35c-33 -28 -66 -55 -97 -85c-34 -32 -65 -67 -98 -99c-9 -9 -20 -15 -33 -15
c-27 0 -52 23 -52 50c0 6 1 11 3 16c-12 6 -25 10 -39 10c-13 0 -25 -3 -37 -9c-7 -13 -10 -27 -10 -42c0 -49 39 -90 90 -91c2 4 5 8 47 50c10 10 23 15 37 15s25 -5 34 -14c27 -27 54 -55 82 -81c25 -22 51 -43 76 -64c11 -9 18 -20 18 -35z" />
    <glyph glyph-name="Egrave" unicode="&#xc8;" horiz-adv-x="518" 
d="M490 62c-3 32 -5 64 -5 96s1 64 5 97c0 14 -11 21 -22 21s-22 -7 -22 -21v-14h-145v42h73c0 -16 11 -24 22 -24s22 7 22 22c-4 24 -6 48 -6 73c0 22 2 43 6 65c0 14 -11 21 -22 21s-22 -7 -22 -24h-73v36h145c0 -23 14 -35 26 -35c10 0 18 7 18 23c-4 32 -6 65 -6 98
c0 35 2 70 6 105c0 14 -11 21 -22 21s-22 -7 -22 -21v-14h-347c-15 0 -31 -1 -31 -22c0 -18 13 -22 39 -22v-478c-15 0 -39 -1 -39 -22c0 -12 10 -22 22 -22h356c0 -15 11 -23 22 -23s22 8 22 22zM513 157c0 -31 5 -62 5 -97c0 -14 -6 -25 -15 -34l-38 -38
c-10 -10 -23 -15 -37 -15c-16 0 -31 7 -41 23h-337c-32 0 -49 25 -49 50c0 21 12 41 38 47v426c-26 5 -39 24 -39 44c0 13 5 26 15 36l41 41c10 10 26 17 47 17h318c6 20 25 35 47 35c26 0 50 -21 50 -47c0 -33 -6 -65 -6 -105c0 -32 6 -65 6 -102c0 -13 -5 -24 -13 -32
l-40 -41c-7 -6 -16 -11 -25 -13c0 -17 1 -35 3 -55c8 5 16 7 25 7c25 0 50 -19 50 -47c0 -31 -5 -62 -5 -100zM384 761l-170 132l-39 -89l192 -83zM411 761c0 -14 -14 -39 -19 -51c-4 -10 -15 -16 -30 -16c-7 -17 -12 -40 -35 -40c-4 0 -7 0 -11 2l-192 83
c-9 4 -17 13 -17 24c0 4 1 8 3 12l39 90c5 12 17 16 29 16c8 16 13 40 36 40c6 0 12 -2 17 -6l170 -132c7 -5 10 -14 10 -22z" />
    <glyph glyph-name="Eacute" unicode="&#xc9;" horiz-adv-x="518" 
d="M490 62c-3 32 -5 64 -5 96s1 64 5 97c0 14 -11 21 -22 21s-22 -7 -22 -21v-14h-145v42h73c0 -16 11 -24 22 -24s22 7 22 22c-4 24 -6 48 -6 73c0 22 2 43 6 65c0 14 -11 21 -22 21s-22 -7 -22 -24h-73v36h145c0 -23 14 -35 26 -35c10 0 18 7 18 23c-4 32 -6 65 -6 98
c0 35 2 70 6 105c0 14 -11 21 -22 21s-22 -7 -22 -21v-14h-347c-15 0 -31 -1 -31 -22c0 -18 13 -22 39 -22v-478c-15 0 -39 -1 -39 -22c0 -12 10 -22 22 -22h356c0 -15 11 -23 22 -23s22 8 22 22zM513 157c0 -31 5 -62 5 -97c0 -14 -6 -25 -15 -34l-38 -38
c-10 -10 -23 -15 -37 -15c-16 0 -31 7 -41 23h-337c-32 0 -49 25 -49 50c0 21 12 41 38 47v426c-26 5 -39 24 -39 44c0 13 5 26 15 36l41 41c10 10 26 17 47 17h318c6 20 25 35 47 35c26 0 50 -21 50 -47c0 -33 -6 -65 -6 -105c0 -32 6 -65 6 -102c0 -13 -5 -24 -13 -32
l-40 -41c-7 -6 -16 -11 -25 -13c0 -17 1 -35 3 -55c8 5 16 7 25 7c25 0 50 -19 50 -47c0 -31 -5 -62 -5 -100zM438 801l-39 89l-171 -132l18 -40zM462 812c1 -4 2 -7 2 -11c0 -10 -6 -20 -16 -25l-24 -11v-5c0 -10 -6 -19 -16 -24l-192 -83c-4 -2 -8 -2 -11 -2
c-11 0 -21 6 -25 16l-17 40c-2 4 -3 7 -3 11c0 9 4 17 11 22l30 23c1 6 4 12 10 17l171 132c5 4 11 6 17 6c2 0 4 0 7 -1c8 -2 14 -8 18 -16z" />
    <glyph glyph-name="Ecircumflex" unicode="&#xca;" horiz-adv-x="518" 
d="M490 62c-3 32 -5 64 -5 96s1 64 5 97c0 14 -11 21 -22 21s-22 -7 -22 -21v-14h-145v42h73c0 -16 11 -24 22 -24s22 7 22 22c-4 24 -6 48 -6 73c0 22 2 43 6 65c0 14 -11 21 -22 21s-22 -7 -22 -24h-73v36h145c0 -23 14 -35 26 -35c10 0 18 7 18 23c-4 32 -6 65 -6 98
c0 35 2 70 6 105c0 14 -11 21 -22 21s-22 -7 -22 -21v-14h-347c-15 0 -31 -1 -31 -22c0 -18 13 -22 39 -22v-478c-15 0 -39 -1 -39 -22c0 -12 10 -22 22 -22h356c0 -15 11 -23 22 -23s22 8 22 22zM513 157c0 -31 5 -62 5 -97c0 -14 -6 -25 -15 -34l-38 -38
c-10 -10 -23 -15 -37 -15c-16 0 -31 7 -41 23h-337c-32 0 -49 25 -49 50c0 21 12 41 38 47v426c-26 5 -39 24 -39 44c0 13 5 26 15 36l41 41c10 10 26 17 47 17h318c6 20 25 35 47 35c26 0 50 -21 50 -47c0 -33 -6 -65 -6 -105c0 -32 6 -65 6 -102c0 -13 -5 -24 -13 -32
l-40 -41c-7 -6 -16 -11 -25 -13c0 -17 1 -35 3 -55c8 5 16 7 25 7c25 0 50 -19 50 -47c0 -31 -5 -62 -5 -100zM397 720l-118 119l-119 -119h48l71 45l73 -45h45zM424 720c0 -27 -23 -27 -43 -27c2 -4 3 -8 3 -12c0 -16 -11 -28 -27 -28h-46c-5 0 -10 1 -14 4l-58 36l-57 -36
c-5 -3 -10 -4 -15 -4h-47c-15 0 -27 12 -27 27c0 8 3 15 8 20l158 158c5 5 12 8 19 8c8 0 15 -3 20 -8l118 -118c5 -5 8 -12 8 -20z" />
    <glyph glyph-name="Edieresis" unicode="&#xcb;" horiz-adv-x="518" 
d="M490 62c-3 32 -5 64 -5 96s1 64 5 97c0 14 -11 21 -22 21s-22 -7 -22 -21v-14h-145v42h73c0 -16 11 -24 22 -24s22 7 22 22c-4 24 -6 48 -6 73c0 22 2 43 6 65c0 14 -11 21 -22 21s-22 -7 -22 -24h-73v36h145c0 -23 14 -35 26 -35c10 0 18 7 18 23c-4 32 -6 65 -6 98
c0 35 2 70 6 105c0 14 -11 21 -22 21s-22 -7 -22 -21v-14h-347c-15 0 -31 -1 -31 -22c0 -18 13 -22 39 -22v-478c-15 0 -39 -1 -39 -22c0 -12 10 -22 22 -22h356c0 -15 11 -23 22 -23s22 8 22 22zM513 157c0 -31 5 -62 5 -97c0 -14 -6 -25 -15 -34l-38 -38
c-10 -10 -23 -15 -37 -15c-16 0 -31 7 -41 23h-337c-32 0 -49 25 -49 50c0 21 12 41 38 47v426c-26 5 -39 24 -39 44c0 13 5 26 15 36l41 41c10 10 26 17 47 17h318c6 20 25 35 47 35c26 0 50 -21 50 -47c0 -33 -6 -65 -6 -105c0 -32 6 -65 6 -102c0 -13 -5 -24 -13 -32
l-40 -41c-7 -6 -16 -11 -25 -13c0 -17 1 -35 3 -55c8 5 16 7 25 7c25 0 50 -19 50 -47c0 -31 -5 -62 -5 -100zM299 764c0 23 -19 42 -42 42s-42 -19 -42 -42s19 -41 42 -41s42 18 42 41zM398 764c0 23 -19 42 -42 42s-41 -19 -41 -42s18 -41 41 -41s42 18 42 41zM425 764
c0 -29 -17 -55 -44 -65c-10 -27 -36 -44 -65 -44c-19 0 -37 8 -50 21c-12 -13 -31 -21 -49 -21c-38 0 -69 31 -69 69c0 28 17 55 44 65c10 26 37 44 65 44c19 0 37 -8 50 -21c12 13 31 21 49 21c38 0 69 -31 69 -69z" />
    <glyph glyph-name="Igrave" unicode="&#xcc;" horiz-adv-x="352" 
d="M324 86c0 18 -15 22 -29 22v477c14 0 29 4 29 22c0 12 -10 22 -23 22c-35 -4 -70 -6 -106 -6c-35 0 -70 2 -106 6c-15 0 -22 -9 -22 -19c0 -12 10 -25 28 -25v-477c-18 0 -28 -13 -28 -25c0 -10 7 -19 22 -19c35 3 71 5 106 5c36 0 71 -1 106 -5c13 0 23 10 23 22z
M322 131c17 -9 30 -28 30 -47c0 -11 -5 -23 -15 -33l-41 -40c-9 -8 -20 -14 -33 -14c-32 0 -64 5 -106 5c-35 0 -70 -5 -110 -5c-27 0 -47 23 -47 49c0 21 11 37 28 45v431c-18 8 -28 26 -28 45c0 14 5 27 14 36l41 41c8 8 19 12 31 12c34 0 69 -6 111 -6c34 0 67 6 106 6
c26 0 48 -24 48 -49c0 -20 -11 -37 -29 -45v-431zM301 761l-170 132l-39 -89l192 -83zM328 761c0 -14 -14 -39 -19 -51c-4 -10 -15 -16 -30 -16c-7 -17 -12 -40 -35 -40c-4 0 -7 0 -11 2l-192 83c-9 4 -17 13 -17 24c0 4 1 8 3 12l39 90c5 12 17 16 29 16c8 16 13 40 36 40
c6 0 12 -2 17 -6l170 -132c7 -5 10 -14 10 -22z" />
    <glyph glyph-name="Iacute" unicode="&#xcd;" horiz-adv-x="352" 
d="M324 86c0 18 -15 22 -29 22v477c14 0 29 4 29 22c0 12 -10 22 -23 22c-35 -4 -70 -6 -106 -6c-35 0 -70 2 -106 6c-15 0 -22 -9 -22 -19c0 -12 10 -25 28 -25v-477c-18 0 -28 -13 -28 -25c0 -10 7 -19 22 -19c35 3 71 5 106 5c36 0 71 -1 106 -5c13 0 23 10 23 22z
M322 131c17 -9 30 -28 30 -47c0 -11 -5 -23 -15 -33l-41 -40c-9 -8 -20 -14 -33 -14c-32 0 -64 5 -106 5c-35 0 -70 -5 -110 -5c-27 0 -47 23 -47 49c0 21 11 37 28 45v431c-18 8 -28 26 -28 45c0 14 5 27 14 36l41 41c8 8 19 12 31 12c34 0 69 -6 111 -6c34 0 67 6 106 6
c26 0 48 -24 48 -49c0 -20 -11 -37 -29 -45v-431zM324 801l-39 89l-171 -132l18 -40zM348 812c1 -4 2 -7 2 -11c0 -10 -6 -20 -16 -25l-24 -11v-5c0 -10 -6 -19 -16 -24l-192 -83c-4 -2 -8 -2 -11 -2c-11 0 -21 6 -25 16l-17 40c-2 4 -3 7 -3 11c0 9 4 17 11 22l30 23
c1 6 4 12 10 17l171 132c5 4 11 6 17 6c2 0 4 0 7 -1c8 -2 14 -8 18 -16z" />
    <glyph glyph-name="Icircumflex" unicode="&#xce;" horiz-adv-x="352" 
d="M324 86c0 18 -15 22 -29 22v477c14 0 29 4 29 22c0 12 -10 22 -23 22c-35 -4 -70 -6 -106 -6c-35 0 -70 2 -106 6c-15 0 -22 -9 -22 -19c0 -12 10 -25 28 -25v-477c-18 0 -28 -13 -28 -25c0 -10 7 -19 22 -19c35 3 71 5 106 5c36 0 71 -1 106 -5c13 0 23 10 23 22z
M322 131c17 -9 30 -28 30 -47c0 -11 -5 -23 -15 -33l-41 -40c-9 -8 -20 -14 -33 -14c-32 0 -64 5 -106 5c-35 0 -70 -5 -110 -5c-27 0 -47 23 -47 49c0 21 11 37 28 45v431c-18 8 -28 26 -28 45c0 14 5 27 14 36l41 41c8 8 19 12 31 12c34 0 69 -6 111 -6c34 0 67 6 106 6
c26 0 48 -24 48 -49c0 -20 -11 -37 -29 -45v-431zM314 720l-118 119l-119 -119h48l71 45l73 -45h45zM341 720c0 -27 -23 -27 -43 -27c2 -4 3 -8 3 -12c0 -16 -11 -28 -27 -28h-46c-5 0 -10 1 -14 4l-58 36l-57 -36c-5 -3 -10 -4 -15 -4h-47c-15 0 -27 12 -27 27
c0 8 3 15 8 20l158 158c5 5 12 8 19 8c8 0 15 -3 20 -8l118 -118c5 -5 8 -12 8 -20z" />
    <glyph glyph-name="Idieresis" unicode="&#xcf;" horiz-adv-x="352" 
d="M324 86c0 18 -15 22 -29 22v477c14 0 29 4 29 22c0 12 -10 22 -23 22c-35 -4 -70 -6 -106 -6c-35 0 -70 2 -106 6c-15 0 -22 -9 -22 -19c0 -12 10 -25 28 -25v-477c-18 0 -28 -13 -28 -25c0 -10 7 -19 22 -19c35 3 71 5 106 5c36 0 71 -1 106 -5c13 0 23 10 23 22z
M322 131c17 -9 30 -28 30 -47c0 -11 -5 -23 -15 -33l-41 -40c-9 -8 -20 -14 -33 -14c-32 0 -64 5 -106 5c-35 0 -70 -5 -110 -5c-27 0 -47 23 -47 49c0 21 11 37 28 45v431c-18 8 -28 26 -28 45c0 14 5 27 14 36l41 41c8 8 19 12 31 12c34 0 69 -6 111 -6c34 0 67 6 106 6
c26 0 48 -24 48 -49c0 -20 -11 -37 -29 -45v-431zM188 764c0 23 -19 42 -42 42s-42 -19 -42 -42s19 -41 42 -41s42 18 42 41zM287 764c0 23 -19 42 -42 42s-41 -19 -41 -42s18 -41 41 -41s42 18 42 41zM314 764c0 -29 -17 -55 -44 -65c-10 -27 -36 -44 -65 -44
c-19 0 -37 8 -50 21c-12 -13 -31 -21 -49 -21c-38 0 -69 31 -69 69c0 28 17 55 44 65c10 26 37 44 65 44c19 0 37 -8 50 -21c12 13 31 21 49 21c38 0 69 -31 69 -69z" />
    <glyph glyph-name="Eth" unicode="&#xd0;" horiz-adv-x="698" 
d="M471 348c0 -66 -61 -84 -116 -84h-25v62h46c13 0 22 9 22 22s-9 22 -22 22h-46v61h25c55 0 116 -16 116 -83zM670 348c0 181 -145 283 -315 283h-236c-13 0 -22 -9 -22 -22c0 -21 17 -22 33 -22v-216h-26c-19 0 -37 -3 -37 -23s18 -23 37 -23c9 0 19 1 26 1v-217
c-16 0 -33 -1 -33 -22c0 -12 9 -23 22 -23h236c170 0 315 104 315 284zM698 348c0 -192 -177 -352 -383 -352h-236c-27 0 -50 24 -50 51c0 21 14 40 34 46v165c-30 0 -63 12 -63 50c0 12 3 24 12 33l40 40c3 3 7 6 11 8v134c-20 7 -34 25 -34 46c0 13 6 26 15 35l40 40
c9 9 22 15 35 15h236c186 0 343 -114 343 -311z" />
    <glyph glyph-name="Ntilde" unicode="&#xd1;" horiz-adv-x="727" 
d="M699 614c0 12 -12 17 -23 17c-13 0 -27 -2 -41 -3c-28 -2 -57 -3 -86 -3s-58 1 -86 3c-14 1 -28 3 -42 3c-9 0 -21 -3 -21 -14c0 -23 38 -30 54 -30v-181l-245 225h-115c-11 0 -22 -7 -22 -19c0 -19 23 -25 42 -25v-480c-16 0 -46 -7 -46 -28c0 -11 9 -16 18 -16
c51 1 99 5 148 5c36 0 72 -5 110 -5c9 0 22 4 22 15c0 22 -36 29 -52 29v182l243 -224h97v522c16 0 45 6 45 27zM727 608c0 -29 -26 -45 -45 -64v-479c0 -7 -4 -14 -9 -19l-40 -39c-6 -5 -11 -10 -19 -10h-97c-7 0 -13 3 -18 8l-110 100c3 -7 4 -14 4 -21
c0 -12 -4 -25 -13 -34l-39 -39c-9 -9 -20 -15 -33 -15c-39 0 -77 6 -122 6c-46 0 -93 -6 -141 -6c-27 0 -45 23 -45 49s16 44 41 49c1 5 3 10 5 15v412c-25 5 -42 25 -42 50c0 13 5 25 14 34l41 40c10 9 22 14 35 14h115c7 0 13 -3 18 -7l109 -100c-2 6 -3 12 -3 19
c0 13 5 26 14 35l40 39c8 8 19 13 31 13c41 0 82 -5 132 -5c43 0 86 5 131 5c27 0 46 -23 46 -50zM477 791h-43c0 -12 -3 -22 -16 -22c-23 0 -46 23 -75 23c-42 0 -56 -47 -56 -82h43c0 9 2 23 15 23c20 0 50 -22 80 -22c42 0 52 47 52 80zM504 791c0 -37 -12 -89 -52 -102
c-11 -27 -37 -45 -66 -45c-26 0 -46 12 -70 18c-3 -12 -14 -20 -26 -20h-43c-15 0 -28 13 -28 28c0 38 15 88 54 103c14 27 39 46 70 46c23 0 44 -10 64 -20c3 12 14 20 26 20h43c15 0 28 -13 28 -28z" />
    <glyph glyph-name="Ograve" unicode="&#xd2;" 
d="M424 310c0 47 -37 84 -84 84c-13 0 -25 -3 -37 -8c-5 -11 -8 -24 -8 -36c0 -47 38 -85 85 -85c12 0 25 3 36 8c5 12 8 24 8 37zM492 350c0 -62 -50 -113 -112 -113s-113 51 -113 113s51 112 113 112s112 -50 112 -112zM692 350c0 172 -140 312 -312 312
s-313 -140 -313 -312c0 -173 141 -312 313 -312s312 140 312 312zM719 350c0 -92 -36 -176 -100 -241l-40 -40c-65 -63 -148 -99 -239 -99c-187 0 -340 153 -340 340c0 90 33 174 97 238l37 36c68 65 151 105 246 105c187 0 339 -152 339 -339zM486 773l-170 132l-39 -89
l192 -83zM513 773c0 -14 -14 -39 -19 -51c-4 -10 -15 -16 -30 -16c-7 -17 -12 -40 -35 -40c-4 0 -7 0 -11 2l-192 83c-9 4 -17 13 -17 24c0 4 1 8 3 12l39 90c5 12 17 16 29 16c8 16 13 40 36 40c6 0 12 -2 17 -6l170 -132c7 -5 10 -14 10 -22z" />
    <glyph glyph-name="Oacute" unicode="&#xd3;" 
d="M424 310c0 47 -37 84 -84 84c-13 0 -25 -3 -37 -8c-5 -11 -8 -24 -8 -36c0 -47 38 -85 85 -85c12 0 25 3 36 8c5 12 8 24 8 37zM492 350c0 -62 -50 -113 -112 -113s-113 51 -113 113s51 112 113 112s112 -50 112 -112zM692 350c0 172 -140 312 -312 312
s-313 -140 -313 -312c0 -173 141 -312 313 -312s312 140 312 312zM719 350c0 -92 -36 -176 -100 -241l-40 -40c-65 -63 -148 -99 -239 -99c-187 0 -340 153 -340 340c0 90 33 174 97 238l37 36c68 65 151 105 246 105c187 0 339 -152 339 -339zM511 810l-39 89l-171 -132
l18 -40zM535 821c1 -4 2 -7 2 -11c0 -10 -6 -20 -16 -25l-24 -11v-5c0 -10 -6 -19 -16 -24l-192 -83c-4 -2 -8 -2 -11 -2c-11 0 -21 6 -25 16l-17 40c-2 4 -3 7 -3 11c0 9 4 17 11 22l30 23c1 6 4 12 10 17l171 132c5 4 11 6 17 6c2 0 4 0 7 -1c8 -2 14 -8 18 -16z" />
    <glyph glyph-name="Ocircumflex" unicode="&#xd4;" 
d="M424 310c0 47 -37 84 -84 84c-13 0 -25 -3 -37 -8c-5 -11 -8 -24 -8 -36c0 -47 38 -85 85 -85c12 0 25 3 36 8c5 12 8 24 8 37zM492 350c0 -62 -50 -113 -112 -113s-113 51 -113 113s51 112 113 112s112 -50 112 -112zM692 350c0 172 -140 312 -312 312
s-313 -140 -313 -312c0 -173 141 -312 313 -312s312 140 312 312zM719 350c0 -92 -36 -176 -100 -241l-40 -40c-65 -63 -148 -99 -239 -99c-187 0 -340 153 -340 340c0 90 33 174 97 238l37 36c68 65 151 105 246 105c187 0 339 -152 339 -339zM512 733l-118 119l-119 -119
h48l71 45l73 -45h45zM539 733c0 -27 -23 -27 -43 -27c2 -4 3 -8 3 -12c0 -16 -11 -28 -27 -28h-46c-5 0 -10 1 -14 4l-58 36l-57 -36c-5 -3 -10 -4 -15 -4h-47c-15 0 -27 12 -27 27c0 8 3 15 8 20l158 158c5 5 12 8 19 8c8 0 15 -3 20 -8l118 -118c5 -5 8 -12 8 -20z" />
    <glyph glyph-name="Otilde" unicode="&#xd5;" 
d="M424 310c0 47 -37 84 -84 84c-13 0 -25 -3 -37 -8c-5 -11 -8 -24 -8 -36c0 -47 38 -85 85 -85c12 0 25 3 36 8c5 12 8 24 8 37zM492 350c0 -62 -50 -113 -112 -113s-113 51 -113 113s51 112 113 112s112 -50 112 -112zM692 350c0 172 -140 312 -312 312
s-313 -140 -313 -312c0 -173 141 -312 313 -312s312 140 312 312zM719 350c0 -92 -36 -176 -100 -241l-40 -40c-65 -63 -148 -99 -239 -99c-187 0 -340 153 -340 340c0 90 33 174 97 238l37 36c68 65 151 105 246 105c187 0 339 -152 339 -339zM473 817h-43
c0 -12 -3 -22 -16 -22c-23 0 -46 23 -75 23c-42 0 -56 -47 -56 -82h43c0 9 2 23 15 23c20 0 50 -22 80 -22c42 0 52 47 52 80zM500 817c0 -37 -12 -89 -52 -102c-11 -27 -37 -45 -66 -45c-26 0 -46 12 -70 18c-3 -12 -14 -20 -26 -20h-43c-15 0 -28 13 -28 28
c0 38 15 88 54 103c14 27 39 46 70 46c23 0 44 -10 64 -20c3 12 14 20 26 20h43c15 0 28 -13 28 -28z" />
    <glyph glyph-name="Odieresis" unicode="&#xd6;" 
d="M424 310c0 47 -37 84 -84 84c-13 0 -25 -3 -37 -8c-5 -11 -8 -24 -8 -36c0 -47 38 -85 85 -85c12 0 25 3 36 8c5 12 8 24 8 37zM492 350c0 -62 -50 -113 -112 -113s-113 51 -113 113s51 112 113 112s112 -50 112 -112zM692 350c0 172 -140 312 -312 312
s-313 -140 -313 -312c0 -173 141 -312 313 -312s312 140 312 312zM719 350c0 -92 -36 -176 -100 -241l-40 -40c-65 -63 -148 -99 -239 -99c-187 0 -340 153 -340 340c0 90 33 174 97 238l37 36c68 65 151 105 246 105c187 0 339 -152 339 -339zM374 775c0 23 -19 42 -42 42
s-42 -19 -42 -42s19 -41 42 -41s42 18 42 41zM473 775c0 23 -19 42 -42 42s-41 -19 -41 -42s18 -41 41 -41s42 18 42 41zM500 775c0 -29 -17 -55 -44 -65c-10 -27 -36 -44 -65 -44c-19 0 -37 8 -50 21c-12 -13 -31 -21 -49 -21c-38 0 -69 31 -69 69c0 28 17 55 44 65
c10 26 37 44 65 44c19 0 37 -8 50 -21c12 13 31 21 49 21c38 0 69 -31 69 -69z" />
    <glyph glyph-name="multiply" unicode="&#xd7;" horiz-adv-x="614" 
d="M523 112l58 58c4 3 6 8 6 13s-2 9 -6 13l-160 161l160 161c4 3 6 8 6 13s-2 9 -6 13l-58 58c-4 3 -8 5 -13 5s-10 -2 -13 -5l-160 -161l-162 161c-4 3 -8 5 -13 5s-10 -2 -13 -5l-58 -58c-3 -4 -5 -9 -5 -14c0 -4 2 -9 5 -12c55 -54 107 -108 162 -161l-162 -161
c-4 -4 -5 -8 -5 -13s1 -10 5 -13l58 -58c3 -4 8 -5 13 -5s9 1 13 5l162 161l160 -161c3 -3 7 -5 12 -5s10 2 14 5zM599 150l-120 -116c-10 -8 -21 -13 -32 -13c-12 0 -22 5 -29 12l-141 142l-83 -82c-4 -3 -8 -5 -12 -7l-52 -53c-9 -8 -20 -12 -30 -12c-11 0 -22 3 -30 12
l-58 58c-9 8 -12 19 -12 30s2 20 12 30l142 146l-142 142c-7 7 -12 19 -12 29c0 11 5 22 13 32l52 52c2 4 5 8 8 12l57 57c8 8 20 13 32 13c13 0 22 -5 33 -14l142 -141l141 142c8 8 20 13 32 13c13 0 22 -5 33 -14l57 -57c10 -10 14 -19 14 -32c0 -11 -5 -24 -15 -33
l-140 -141l141 -142c9 -10 14 -19 14 -32c0 -11 -5 -24 -15 -33z" />
    <glyph glyph-name="Oslash" unicode="&#xd8;" 
d="M443 444l-158 -158c-12 18 -19 40 -19 62c0 61 52 116 114 116c23 0 44 -8 63 -20zM495 347c0 -62 -56 -110 -116 -110c-22 0 -44 7 -63 18l158 158c13 -20 21 -42 21 -66zM692 350c0 75 -27 147 -76 204c10 10 40 35 40 50c0 11 -10 22 -22 22c-15 0 -39 -30 -49 -40
c-57 48 -129 75 -204 75c-176 0 -314 -134 -314 -311c0 -75 28 -148 77 -205c-10 -10 -40 -34 -40 -49c0 -12 10 -22 22 -22c14 0 39 30 49 40c57 -49 128 -76 203 -76c176 0 314 136 314 312zM719 350c0 -79 -28 -157 -78 -218c-13 -15 -28 -28 -42 -42
c-13 -13 -24 -26 -37 -38c-62 -53 -141 -82 -223 -82c-72 0 -144 23 -202 67c-13 -15 -29 -31 -50 -31c-27 0 -51 24 -51 51c0 21 16 37 31 50c-43 59 -67 130 -67 203c0 79 28 156 79 217c13 15 28 28 42 42c13 13 23 26 37 38c61 53 140 83 221 83c73 0 144 -24 203 -68
c14 15 30 32 52 32c24 0 51 -23 51 -48c0 -21 -18 -40 -32 -54c43 -59 66 -129 66 -202z" />
    <glyph glyph-name="Ugrave" unicode="&#xd9;" horiz-adv-x="736" 
d="M688 627c-38 -3 -76 -5 -113 -5c-38 0 -76 1 -114 5c-14 0 -22 -10 -22 -20c0 -11 10 -23 35 -23v-271c0 -36 -39 -67 -87 -67c-37 0 -86 24 -86 67v271c26 0 37 12 37 24c0 10 -9 19 -23 19c-37 -3 -75 -5 -113 -5c-37 0 -75 1 -113 5c-13 0 -22 -10 -22 -20
c0 -11 10 -23 34 -23v-271c0 -147 129 -266 286 -266c148 0 287 111 287 266v271c25 0 36 12 36 23c0 10 -9 20 -22 20zM702 313c0 -89 -42 -165 -105 -218c-59 -71 -152 -115 -250 -115c-173 0 -314 131 -314 293v246c-20 6 -33 25 -33 47c0 12 4 24 13 33l42 42
c9 9 20 14 33 14c36 0 72 -5 116 -5c36 0 72 5 113 5c30 0 47 -25 47 -50c0 -20 -11 -41 -36 -47v-245c0 -26 39 -39 59 -39c7 0 14 1 20 2v242c-21 7 -36 26 -36 48c0 31 36 56 56 76c9 8 21 13 34 13c51 0 99 -3 148 -3c25 0 51 3 81 3c29 0 46 -25 46 -50
c0 -20 -10 -40 -34 -47v-245zM493 761l-170 132l-39 -89l192 -83zM520 761c0 -14 -14 -39 -19 -51c-4 -10 -15 -16 -30 -16c-7 -17 -12 -40 -35 -40c-4 0 -7 0 -11 2l-192 83c-9 4 -17 13 -17 24c0 4 1 8 3 12l39 90c5 12 17 16 29 16c8 16 13 40 36 40c6 0 12 -2 17 -6
l170 -132c7 -5 10 -14 10 -22z" />
    <glyph glyph-name="Uacute" unicode="&#xda;" horiz-adv-x="736" 
d="M688 627c-38 -3 -76 -5 -113 -5c-38 0 -76 1 -114 5c-14 0 -22 -10 -22 -20c0 -11 10 -23 35 -23v-271c0 -36 -39 -67 -87 -67c-37 0 -86 24 -86 67v271c26 0 37 12 37 24c0 10 -9 19 -23 19c-37 -3 -75 -5 -113 -5c-37 0 -75 1 -113 5c-13 0 -22 -10 -22 -20
c0 -11 10 -23 34 -23v-271c0 -147 129 -266 286 -266c148 0 287 111 287 266v271c25 0 36 12 36 23c0 10 -9 20 -22 20zM702 313c0 -89 -42 -165 -105 -218c-59 -71 -152 -115 -250 -115c-173 0 -314 131 -314 293v246c-20 6 -33 25 -33 47c0 12 4 24 13 33l42 42
c9 9 20 14 33 14c36 0 72 -5 116 -5c36 0 72 5 113 5c30 0 47 -25 47 -50c0 -20 -11 -41 -36 -47v-245c0 -26 39 -39 59 -39c7 0 14 1 20 2v242c-21 7 -36 26 -36 48c0 31 36 56 56 76c9 8 21 13 34 13c51 0 99 -3 148 -3c25 0 51 3 81 3c29 0 46 -25 46 -50
c0 -20 -10 -40 -34 -47v-245zM494 801l-39 89l-171 -132l18 -40zM518 812c1 -4 2 -7 2 -11c0 -10 -6 -20 -16 -25l-24 -11v-5c0 -10 -6 -19 -16 -24l-192 -83c-4 -2 -8 -2 -11 -2c-11 0 -21 6 -25 16l-17 40c-2 4 -3 7 -3 11c0 9 4 17 11 22l30 23c1 6 4 12 10 17l171 132
c5 4 11 6 17 6c2 0 4 0 7 -1c8 -2 14 -8 18 -16z" />
    <glyph glyph-name="Ucircumflex" unicode="&#xdb;" horiz-adv-x="736" 
d="M688 627c-38 -3 -76 -5 -113 -5c-38 0 -76 1 -114 5c-14 0 -22 -10 -22 -20c0 -11 10 -23 35 -23v-271c0 -36 -39 -67 -87 -67c-37 0 -86 24 -86 67v271c26 0 37 12 37 24c0 10 -9 19 -23 19c-37 -3 -75 -5 -113 -5c-37 0 -75 1 -113 5c-13 0 -22 -10 -22 -20
c0 -11 10 -23 34 -23v-271c0 -147 129 -266 286 -266c148 0 287 111 287 266v271c25 0 36 12 36 23c0 10 -9 20 -22 20zM702 313c0 -89 -42 -165 -105 -218c-59 -71 -152 -115 -250 -115c-173 0 -314 131 -314 293v246c-20 6 -33 25 -33 47c0 12 4 24 13 33l42 42
c9 9 20 14 33 14c36 0 72 -5 116 -5c36 0 72 5 113 5c30 0 47 -25 47 -50c0 -20 -11 -41 -36 -47v-245c0 -26 39 -39 59 -39c7 0 14 1 20 2v242c-21 7 -36 26 -36 48c0 31 36 56 56 76c9 8 21 13 34 13c51 0 99 -3 148 -3c25 0 51 3 81 3c29 0 46 -25 46 -50
c0 -20 -10 -40 -34 -47v-245zM506 720l-118 119l-119 -119h48l71 45l73 -45h45zM533 720c0 -27 -23 -27 -43 -27c2 -4 3 -8 3 -12c0 -16 -11 -28 -27 -28h-46c-5 0 -10 1 -14 4l-58 36l-57 -36c-5 -3 -10 -4 -15 -4h-47c-15 0 -27 12 -27 27c0 8 3 15 8 20l158 158
c5 5 12 8 19 8c8 0 15 -3 20 -8l118 -118c5 -5 8 -12 8 -20z" />
    <glyph glyph-name="Udieresis" unicode="&#xdc;" horiz-adv-x="736" 
d="M688 627c-38 -3 -76 -5 -113 -5c-38 0 -76 1 -114 5c-14 0 -22 -10 -22 -20c0 -11 10 -23 35 -23v-271c0 -36 -39 -67 -87 -67c-37 0 -86 24 -86 67v271c26 0 37 12 37 24c0 10 -9 19 -23 19c-37 -3 -75 -5 -113 -5c-37 0 -75 1 -113 5c-13 0 -22 -10 -22 -20
c0 -11 10 -23 34 -23v-271c0 -147 129 -266 286 -266c148 0 287 111 287 266v271c25 0 36 12 36 23c0 10 -9 20 -22 20zM702 313c0 -89 -42 -165 -105 -218c-59 -71 -152 -115 -250 -115c-173 0 -314 131 -314 293v246c-20 6 -33 25 -33 47c0 12 4 24 13 33l42 42
c9 9 20 14 33 14c36 0 72 -5 116 -5c36 0 72 5 113 5c30 0 47 -25 47 -50c0 -20 -11 -41 -36 -47v-245c0 -26 39 -39 59 -39c7 0 14 1 20 2v242c-21 7 -36 26 -36 48c0 31 36 56 56 76c9 8 21 13 34 13c51 0 99 -3 148 -3c25 0 51 3 81 3c29 0 46 -25 46 -50
c0 -20 -10 -40 -34 -47v-245zM380 764c0 23 -19 42 -42 42s-42 -19 -42 -42s19 -41 42 -41s42 18 42 41zM479 764c0 23 -19 42 -42 42s-41 -19 -41 -42s18 -41 41 -41s42 18 42 41zM506 764c0 -29 -17 -55 -44 -65c-10 -27 -36 -44 -65 -44c-19 0 -37 8 -50 21
c-12 -13 -31 -21 -49 -21c-38 0 -69 31 -69 69c0 28 17 55 44 65c10 26 37 44 65 44c19 0 37 -8 50 -21c12 13 31 21 49 21c38 0 69 -31 69 -69z" />
    <glyph glyph-name="Yacute" unicode="&#xdd;" horiz-adv-x="771" 
d="M735 590c-64 44 -119 87 -169 129c-5 4 -10 6 -14 6c-12 0 -21 -11 -21 -22c0 -8 3 -15 12 -22l-140 -190l-148 154c6 6 9 13 9 19c0 12 -10 22 -22 22c-5 0 -10 -2 -15 -7c-43 -49 -95 -98 -153 -147c-5 -4 -7 -10 -7 -15c0 -12 9 -23 21 -23c7 0 15 4 23 12l171 -178
l-153 -206c-9 7 -16 10 -23 10c-13 0 -22 -11 -22 -22c0 -6 3 -13 10 -17c55 -37 113 -78 170 -129c4 -3 9 -4 13 -4c12 0 22 11 22 22c0 7 -3 14 -11 19l414 559c8 -5 15 -7 21 -7c13 0 21 10 21 20c0 6 -3 13 -9 17zM751 613c14 -10 20 -24 20 -39c0 -23 -15 -46 -41 -50
c-6 -23 -25 -41 -51 -41l-357 -482c3 -7 4 -13 4 -19c0 -14 -6 -26 -15 -35l-40 -40c-10 -10 -22 -16 -35 -16c-11 0 -21 4 -31 13c-50 45 -104 86 -165 126c-15 10 -22 25 -22 39s6 27 15 37l40 41c9 9 21 13 40 13l93 126l-138 144c-7 -3 -13 -4 -19 -4
c-28 0 -49 25 -49 51c0 12 5 25 16 36c64 61 131 117 190 185c10 11 22 16 34 16c26 0 51 -22 51 -50c0 -5 0 -10 -2 -15l105 -109l74 101c-3 7 -5 14 -5 21c0 14 6 26 15 35l41 41c9 9 21 14 34 14c11 0 21 -3 31 -12c45 -40 99 -81 167 -127zM557 813l-39 89l-171 -132
l18 -40zM581 824c1 -4 2 -7 2 -11c0 -10 -6 -20 -16 -25l-24 -11v-5c0 -10 -6 -19 -16 -24l-192 -83c-4 -2 -8 -2 -11 -2c-11 0 -21 6 -25 16l-17 40c-2 4 -3 7 -3 11c0 9 4 17 11 22l30 23c1 6 4 12 10 17l171 132c5 4 11 6 17 6c2 0 4 0 7 -1c8 -2 14 -8 18 -16z" />
    <glyph glyph-name="Thorn" unicode="&#xde;" horiz-adv-x="589" 
d="M364 367c0 -30 -24 -54 -53 -54c-6 0 -11 1 -16 2v103c5 1 10 2 16 2c29 0 53 -24 53 -53zM561 366c0 123 -99 229 -221 229c-13 0 -26 -1 -44 -1v27h6c14 0 22 11 22 22s-7 22 -22 22c-35 -4 -70 -6 -106 -6c-35 0 -70 2 -106 6c-14 0 -22 -11 -22 -22s7 -22 22 -22h6
v-514h-6c-14 0 -22 -11 -22 -22s7 -22 22 -22c35 4 71 6 106 6c36 0 71 -2 106 -6c14 0 22 11 22 22s-7 22 -22 22h-6v30c137 0 265 70 265 229zM589 366c0 -83 -33 -150 -90 -195c-34 -44 -84 -75 -147 -90c-1 -12 -7 -23 -15 -31l-40 -40c-8 -8 -20 -14 -33 -14
c-33 0 -66 5 -107 5c-35 0 -69 -5 -108 -5c-26 0 -49 23 -49 49c0 20 12 37 29 45v468c-17 8 -29 26 -29 45c0 13 6 26 15 35l41 41c8 8 20 13 32 13c32 0 64 -5 107 -5c35 0 70 5 109 5c26 0 48 -23 48 -49c0 -7 -1 -14 -4 -20c59 -2 116 -26 160 -69
c51 -49 81 -118 81 -188z" />
    <glyph glyph-name="germandbls" unicode="&#xdf;" horiz-adv-x="544" 
d="M516 255c0 56 -27 107 -69 143c15 27 24 57 24 88c0 101 -85 178 -184 178s-183 -77 -183 -178v-378c-15 0 -36 -1 -36 -22s17 -22 33 -22c19 0 37 4 58 4c25 0 50 -4 75 -4c23 0 29 19 29 40v382c0 13 12 20 24 20s24 -7 24 -20c0 -15 -20 -26 -33 -28v-159
c25 0 76 0 76 -39c0 -20 -13 -29 -30 -34c0 16 0 35 -22 35c-12 0 -22 -10 -22 -22c0 -9 2 -19 3 -29c2 -20 3 -41 3 -62s-1 -43 -3 -64c-1 -11 -3 -23 -3 -34c0 -13 9 -22 22 -22c19 0 22 15 22 39c99 13 192 80 192 188zM544 255c0 -52 -20 -100 -56 -138
c-8 -9 -18 -16 -26 -24c-7 -7 -14 -16 -21 -24c-25 -23 -55 -41 -86 -53c-13 -6 -29 -12 -44 -15c-5 -23 -25 -41 -49 -41s-44 17 -48 40c-8 -3 -17 -4 -25 -4c-22 0 -44 4 -66 4s-44 -5 -65 -5c-30 0 -58 19 -58 51c0 22 15 41 36 47v353c0 52 20 102 56 140
c8 8 18 15 26 23c10 10 17 21 28 30c38 34 89 53 141 53c115 0 212 -90 212 -206c0 -29 -6 -57 -18 -83c39 -40 63 -92 63 -148z" />
    <glyph glyph-name="agrave" unicode="&#xe0;" horiz-adv-x="786" 
d="M461 248h-90l46 89zM759 160c0 13 -11 22 -23 22c-7 0 -13 -3 -19 -6l-283 471c-6 9 -16 18 -27 18s-21 -9 -26 -18l-272 -471c-5 3 -11 5 -17 5c-13 0 -23 -10 -23 -22c0 -7 4 -13 10 -17l187 -113c4 -2 9 -4 14 -4c11 0 17 9 17 19c0 12 -8 22 -17 28l22 40h221l24 -40
c-10 -6 -18 -16 -18 -27c0 -10 7 -21 18 -21c5 0 9 2 13 5c59 40 119 75 188 113c6 3 11 11 11 18zM786 158c0 -11 -4 -21 -11 -30c-12 -14 -39 -41 -238 -161c-9 -6 -16 -10 -28 -10c-26 0 -49 25 -49 51c0 11 4 22 11 31l-4 5h-140c-1 -12 -7 -23 -16 -32l-38 -38
c-10 -10 -23 -16 -37 -16c-10 0 -19 3 -27 9c-50 35 -100 68 -182 111c-16 8 -27 22 -27 41c0 13 6 26 15 36c13 14 27 27 41 41c7 7 14 12 24 14l160 277c26 44 50 90 77 133c10 16 24 29 40 40c10 19 28 33 50 33s40 -14 51 -32l271 -451c3 0 5 1 8 1c28 0 49 -25 49 -53z
M518 761l-170 132l-39 -89l192 -83zM545 761c0 -14 -14 -39 -19 -51c-4 -10 -15 -16 -30 -16c-7 -17 -12 -40 -35 -40c-4 0 -7 0 -11 2l-192 83c-9 4 -17 13 -17 24c0 4 1 8 3 12l39 90c5 12 17 16 29 16c8 16 13 40 36 40c6 0 12 -2 17 -6l170 -132c7 -5 10 -14 10 -22z
" />
    <glyph glyph-name="aacute" unicode="&#xe1;" horiz-adv-x="786" 
d="M461 248h-90l46 89zM759 160c0 13 -11 22 -23 22c-7 0 -13 -3 -19 -6l-283 471c-6 9 -16 18 -27 18s-21 -9 -26 -18l-272 -471c-5 3 -11 5 -17 5c-13 0 -23 -10 -23 -22c0 -7 4 -13 10 -17l187 -113c4 -2 9 -4 14 -4c11 0 17 9 17 19c0 12 -8 22 -17 28l22 40h221l24 -40
c-10 -6 -18 -16 -18 -27c0 -10 7 -21 18 -21c5 0 9 2 13 5c59 40 119 75 188 113c6 3 11 11 11 18zM786 158c0 -11 -4 -21 -11 -30c-12 -14 -39 -41 -238 -161c-9 -6 -16 -10 -28 -10c-26 0 -49 25 -49 51c0 11 4 22 11 31l-4 5h-140c-1 -12 -7 -23 -16 -32l-38 -38
c-10 -10 -23 -16 -37 -16c-10 0 -19 3 -27 9c-50 35 -100 68 -182 111c-16 8 -27 22 -27 41c0 13 6 26 15 36c13 14 27 27 41 41c7 7 14 12 24 14l160 277c26 44 50 90 77 133c10 16 24 29 40 40c10 19 28 33 50 33s40 -14 51 -32l271 -451c3 0 5 1 8 1c28 0 49 -25 49 -53z
M547 796l-39 89l-171 -132l18 -40zM571 807c1 -4 2 -7 2 -11c0 -10 -6 -20 -16 -25l-24 -11v-5c0 -10 -6 -19 -16 -24l-192 -83c-4 -2 -8 -2 -11 -2c-11 0 -21 6 -25 16l-17 40c-2 4 -3 7 -3 11c0 9 4 17 11 22l30 23c1 6 4 12 10 17l171 132c5 4 11 6 17 6c2 0 4 0 7 -1
c8 -2 14 -8 18 -16z" />
    <glyph glyph-name="acircumflex" unicode="&#xe2;" horiz-adv-x="786" 
d="M461 248h-90l46 89zM759 160c0 13 -11 22 -23 22c-7 0 -13 -3 -19 -6l-283 471c-6 9 -16 18 -27 18s-21 -9 -26 -18l-272 -471c-5 3 -11 5 -17 5c-13 0 -23 -10 -23 -22c0 -7 4 -13 10 -17l187 -113c4 -2 9 -4 14 -4c11 0 17 9 17 19c0 12 -8 22 -17 28l22 40h221l24 -40
c-10 -6 -18 -16 -18 -27c0 -10 7 -21 18 -21c5 0 9 2 13 5c59 40 119 75 188 113c6 3 11 11 11 18zM786 158c0 -11 -4 -21 -11 -30c-12 -14 -39 -41 -238 -161c-9 -6 -16 -10 -28 -10c-26 0 -49 25 -49 51c0 11 4 22 11 31l-4 5h-140c-1 -12 -7 -23 -16 -32l-38 -38
c-10 -10 -23 -16 -37 -16c-10 0 -19 3 -27 9c-50 35 -100 68 -182 111c-16 8 -27 22 -27 41c0 13 6 26 15 36c13 14 27 27 41 41c7 7 14 12 24 14l160 277c26 44 50 90 77 133c10 16 24 29 40 40c10 19 28 33 50 33s40 -14 51 -32l271 -451c3 0 5 1 8 1c28 0 49 -25 49 -53z
M531 720l-118 119l-119 -119h48l71 45l73 -45h45zM558 720c0 -27 -23 -27 -43 -27c2 -4 3 -8 3 -12c0 -16 -11 -28 -27 -28h-46c-5 0 -10 1 -14 4l-58 36l-57 -36c-5 -3 -10 -4 -15 -4h-47c-15 0 -27 12 -27 27c0 8 3 15 8 20l158 158c5 5 12 8 19 8c8 0 15 -3 20 -8
l118 -118c5 -5 8 -12 8 -20z" />
    <glyph glyph-name="atilde" unicode="&#xe3;" horiz-adv-x="786" 
d="M461 248h-90l46 89zM759 160c0 13 -11 22 -23 22c-7 0 -13 -3 -19 -6l-283 471c-6 9 -16 18 -27 18s-21 -9 -26 -18l-272 -471c-5 3 -11 5 -17 5c-13 0 -23 -10 -23 -22c0 -7 4 -13 10 -17l187 -113c4 -2 9 -4 14 -4c11 0 17 9 17 19c0 12 -8 22 -17 28l22 40h221l24 -40
c-10 -6 -18 -16 -18 -27c0 -10 7 -21 18 -21c5 0 9 2 13 5c59 40 119 75 188 113c6 3 11 11 11 18zM786 158c0 -11 -4 -21 -11 -30c-12 -14 -39 -41 -238 -161c-9 -6 -16 -10 -28 -10c-26 0 -49 25 -49 51c0 11 4 22 11 31l-4 5h-140c-1 -12 -7 -23 -16 -32l-38 -38
c-10 -10 -23 -16 -37 -16c-10 0 -19 3 -27 9c-50 35 -100 68 -182 111c-16 8 -27 22 -27 41c0 13 6 26 15 36c13 14 27 27 41 41c7 7 14 12 24 14l160 277c26 44 50 90 77 133c10 16 24 29 40 40c10 19 28 33 50 33s40 -14 51 -32l271 -451c3 0 5 1 8 1c28 0 49 -25 49 -53z
M511 818h-43c0 -12 -3 -22 -16 -22c-23 0 -46 23 -75 23c-42 0 -56 -47 -56 -82h43c0 9 2 23 15 23c20 0 50 -22 80 -22c42 0 52 47 52 80zM538 818c0 -37 -12 -89 -52 -102c-11 -27 -37 -45 -66 -45c-26 0 -46 12 -70 18c-3 -12 -14 -20 -26 -20h-43c-15 0 -28 13 -28 28
c0 38 15 88 54 103c14 27 39 46 70 46c23 0 44 -10 64 -20c3 12 14 20 26 20h43c15 0 28 -13 28 -28z" />
    <glyph glyph-name="adieresis" unicode="&#xe4;" horiz-adv-x="786" 
d="M461 248h-90l46 89zM759 160c0 13 -11 22 -23 22c-7 0 -13 -3 -19 -6l-283 471c-6 9 -16 18 -27 18s-21 -9 -26 -18l-272 -471c-5 3 -11 5 -17 5c-13 0 -23 -10 -23 -22c0 -7 4 -13 10 -17l187 -113c4 -2 9 -4 14 -4c11 0 17 9 17 19c0 12 -8 22 -17 28l22 40h221l24 -40
c-10 -6 -18 -16 -18 -27c0 -10 7 -21 18 -21c5 0 9 2 13 5c59 40 119 75 188 113c6 3 11 11 11 18zM786 158c0 -11 -4 -21 -11 -30c-12 -14 -39 -41 -238 -161c-9 -6 -16 -10 -28 -10c-26 0 -49 25 -49 51c0 11 4 22 11 31l-4 5h-140c-1 -12 -7 -23 -16 -32l-38 -38
c-10 -10 -23 -16 -37 -16c-10 0 -19 3 -27 9c-50 35 -100 68 -182 111c-16 8 -27 22 -27 41c0 13 6 26 15 36c13 14 27 27 41 41c7 7 14 12 24 14l160 277c26 44 50 90 77 133c10 16 24 29 40 40c10 19 28 33 50 33s40 -14 51 -32l271 -451c3 0 5 1 8 1c28 0 49 -25 49 -53z
M409 776c0 23 -19 42 -42 42s-42 -19 -42 -42s19 -41 42 -41s42 18 42 41zM508 776c0 23 -19 42 -42 42s-41 -19 -41 -42s18 -41 41 -41s42 18 42 41zM535 776c0 -29 -17 -55 -44 -65c-10 -27 -36 -44 -65 -44c-19 0 -37 8 -50 21c-12 -13 -31 -21 -49 -21
c-38 0 -69 31 -69 69c0 28 17 55 44 65c10 26 37 44 65 44c19 0 37 -8 50 -21c12 13 31 21 49 21c38 0 69 -31 69 -69z" />
    <glyph glyph-name="aring" unicode="&#xe5;" horiz-adv-x="754" 
d="M486 760c0 -34 -21 -63 -51 -75l-5 -9c5 -5 8 -10 12 -15l271 -451c3 0 5 1 8 1c28 0 49 -25 49 -53c0 -11 -4 -21 -11 -30c-12 -14 -39 -41 -238 -161c-9 -6 -16 -10 -28 -10c-26 0 -49 25 -49 51c0 11 4 22 11 31l-4 5h-140c-1 -12 -7 -23 -16 -32l-38 -38
c-10 -10 -23 -16 -37 -16c-10 0 -19 3 -27 9c-50 35 -100 68 -182 111c-16 8 -27 22 -27 41c0 13 6 26 15 36c13 14 27 27 41 41c7 7 14 12 24 14l160 277c26 44 50 90 77 133c5 9 12 17 20 25c-24 13 -41 39 -41 70c0 34 21 62 50 74c12 30 42 51 76 51c44 0 80 -36 80 -80
zM466 760c0 33 -27 60 -60 60s-61 -26 -61 -60s28 -60 61 -60s60 27 60 60zM433 760c0 -15 -12 -27 -27 -27s-28 11 -28 27c0 15 13 28 28 28s27 -13 27 -28zM445 248h-90l46 89zM743 160c0 13 -11 22 -23 22c-7 0 -13 -3 -19 -6l-283 471c-6 9 -16 18 -27 18
s-21 -9 -26 -18l-272 -471c-5 3 -11 5 -17 5c-13 0 -23 -10 -23 -22c0 -7 4 -13 10 -17l187 -113c4 -2 9 -4 14 -4c11 0 17 9 17 19c0 12 -8 22 -17 28l22 40h221l24 -40c-10 -6 -18 -16 -18 -27c0 -10 7 -21 18 -21c5 0 9 2 13 5c59 40 119 75 188 113c6 3 11 11 11 18z
" />
    <glyph glyph-name="ae" unicode="&#xe6;" horiz-adv-x="814" 
d="M426 249h-47l47 67v-67zM788 67c-4 32 -6 64 -6 96s2 64 6 97c0 14 -11 21 -22 21s-22 -7 -22 -21v-15h-145v43l72 -3c0 -14 11 -22 22 -22s22 7 22 22c-4 24 -6 48 -6 71s2 45 6 67c0 14 -11 22 -22 22s-22 -7 -22 -25h-72v36h145v-12c0 -14 11 -22 22 -22s22 7 22 22
c-4 33 -6 66 -6 98c0 36 2 70 6 105c0 14 -11 22 -22 22s-22 -7 -22 -22v-13h-337c-18 0 -26 -1 -41 -26l-258 -427l-7 4c-4 2 -8 3 -12 3c-12 0 -22 -11 -22 -23c0 -7 3 -13 11 -18c62 -30 125 -68 187 -113c4 -3 8 -4 12 -4c12 0 21 11 21 23c0 6 -3 13 -10 18l-9 6l23 40
h103v-5c-28 0 -39 -13 -39 -25c0 -10 8 -19 22 -19h356c0 -15 11 -23 22 -23s22 8 22 22zM808 165c0 -32 6 -64 6 -100c0 -12 -5 -24 -14 -33l-41 -42c-8 -9 -21 -13 -34 -13c-17 0 -33 9 -42 23h-336c-14 0 -28 7 -37 17l-38 -38c-7 -7 -15 -12 -24 -14c-4 -1 -9 -2 -14 -2
c-9 0 -19 3 -26 8c-60 44 -121 81 -183 111c-16 8 -25 26 -25 44c0 9 2 18 7 26c11 18 35 36 50 52c6 6 15 9 23 11l222 367c11 19 22 30 37 36l3 4c17 29 32 39 65 39h311c7 24 27 35 47 35c25 0 49 -17 49 -46c0 -33 -5 -66 -5 -109c0 -31 5 -62 5 -99
c0 -13 -4 -23 -13 -32l-41 -41c-7 -7 -15 -11 -23 -13c0 -17 1 -35 3 -54c8 4 16 7 25 7c26 0 49 -22 49 -47c0 -30 -6 -60 -6 -97z" />
    <glyph glyph-name="ccedilla" unicode="&#xe7;" horiz-adv-x="679" 
d="M650 148c0 6 -3 11 -7 15c-23 23 -52 42 -80 68c-27 25 -51 54 -80 80c-4 4 -9 6 -15 6c-12 0 -22 -10 -22 -22c0 -7 3 -13 8 -17c-20 -17 -45 -26 -71 -26c-65 0 -116 54 -116 118s51 118 116 118c28 0 55 -11 76 -30c-6 -6 -13 -13 -13 -22c0 -12 10 -23 22 -23
c6 0 11 2 15 6c24 20 44 45 68 68c29 27 60 51 90 78c5 4 7 8 7 15c0 12 -11 23 -23 23c-7 0 -13 -5 -18 -10c-59 60 -139 95 -224 95c-175 0 -316 -144 -316 -318c0 -130 80 -248 201 -296l-64 -86l129 -49l10 116c13 -2 27 -3 40 -3c82 0 160 32 219 90
c7 -7 15 -17 26 -17c12 0 22 11 22 23zM679 150c0 -14 -7 -28 -17 -38l-41 -41c-9 -9 -20 -14 -32 -14c-9 0 -18 3 -26 8c-56 -47 -125 -75 -198 -80c-6 -74 2 -52 -52 -106c-5 -5 -12 -8 -19 -8c-4 0 -7 1 -10 2l-130 49c-11 4 -18 15 -18 26c0 17 39 60 50 75
c-113 60 -186 179 -186 307c0 82 29 161 82 224c13 15 27 26 40 40s25 28 40 40c62 53 140 82 221 82c84 0 165 -32 227 -88c5 2 11 3 16 3c27 0 50 -25 50 -52c0 -15 -7 -25 -18 -35c-33 -28 -66 -55 -97 -85c-34 -32 -65 -67 -98 -99c-9 -9 -20 -15 -33 -15
c-27 0 -52 23 -52 50c0 6 1 11 3 16c-12 6 -25 10 -39 10c-13 0 -25 -3 -37 -9c-7 -13 -10 -27 -10 -42c0 -49 39 -90 90 -91c2 4 5 8 47 50c10 10 23 15 37 15s25 -5 34 -14c27 -27 54 -55 82 -81c25 -22 51 -43 76 -64c11 -9 18 -20 18 -35z" />
    <glyph glyph-name="egrave" unicode="&#xe8;" horiz-adv-x="518" 
d="M490 62c-3 32 -5 64 -5 96s1 64 5 97c0 14 -11 21 -22 21s-22 -7 -22 -21v-14h-145v42h73c0 -16 11 -24 22 -24s22 7 22 22c-4 24 -6 48 -6 73c0 22 2 43 6 65c0 14 -11 21 -22 21s-22 -7 -22 -24h-73v36h145c0 -23 14 -35 26 -35c10 0 18 7 18 23c-4 32 -6 65 -6 98
c0 35 2 70 6 105c0 14 -11 21 -22 21s-22 -7 -22 -21v-14h-347c-15 0 -31 -1 -31 -22c0 -18 13 -22 39 -22v-478c-15 0 -39 -1 -39 -22c0 -12 10 -22 22 -22h356c0 -15 11 -23 22 -23s22 8 22 22zM513 157c0 -31 5 -62 5 -97c0 -14 -6 -25 -15 -34l-38 -38
c-10 -10 -23 -15 -37 -15c-16 0 -31 7 -41 23h-337c-32 0 -49 25 -49 50c0 21 12 41 38 47v426c-26 5 -39 24 -39 44c0 13 5 26 15 36l41 41c10 10 26 17 47 17h318c6 20 25 35 47 35c26 0 50 -21 50 -47c0 -33 -6 -65 -6 -105c0 -32 6 -65 6 -102c0 -13 -5 -24 -13 -32
l-40 -41c-7 -6 -16 -11 -25 -13c0 -17 1 -35 3 -55c8 5 16 7 25 7c25 0 50 -19 50 -47c0 -31 -5 -62 -5 -100zM384 761l-170 132l-39 -89l192 -83zM411 761c0 -14 -14 -39 -19 -51c-4 -10 -15 -16 -30 -16c-7 -17 -12 -40 -35 -40c-4 0 -7 0 -11 2l-192 83
c-9 4 -17 13 -17 24c0 4 1 8 3 12l39 90c5 12 17 16 29 16c8 16 13 40 36 40c6 0 12 -2 17 -6l170 -132c7 -5 10 -14 10 -22z" />
    <glyph glyph-name="eacute" unicode="&#xe9;" horiz-adv-x="518" 
d="M490 62c-3 32 -5 64 -5 96s1 64 5 97c0 14 -11 21 -22 21s-22 -7 -22 -21v-14h-145v42h73c0 -16 11 -24 22 -24s22 7 22 22c-4 24 -6 48 -6 73c0 22 2 43 6 65c0 14 -11 21 -22 21s-22 -7 -22 -24h-73v36h145c0 -23 14 -35 26 -35c10 0 18 7 18 23c-4 32 -6 65 -6 98
c0 35 2 70 6 105c0 14 -11 21 -22 21s-22 -7 -22 -21v-14h-347c-15 0 -31 -1 -31 -22c0 -18 13 -22 39 -22v-478c-15 0 -39 -1 -39 -22c0 -12 10 -22 22 -22h356c0 -15 11 -23 22 -23s22 8 22 22zM513 157c0 -31 5 -62 5 -97c0 -14 -6 -25 -15 -34l-38 -38
c-10 -10 -23 -15 -37 -15c-16 0 -31 7 -41 23h-337c-32 0 -49 25 -49 50c0 21 12 41 38 47v426c-26 5 -39 24 -39 44c0 13 5 26 15 36l41 41c10 10 26 17 47 17h318c6 20 25 35 47 35c26 0 50 -21 50 -47c0 -33 -6 -65 -6 -105c0 -32 6 -65 6 -102c0 -13 -5 -24 -13 -32
l-40 -41c-7 -6 -16 -11 -25 -13c0 -17 1 -35 3 -55c8 5 16 7 25 7c25 0 50 -19 50 -47c0 -31 -5 -62 -5 -100zM428 801l-39 89l-171 -132l18 -40zM452 812c1 -4 2 -7 2 -11c0 -10 -6 -20 -16 -25l-24 -11v-5c0 -10 -6 -19 -16 -24l-192 -83c-4 -2 -8 -2 -11 -2
c-11 0 -21 6 -25 16l-17 40c-2 4 -3 7 -3 11c0 9 4 17 11 22l30 23c1 6 4 12 10 17l171 132c5 4 11 6 17 6c2 0 4 0 7 -1c8 -2 14 -8 18 -16z" />
    <glyph glyph-name="ecircumflex" unicode="&#xea;" horiz-adv-x="518" 
d="M490 62c-3 32 -5 64 -5 96s1 64 5 97c0 14 -11 21 -22 21s-22 -7 -22 -21v-14h-145v42h73c0 -16 11 -24 22 -24s22 7 22 22c-4 24 -6 48 -6 73c0 22 2 43 6 65c0 14 -11 21 -22 21s-22 -7 -22 -24h-73v36h145c0 -23 14 -35 26 -35c10 0 18 7 18 23c-4 32 -6 65 -6 98
c0 35 2 70 6 105c0 14 -11 21 -22 21s-22 -7 -22 -21v-14h-347c-15 0 -31 -1 -31 -22c0 -18 13 -22 39 -22v-478c-15 0 -39 -1 -39 -22c0 -12 10 -22 22 -22h356c0 -15 11 -23 22 -23s22 8 22 22zM513 157c0 -31 5 -62 5 -97c0 -14 -6 -25 -15 -34l-38 -38
c-10 -10 -23 -15 -37 -15c-16 0 -31 7 -41 23h-337c-32 0 -49 25 -49 50c0 21 12 41 38 47v426c-26 5 -39 24 -39 44c0 13 5 26 15 36l41 41c10 10 26 17 47 17h318c6 20 25 35 47 35c26 0 50 -21 50 -47c0 -33 -6 -65 -6 -105c0 -32 6 -65 6 -102c0 -13 -5 -24 -13 -32
l-40 -41c-7 -6 -16 -11 -25 -13c0 -17 1 -35 3 -55c8 5 16 7 25 7c25 0 50 -19 50 -47c0 -31 -5 -62 -5 -100zM397 720l-118 119l-119 -119h48l71 45l73 -45h45zM424 720c0 -27 -23 -27 -43 -27c2 -4 3 -8 3 -12c0 -16 -11 -28 -27 -28h-46c-5 0 -10 1 -14 4l-58 36l-57 -36
c-5 -3 -10 -4 -15 -4h-47c-15 0 -27 12 -27 27c0 8 3 15 8 20l158 158c5 5 12 8 19 8c8 0 15 -3 20 -8l118 -118c5 -5 8 -12 8 -20z" />
    <glyph glyph-name="edieresis" unicode="&#xeb;" horiz-adv-x="518" 
d="M490 62c-3 32 -5 64 -5 96s1 64 5 97c0 14 -11 21 -22 21s-22 -7 -22 -21v-14h-145v42h73c0 -16 11 -24 22 -24s22 7 22 22c-4 24 -6 48 -6 73c0 22 2 43 6 65c0 14 -11 21 -22 21s-22 -7 -22 -24h-73v36h145c0 -23 14 -35 26 -35c10 0 18 7 18 23c-4 32 -6 65 -6 98
c0 35 2 70 6 105c0 14 -11 21 -22 21s-22 -7 -22 -21v-14h-347c-15 0 -31 -1 -31 -22c0 -18 13 -22 39 -22v-478c-15 0 -39 -1 -39 -22c0 -12 10 -22 22 -22h356c0 -15 11 -23 22 -23s22 8 22 22zM513 157c0 -31 5 -62 5 -97c0 -14 -6 -25 -15 -34l-38 -38
c-10 -10 -23 -15 -37 -15c-16 0 -31 7 -41 23h-337c-32 0 -49 25 -49 50c0 21 12 41 38 47v426c-26 5 -39 24 -39 44c0 13 5 26 15 36l41 41c10 10 26 17 47 17h318c6 20 25 35 47 35c26 0 50 -21 50 -47c0 -33 -6 -65 -6 -105c0 -32 6 -65 6 -102c0 -13 -5 -24 -13 -32
l-40 -41c-7 -6 -16 -11 -25 -13c0 -17 1 -35 3 -55c8 5 16 7 25 7c25 0 50 -19 50 -47c0 -31 -5 -62 -5 -100zM271 764c0 23 -19 42 -42 42s-42 -19 -42 -42s19 -41 42 -41s42 18 42 41zM370 764c0 23 -19 42 -42 42s-41 -19 -41 -42s18 -41 41 -41s42 18 42 41zM397 764
c0 -29 -17 -55 -44 -65c-10 -27 -36 -44 -65 -44c-19 0 -37 8 -50 21c-12 -13 -31 -21 -49 -21c-38 0 -69 31 -69 69c0 28 17 55 44 65c10 26 37 44 65 44c19 0 37 -8 50 -21c12 13 31 21 49 21c38 0 69 -31 69 -69z" />
    <glyph glyph-name="igrave" unicode="&#xec;" horiz-adv-x="352" 
d="M324 86c0 18 -15 22 -29 22v477c14 0 29 4 29 22c0 12 -10 22 -23 22c-35 -4 -70 -6 -106 -6c-35 0 -70 2 -106 6c-15 0 -22 -9 -22 -19c0 -12 10 -25 28 -25v-477c-18 0 -28 -13 -28 -25c0 -10 7 -19 22 -19c35 3 71 5 106 5c36 0 71 -1 106 -5c13 0 23 10 23 22z
M322 131c17 -9 30 -28 30 -47c0 -11 -5 -23 -15 -33l-41 -40c-9 -8 -20 -14 -33 -14c-32 0 -64 5 -106 5c-35 0 -70 -5 -110 -5c-27 0 -47 23 -47 49c0 21 11 37 28 45v431c-18 8 -28 26 -28 45c0 14 5 27 14 36l41 41c8 8 19 12 31 12c34 0 69 -6 111 -6c34 0 67 6 106 6
c26 0 48 -24 48 -49c0 -20 -11 -37 -29 -45v-431zM301 761l-170 132l-39 -89l192 -83zM328 761c0 -14 -14 -39 -19 -51c-4 -10 -15 -16 -30 -16c-7 -17 -12 -40 -35 -40c-4 0 -7 0 -11 2l-192 83c-9 4 -17 13 -17 24c0 4 1 8 3 12l39 90c5 12 17 16 29 16c8 16 13 40 36 40
c6 0 12 -2 17 -6l170 -132c7 -5 10 -14 10 -22z" />
    <glyph glyph-name="iacute" unicode="&#xed;" horiz-adv-x="352" 
d="M324 86c0 18 -15 22 -29 22v477c14 0 29 4 29 22c0 12 -10 22 -23 22c-35 -4 -70 -6 -106 -6c-35 0 -70 2 -106 6c-15 0 -22 -9 -22 -19c0 -12 10 -25 28 -25v-477c-18 0 -28 -13 -28 -25c0 -10 7 -19 22 -19c35 3 71 5 106 5c36 0 71 -1 106 -5c13 0 23 10 23 22z
M322 131c17 -9 30 -28 30 -47c0 -11 -5 -23 -15 -33l-41 -40c-9 -8 -20 -14 -33 -14c-32 0 -64 5 -106 5c-35 0 -70 -5 -110 -5c-27 0 -47 23 -47 49c0 21 11 37 28 45v431c-18 8 -28 26 -28 45c0 14 5 27 14 36l41 41c8 8 19 12 31 12c34 0 69 -6 111 -6c34 0 67 6 106 6
c26 0 48 -24 48 -49c0 -20 -11 -37 -29 -45v-431zM334 801l-39 89l-171 -132l18 -40zM358 812c1 -4 2 -7 2 -11c0 -10 -6 -20 -16 -25l-24 -11v-5c0 -10 -6 -19 -16 -24l-192 -83c-4 -2 -8 -2 -11 -2c-11 0 -21 6 -25 16l-17 40c-2 4 -3 7 -3 11c0 9 4 17 11 22l30 23
c1 6 4 12 10 17l171 132c5 4 11 6 17 6c2 0 4 0 7 -1c8 -2 14 -8 18 -16z" />
    <glyph glyph-name="icircumflex" unicode="&#xee;" horiz-adv-x="352" 
d="M324 86c0 18 -15 22 -29 22v477c14 0 29 4 29 22c0 12 -10 22 -23 22c-35 -4 -70 -6 -106 -6c-35 0 -70 2 -106 6c-15 0 -22 -9 -22 -19c0 -12 10 -25 28 -25v-477c-18 0 -28 -13 -28 -25c0 -10 7 -19 22 -19c35 3 71 5 106 5c36 0 71 -1 106 -5c13 0 23 10 23 22z
M322 131c17 -9 30 -28 30 -47c0 -11 -5 -23 -15 -33l-41 -40c-9 -8 -20 -14 -33 -14c-32 0 -64 5 -106 5c-35 0 -70 -5 -110 -5c-27 0 -47 23 -47 49c0 21 11 37 28 45v431c-18 8 -28 26 -28 45c0 14 5 27 14 36l41 41c8 8 19 12 31 12c34 0 69 -6 111 -6c34 0 67 6 106 6
c26 0 48 -24 48 -49c0 -20 -11 -37 -29 -45v-431zM314 720l-118 119l-119 -119h48l71 45l73 -45h45zM341 720c0 -27 -23 -27 -43 -27c2 -4 3 -8 3 -12c0 -16 -11 -28 -27 -28h-46c-5 0 -10 1 -14 4l-58 36l-57 -36c-5 -3 -10 -4 -15 -4h-47c-15 0 -27 12 -27 27
c0 8 3 15 8 20l158 158c5 5 12 8 19 8c8 0 15 -3 20 -8l118 -118c5 -5 8 -12 8 -20z" />
    <glyph glyph-name="idieresis" unicode="&#xef;" horiz-adv-x="352" 
d="M324 86c0 18 -15 22 -29 22v477c14 0 29 4 29 22c0 12 -10 22 -23 22c-35 -4 -70 -6 -106 -6c-35 0 -70 2 -106 6c-15 0 -22 -9 -22 -19c0 -12 10 -25 28 -25v-477c-18 0 -28 -13 -28 -25c0 -10 7 -19 22 -19c35 3 71 5 106 5c36 0 71 -1 106 -5c13 0 23 10 23 22z
M322 131c17 -9 30 -28 30 -47c0 -11 -5 -23 -15 -33l-41 -40c-9 -8 -20 -14 -33 -14c-32 0 -64 5 -106 5c-35 0 -70 -5 -110 -5c-27 0 -47 23 -47 49c0 21 11 37 28 45v431c-18 8 -28 26 -28 45c0 14 5 27 14 36l41 41c8 8 19 12 31 12c34 0 69 -6 111 -6c34 0 67 6 106 6
c26 0 48 -24 48 -49c0 -20 -11 -37 -29 -45v-431zM188 764c0 23 -19 42 -42 42s-42 -19 -42 -42s19 -41 42 -41s42 18 42 41zM287 764c0 23 -19 42 -42 42s-41 -19 -41 -42s18 -41 41 -41s42 18 42 41zM314 764c0 -29 -17 -55 -44 -65c-10 -27 -36 -44 -65 -44
c-19 0 -37 8 -50 21c-12 -13 -31 -21 -49 -21c-38 0 -69 31 -69 69c0 28 17 55 44 65c10 26 37 44 65 44c19 0 37 -8 50 -21c12 13 31 21 49 21c38 0 69 -31 69 -69z" />
    <glyph glyph-name="eth" unicode="&#xf0;" horiz-adv-x="698" 
d="M471 348c0 -66 -61 -84 -116 -84h-25v62h46c13 0 22 9 22 22s-9 22 -22 22h-46v61h25c55 0 116 -16 116 -83zM670 348c0 181 -145 283 -315 283h-236c-13 0 -22 -9 -22 -22c0 -21 17 -22 33 -22v-216h-26c-19 0 -37 -3 -37 -23s18 -23 37 -23c9 0 19 1 26 1v-217
c-16 0 -33 -1 -33 -22c0 -12 9 -23 22 -23h236c170 0 315 104 315 284zM698 348c0 -192 -177 -352 -383 -352h-236c-27 0 -50 24 -50 51c0 21 14 40 34 46v165c-30 0 -63 12 -63 50c0 12 3 24 12 33l40 40c3 3 7 6 11 8v134c-20 7 -34 25 -34 46c0 13 6 26 15 35l40 40
c9 9 22 15 35 15h236c186 0 343 -114 343 -311z" />
    <glyph glyph-name="ntilde" unicode="&#xf1;" horiz-adv-x="727" 
d="M699 614c0 12 -12 17 -23 17c-13 0 -27 -2 -41 -3c-28 -2 -57 -3 -86 -3s-58 1 -86 3c-14 1 -28 3 -42 3c-9 0 -21 -3 -21 -14c0 -23 38 -30 54 -30v-181l-245 225h-115c-11 0 -22 -7 -22 -19c0 -19 23 -25 42 -25v-480c-16 0 -46 -7 -46 -28c0 -11 9 -16 18 -16
c51 1 99 5 148 5c36 0 72 -5 110 -5c9 0 22 4 22 15c0 22 -36 29 -52 29v182l243 -224h97v522c16 0 45 6 45 27zM727 608c0 -29 -26 -45 -45 -64v-479c0 -7 -4 -14 -9 -19l-40 -39c-6 -5 -11 -10 -19 -10h-97c-7 0 -13 3 -18 8l-110 100c3 -7 4 -14 4 -21
c0 -12 -4 -25 -13 -34l-39 -39c-9 -9 -20 -15 -33 -15c-39 0 -77 6 -122 6c-46 0 -93 -6 -141 -6c-27 0 -45 23 -45 49s16 44 41 49c1 5 3 10 5 15v412c-25 5 -42 25 -42 50c0 13 5 25 14 34l41 40c10 9 22 14 35 14h115c7 0 13 -3 18 -7l109 -100c-2 6 -3 12 -3 19
c0 13 5 26 14 35l40 39c8 8 19 13 31 13c41 0 82 -5 132 -5c43 0 86 5 131 5c27 0 46 -23 46 -50zM486 792h-43c0 -12 -3 -22 -16 -22c-23 0 -46 23 -75 23c-42 0 -56 -47 -56 -82h43c0 9 2 23 15 23c20 0 50 -22 80 -22c42 0 52 47 52 80zM513 792c0 -37 -12 -89 -52 -102
c-11 -27 -37 -45 -66 -45c-26 0 -46 12 -70 18c-3 -12 -14 -20 -26 -20h-43c-15 0 -28 13 -28 28c0 38 15 88 54 103c14 27 39 46 70 46c23 0 44 -10 64 -20c3 12 14 20 26 20h43c15 0 28 -13 28 -28z" />
    <glyph glyph-name="ograve" unicode="&#xf2;" 
d="M424 310c0 47 -37 84 -84 84c-13 0 -25 -3 -37 -8c-5 -11 -8 -24 -8 -36c0 -47 38 -85 85 -85c12 0 25 3 36 8c5 12 8 24 8 37zM492 350c0 -62 -50 -113 -112 -113s-113 51 -113 113s51 112 113 112s112 -50 112 -112zM692 350c0 172 -140 312 -312 312
s-313 -140 -313 -312c0 -173 141 -312 313 -312s312 140 312 312zM719 350c0 -92 -36 -176 -100 -241l-40 -40c-65 -63 -148 -99 -239 -99c-187 0 -340 153 -340 340c0 90 33 174 97 238l37 36c68 65 151 105 246 105c187 0 339 -152 339 -339zM479 777l-170 132l-39 -89
l192 -83zM506 777c0 -14 -14 -39 -19 -51c-4 -10 -15 -16 -30 -16c-7 -17 -12 -40 -35 -40c-4 0 -7 0 -11 2l-192 83c-9 4 -17 13 -17 24c0 4 1 8 3 12l39 90c5 12 17 16 29 16c8 16 13 40 36 40c6 0 12 -2 17 -6l170 -132c7 -5 10 -14 10 -22z" />
    <glyph glyph-name="oacute" unicode="&#xf3;" 
d="M424 310c0 47 -37 84 -84 84c-13 0 -25 -3 -37 -8c-5 -11 -8 -24 -8 -36c0 -47 38 -85 85 -85c12 0 25 3 36 8c5 12 8 24 8 37zM492 350c0 -62 -50 -113 -112 -113s-113 51 -113 113s51 112 113 112s112 -50 112 -112zM692 350c0 172 -140 312 -312 312
s-313 -140 -313 -312c0 -173 141 -312 313 -312s312 140 312 312zM719 350c0 -92 -36 -176 -100 -241l-40 -40c-65 -63 -148 -99 -239 -99c-187 0 -340 153 -340 340c0 90 33 174 97 238l37 36c68 65 151 105 246 105c187 0 339 -152 339 -339zM513 814l-39 89l-171 -132
l18 -40zM537 825c1 -4 2 -7 2 -11c0 -10 -6 -20 -16 -25l-24 -11v-5c0 -10 -6 -19 -16 -24l-192 -83c-4 -2 -8 -2 -11 -2c-11 0 -21 6 -25 16l-17 40c-2 4 -3 7 -3 11c0 9 4 17 11 22l30 23c1 6 4 12 10 17l171 132c5 4 11 6 17 6c2 0 4 0 7 -1c8 -2 14 -8 18 -16z" />
    <glyph glyph-name="ocircumflex" unicode="&#xf4;" 
d="M424 310c0 47 -37 84 -84 84c-13 0 -25 -3 -37 -8c-5 -11 -8 -24 -8 -36c0 -47 38 -85 85 -85c12 0 25 3 36 8c5 12 8 24 8 37zM492 350c0 -62 -50 -113 -112 -113s-113 51 -113 113s51 112 113 112s112 -50 112 -112zM692 350c0 172 -140 312 -312 312
s-313 -140 -313 -312c0 -173 141 -312 313 -312s312 140 312 312zM719 350c0 -92 -36 -176 -100 -241l-40 -40c-65 -63 -148 -99 -239 -99c-187 0 -340 153 -340 340c0 90 33 174 97 238l37 36c68 65 151 105 246 105c187 0 339 -152 339 -339zM500 736l-118 119l-119 -119
h48l71 45l73 -45h45zM527 736c0 -27 -23 -27 -43 -27c2 -4 3 -8 3 -12c0 -16 -11 -28 -27 -28h-46c-5 0 -10 1 -14 4l-58 36l-57 -36c-5 -3 -10 -4 -15 -4h-47c-15 0 -27 12 -27 27c0 8 3 15 8 20l158 158c5 5 12 8 19 8c8 0 15 -3 20 -8l118 -118c5 -5 8 -12 8 -20z" />
    <glyph glyph-name="otilde" unicode="&#xf5;" 
d="M424 310c0 47 -37 84 -84 84c-13 0 -25 -3 -37 -8c-5 -11 -8 -24 -8 -36c0 -47 38 -85 85 -85c12 0 25 3 36 8c5 12 8 24 8 37zM492 350c0 -62 -50 -113 -112 -113s-113 51 -113 113s51 112 113 112s112 -50 112 -112zM692 350c0 172 -140 312 -312 312
s-313 -140 -313 -312c0 -173 141 -312 313 -312s312 140 312 312zM719 350c0 -92 -36 -176 -100 -241l-40 -40c-65 -63 -148 -99 -239 -99c-187 0 -340 153 -340 340c0 90 33 174 97 238l37 36c68 65 151 105 246 105c187 0 339 -152 339 -339zM478 815h-43
c0 -12 -3 -22 -16 -22c-23 0 -46 23 -75 23c-42 0 -56 -47 -56 -82h43c0 9 2 23 15 23c20 0 50 -22 80 -22c42 0 52 47 52 80zM505 815c0 -37 -12 -89 -52 -102c-11 -27 -37 -45 -66 -45c-26 0 -46 12 -70 18c-3 -12 -14 -20 -26 -20h-43c-15 0 -28 13 -28 28
c0 38 15 88 54 103c14 27 39 46 70 46c23 0 44 -10 64 -20c3 12 14 20 26 20h43c15 0 28 -13 28 -28z" />
    <glyph glyph-name="odieresis" unicode="&#xf6;" 
d="M424 310c0 47 -37 84 -84 84c-13 0 -25 -3 -37 -8c-5 -11 -8 -24 -8 -36c0 -47 38 -85 85 -85c12 0 25 3 36 8c5 12 8 24 8 37zM492 350c0 -62 -50 -113 -112 -113s-113 51 -113 113s51 112 113 112s112 -50 112 -112zM692 350c0 172 -140 312 -312 312
s-313 -140 -313 -312c0 -173 141 -312 313 -312s312 140 312 312zM719 350c0 -92 -36 -176 -100 -241l-40 -40c-65 -63 -148 -99 -239 -99c-187 0 -340 153 -340 340c0 90 33 174 97 238l37 36c68 65 151 105 246 105c187 0 339 -152 339 -339zM375 781c0 23 -19 42 -42 42
s-42 -19 -42 -42s19 -41 42 -41s42 18 42 41zM474 781c0 23 -19 42 -42 42s-41 -19 -41 -42s18 -41 41 -41s42 18 42 41zM501 781c0 -29 -17 -55 -44 -65c-10 -27 -36 -44 -65 -44c-19 0 -37 8 -50 21c-12 -13 -31 -21 -49 -21c-38 0 -69 31 -69 69c0 28 17 55 44 65
c10 26 37 44 65 44c19 0 37 -8 50 -21c12 13 31 21 49 21c38 0 69 -31 69 -69z" />
    <glyph glyph-name="divide" unicode="&#xf7;" horiz-adv-x="609" 
d="M414 528c0 43 -37 80 -80 80c-44 0 -80 -34 -80 -80c0 -44 35 -79 79 -79c45 0 81 38 81 79zM104 296h460c10 0 18 9 18 19v83c0 11 -8 19 -18 19h-460c-10 0 -18 -8 -18 -19v-83c0 -10 8 -19 18 -19zM414 185c0 44 -37 78 -80 78c-44 0 -80 -32 -80 -78
c0 -43 35 -79 79 -79c45 0 81 37 81 79zM168 466c0 30 13 55 30 74l44 48c25 27 53 47 92 47c58 0 107 -49 107 -107c0 -33 -17 -64 -44 -84h167c25 0 45 -19 45 -46v-83c0 -20 -16 -34 -29 -47l-49 -49c-8 -8 -18 -9 -29 -9h-64c2 -8 3 -17 3 -25c0 -38 -28 -68 -54 -94
l-42 -40c-19 -19 -45 -31 -74 -31c-57 0 -103 47 -103 103c0 29 11 54 29 72l15 15h-170c-23 0 -42 20 -42 43v83c0 12 4 27 12 35l51 51c12 12 23 22 41 22h66c-2 7 -2 14 -2 22z" />
    <glyph glyph-name="oslash" unicode="&#xf8;" 
d="M443 444l-158 -158c-12 18 -19 40 -19 62c0 61 52 116 114 116c23 0 44 -8 63 -20zM495 347c0 -62 -56 -110 -116 -110c-22 0 -44 7 -63 18l158 158c13 -20 21 -42 21 -66zM692 350c0 75 -27 147 -76 204c10 10 40 35 40 50c0 11 -10 22 -22 22c-15 0 -39 -30 -49 -40
c-57 48 -129 75 -204 75c-176 0 -314 -134 -314 -311c0 -75 28 -148 77 -205c-10 -10 -40 -34 -40 -49c0 -12 10 -22 22 -22c14 0 39 30 49 40c57 -49 128 -76 203 -76c176 0 314 136 314 312zM719 350c0 -79 -28 -157 -78 -218c-13 -15 -28 -28 -42 -42
c-13 -13 -24 -26 -37 -38c-62 -53 -141 -82 -223 -82c-72 0 -144 23 -202 67c-13 -15 -29 -31 -50 -31c-27 0 -51 24 -51 51c0 21 16 37 31 50c-43 59 -67 130 -67 203c0 79 28 156 79 217c13 15 28 28 42 42c13 13 23 26 37 38c61 53 140 83 221 83c73 0 144 -24 203 -68
c14 15 30 32 52 32c24 0 51 -23 51 -48c0 -21 -18 -40 -32 -54c43 -59 66 -129 66 -202z" />
    <glyph glyph-name="ugrave" unicode="&#xf9;" horiz-adv-x="736" 
d="M688 627c-38 -3 -76 -5 -113 -5c-38 0 -76 1 -114 5c-14 0 -22 -10 -22 -20c0 -11 10 -23 35 -23v-271c0 -36 -39 -67 -87 -67c-37 0 -86 24 -86 67v271c26 0 37 12 37 24c0 10 -9 19 -23 19c-37 -3 -75 -5 -113 -5c-37 0 -75 1 -113 5c-13 0 -22 -10 -22 -20
c0 -11 10 -23 34 -23v-271c0 -147 129 -266 286 -266c148 0 287 111 287 266v271c25 0 36 12 36 23c0 10 -9 20 -22 20zM702 313c0 -89 -42 -165 -105 -218c-59 -71 -152 -115 -250 -115c-173 0 -314 131 -314 293v246c-20 6 -33 25 -33 47c0 12 4 24 13 33l42 42
c9 9 20 14 33 14c36 0 72 -5 116 -5c36 0 72 5 113 5c30 0 47 -25 47 -50c0 -20 -11 -41 -36 -47v-245c0 -26 39 -39 59 -39c7 0 14 1 20 2v242c-21 7 -36 26 -36 48c0 31 36 56 56 76c9 8 21 13 34 13c51 0 99 -3 148 -3c25 0 51 3 81 3c29 0 46 -25 46 -50
c0 -20 -10 -40 -34 -47v-245zM470 754l-170 132l-39 -89l192 -83zM497 754c0 -14 -14 -39 -19 -51c-4 -10 -15 -16 -30 -16c-7 -17 -12 -40 -35 -40c-4 0 -7 0 -11 2l-192 83c-9 4 -17 13 -17 24c0 4 1 8 3 12l39 90c5 12 17 16 29 16c8 16 13 40 36 40c6 0 12 -2 17 -6
l170 -132c7 -5 10 -14 10 -22z" />
    <glyph glyph-name="uacute" unicode="&#xfa;" horiz-adv-x="736" 
d="M688 627c-38 -3 -76 -5 -113 -5c-38 0 -76 1 -114 5c-14 0 -22 -10 -22 -20c0 -11 10 -23 35 -23v-271c0 -36 -39 -67 -87 -67c-37 0 -86 24 -86 67v271c26 0 37 12 37 24c0 10 -9 19 -23 19c-37 -3 -75 -5 -113 -5c-37 0 -75 1 -113 5c-13 0 -22 -10 -22 -20
c0 -11 10 -23 34 -23v-271c0 -147 129 -266 286 -266c148 0 287 111 287 266v271c25 0 36 12 36 23c0 10 -9 20 -22 20zM702 313c0 -89 -42 -165 -105 -218c-59 -71 -152 -115 -250 -115c-173 0 -314 131 -314 293v246c-20 6 -33 25 -33 47c0 12 4 24 13 33l42 42
c9 9 20 14 33 14c36 0 72 -5 116 -5c36 0 72 5 113 5c30 0 47 -25 47 -50c0 -20 -11 -41 -36 -47v-245c0 -26 39 -39 59 -39c7 0 14 1 20 2v242c-21 7 -36 26 -36 48c0 31 36 56 56 76c9 8 21 13 34 13c51 0 99 -3 148 -3c25 0 51 3 81 3c29 0 46 -25 46 -50
c0 -20 -10 -40 -34 -47v-245zM525 796l-39 89l-171 -132l18 -40zM549 807c1 -4 2 -7 2 -11c0 -10 -6 -20 -16 -25l-24 -11v-5c0 -10 -6 -19 -16 -24l-192 -83c-4 -2 -8 -2 -11 -2c-11 0 -21 6 -25 16l-17 40c-2 4 -3 7 -3 11c0 9 4 17 11 22l30 23c1 6 4 12 10 17l171 132
c5 4 11 6 17 6c2 0 4 0 7 -1c8 -2 14 -8 18 -16z" />
    <glyph glyph-name="ucircumflex" unicode="&#xfb;" horiz-adv-x="736" 
d="M688 627c-38 -3 -76 -5 -113 -5c-38 0 -76 1 -114 5c-14 0 -22 -10 -22 -20c0 -11 10 -23 35 -23v-271c0 -36 -39 -67 -87 -67c-37 0 -86 24 -86 67v271c26 0 37 12 37 24c0 10 -9 19 -23 19c-37 -3 -75 -5 -113 -5c-37 0 -75 1 -113 5c-13 0 -22 -10 -22 -20
c0 -11 10 -23 34 -23v-271c0 -147 129 -266 286 -266c148 0 287 111 287 266v271c25 0 36 12 36 23c0 10 -9 20 -22 20zM702 313c0 -89 -42 -165 -105 -218c-59 -71 -152 -115 -250 -115c-173 0 -314 131 -314 293v246c-20 6 -33 25 -33 47c0 12 4 24 13 33l42 42
c9 9 20 14 33 14c36 0 72 -5 116 -5c36 0 72 5 113 5c30 0 47 -25 47 -50c0 -20 -11 -41 -36 -47v-245c0 -26 39 -39 59 -39c7 0 14 1 20 2v242c-21 7 -36 26 -36 48c0 31 36 56 56 76c9 8 21 13 34 13c51 0 99 -3 148 -3c25 0 51 3 81 3c29 0 46 -25 46 -50
c0 -20 -10 -40 -34 -47v-245zM506 720l-118 119l-119 -119h48l71 45l73 -45h45zM533 720c0 -27 -23 -27 -43 -27c2 -4 3 -8 3 -12c0 -16 -11 -28 -27 -28h-46c-5 0 -10 1 -14 4l-58 36l-57 -36c-5 -3 -10 -4 -15 -4h-47c-15 0 -27 12 -27 27c0 8 3 15 8 20l158 158
c5 5 12 8 19 8c8 0 15 -3 20 -8l118 -118c5 -5 8 -12 8 -20z" />
    <glyph glyph-name="udieresis" unicode="&#xfc;" horiz-adv-x="736" 
d="M688 627c-38 -3 -76 -5 -113 -5c-38 0 -76 1 -114 5c-14 0 -22 -10 -22 -20c0 -11 10 -23 35 -23v-271c0 -36 -39 -67 -87 -67c-37 0 -86 24 -86 67v271c26 0 37 12 37 24c0 10 -9 19 -23 19c-37 -3 -75 -5 -113 -5c-37 0 -75 1 -113 5c-13 0 -22 -10 -22 -20
c0 -11 10 -23 34 -23v-271c0 -147 129 -266 286 -266c148 0 287 111 287 266v271c25 0 36 12 36 23c0 10 -9 20 -22 20zM702 313c0 -89 -42 -165 -105 -218c-59 -71 -152 -115 -250 -115c-173 0 -314 131 -314 293v246c-20 6 -33 25 -33 47c0 12 4 24 13 33l42 42
c9 9 20 14 33 14c36 0 72 -5 116 -5c36 0 72 5 113 5c30 0 47 -25 47 -50c0 -20 -11 -41 -36 -47v-245c0 -26 39 -39 59 -39c7 0 14 1 20 2v242c-21 7 -36 26 -36 48c0 31 36 56 56 76c9 8 21 13 34 13c51 0 99 -3 148 -3c25 0 51 3 81 3c29 0 46 -25 46 -50
c0 -20 -10 -40 -34 -47v-245zM380 764c0 23 -19 42 -42 42s-42 -19 -42 -42s19 -41 42 -41s42 18 42 41zM479 764c0 23 -19 42 -42 42s-41 -19 -41 -42s18 -41 41 -41s42 18 42 41zM506 764c0 -29 -17 -55 -44 -65c-10 -27 -36 -44 -65 -44c-19 0 -37 8 -50 21
c-12 -13 -31 -21 -49 -21c-38 0 -69 31 -69 69c0 28 17 55 44 65c10 26 37 44 65 44c19 0 37 -8 50 -21c12 13 31 21 49 21c38 0 69 -31 69 -69z" />
    <glyph glyph-name="yacute" unicode="&#xfd;" horiz-adv-x="771" 
d="M735 590c-64 44 -119 87 -169 129c-5 4 -10 6 -14 6c-12 0 -21 -11 -21 -22c0 -8 3 -15 12 -22l-140 -190l-148 154c6 6 9 13 9 19c0 12 -10 22 -22 22c-5 0 -10 -2 -15 -7c-43 -49 -95 -98 -153 -147c-5 -4 -7 -10 -7 -15c0 -12 9 -23 21 -23c7 0 15 4 23 12l171 -178
l-153 -206c-9 7 -16 10 -23 10c-13 0 -22 -11 -22 -22c0 -6 3 -13 10 -17c55 -37 113 -78 170 -129c4 -3 9 -4 13 -4c12 0 22 11 22 22c0 7 -3 14 -11 19l414 559c8 -5 15 -7 21 -7c13 0 21 10 21 20c0 6 -3 13 -9 17zM751 613c14 -10 20 -24 20 -39c0 -23 -15 -46 -41 -50
c-6 -23 -25 -41 -51 -41l-357 -482c3 -7 4 -13 4 -19c0 -14 -6 -26 -15 -35l-40 -40c-10 -10 -22 -16 -35 -16c-11 0 -21 4 -31 13c-50 45 -104 86 -165 126c-15 10 -22 25 -22 39s6 27 15 37l40 41c9 9 21 13 40 13l93 126l-138 144c-7 -3 -13 -4 -19 -4
c-28 0 -49 25 -49 51c0 12 5 25 16 36c64 61 131 117 190 185c10 11 22 16 34 16c26 0 51 -22 51 -50c0 -5 0 -10 -2 -15l105 -109l74 101c-3 7 -5 14 -5 21c0 14 6 26 15 35l41 41c9 9 21 14 34 14c11 0 21 -3 31 -12c45 -40 99 -81 167 -127zM547 802l-39 89l-171 -132
l18 -40zM571 813c1 -4 2 -7 2 -11c0 -10 -6 -20 -16 -25l-24 -11v-5c0 -10 -6 -19 -16 -24l-192 -83c-4 -2 -8 -2 -11 -2c-11 0 -21 6 -25 16l-17 40c-2 4 -3 7 -3 11c0 9 4 17 11 22l30 23c1 6 4 12 10 17l171 132c5 4 11 6 17 6c2 0 4 0 7 -1c8 -2 14 -8 18 -16z" />
    <glyph glyph-name="thorn" unicode="&#xfe;" horiz-adv-x="589" 
d="M364 367c0 -30 -24 -54 -53 -54c-6 0 -11 1 -16 2v103c5 1 10 2 16 2c29 0 53 -24 53 -53zM561 366c0 123 -99 229 -221 229c-13 0 -26 -1 -44 -1v27h6c14 0 22 11 22 22s-7 22 -22 22c-35 -4 -70 -6 -106 -6c-35 0 -70 2 -106 6c-14 0 -22 -11 -22 -22s7 -22 22 -22h6
v-514h-6c-14 0 -22 -11 -22 -22s7 -22 22 -22c35 4 71 6 106 6c36 0 71 -2 106 -6c14 0 22 11 22 22s-7 22 -22 22h-6v30c137 0 265 70 265 229zM589 366c0 -83 -33 -150 -90 -195c-34 -44 -84 -75 -147 -90c-1 -12 -7 -23 -15 -31l-40 -40c-8 -8 -20 -14 -33 -14
c-33 0 -66 5 -107 5c-35 0 -69 -5 -108 -5c-26 0 -49 23 -49 49c0 20 12 37 29 45v468c-17 8 -29 26 -29 45c0 13 6 26 15 35l41 41c8 8 20 13 32 13c32 0 64 -5 107 -5c35 0 70 5 109 5c26 0 48 -23 48 -49c0 -7 -1 -14 -4 -20c59 -2 116 -26 160 -69
c51 -49 81 -118 81 -188z" />
    <glyph glyph-name="ydieresis" unicode="&#xff;" horiz-adv-x="771" 
d="M735 590c-64 44 -119 87 -169 129c-5 4 -10 6 -14 6c-12 0 -21 -11 -21 -22c0 -8 3 -15 12 -22l-140 -190l-148 154c6 6 9 13 9 19c0 12 -10 22 -22 22c-5 0 -10 -2 -15 -7c-43 -49 -95 -98 -153 -147c-5 -4 -7 -10 -7 -15c0 -12 9 -23 21 -23c7 0 15 4 23 12l171 -178
l-153 -206c-9 7 -16 10 -23 10c-13 0 -22 -11 -22 -22c0 -6 3 -13 10 -17c55 -37 113 -78 170 -129c4 -3 9 -4 13 -4c12 0 22 11 22 22c0 7 -3 14 -11 19l414 559c8 -5 15 -7 21 -7c13 0 21 10 21 20c0 6 -3 13 -9 17zM751 613c14 -10 20 -24 20 -39c0 -23 -15 -46 -41 -50
c-6 -23 -25 -41 -51 -41l-357 -482c3 -7 4 -13 4 -19c0 -14 -6 -26 -15 -35l-40 -40c-10 -10 -22 -16 -35 -16c-11 0 -21 4 -31 13c-50 45 -104 86 -165 126c-15 10 -22 25 -22 39s6 27 15 37l40 41c9 9 21 13 40 13l93 126l-138 144c-7 -3 -13 -4 -19 -4
c-28 0 -49 25 -49 51c0 12 5 25 16 36c64 61 131 117 190 185c10 11 22 16 34 16c26 0 51 -22 51 -50c0 -5 0 -10 -2 -15l105 -109l74 101c-3 7 -5 14 -5 21c0 14 6 26 15 35l41 41c9 9 21 14 34 14c11 0 21 -3 31 -12c45 -40 99 -81 167 -127zM398 764c0 23 -19 42 -42 42
s-42 -19 -42 -42s19 -41 42 -41s42 18 42 41zM497 764c0 23 -19 42 -42 42s-41 -19 -41 -42s18 -41 41 -41s42 18 42 41zM524 764c0 -29 -17 -55 -44 -65c-10 -27 -36 -44 -65 -44c-19 0 -37 8 -50 21c-12 -13 -31 -21 -49 -21c-38 0 -69 31 -69 69c0 28 17 55 44 65
c10 26 37 44 65 44c19 0 37 -8 50 -21c12 13 31 21 49 21c38 0 69 -31 69 -69z" />
    <glyph glyph-name="Lslash" unicode="&#x141;" horiz-adv-x="535" 
d="M508 40c0 36 -4 73 -4 125c0 42 4 84 4 126c0 14 -7 21 -16 21c-12 0 -28 -15 -28 -48h-125v104l90 43v40l-90 -43v177h25c14 0 22 11 22 22s-7 22 -22 22c-39 -4 -77 -5 -115 -5c-47 0 -94 5 -143 5c-13 0 -20 -11 -20 -21c0 -12 8 -23 22 -23h31v-274l-71 -34v-40
l71 34v-163h-31c-14 0 -22 -11 -22 -22s7 -22 22 -22h356c0 -31 15 -44 27 -44c9 0 17 7 17 20zM530 169c0 -41 5 -83 5 -128c0 -13 -6 -26 -15 -35l-41 -40c-9 -8 -20 -14 -33 -14c-25 0 -46 18 -49 44h-306c-33 0 -73 2 -73 50c0 14 5 26 13 34l41 40v68
c-11 -6 -33 -18 -50 -18c-13 0 -22 6 -22 27c0 36 2 50 12 61l40 41c5 4 11 7 20 11v207c-29 0 -54 18 -54 50c0 12 4 25 13 33l41 40c9 9 21 16 34 16c41 0 82 -5 132 -5c41 0 82 5 127 5c25 0 48 -23 48 -49c0 -13 -4 -25 -13 -33l-33 -35v-87c54 26 58 27 62 27
c14 0 27 -12 27 -28v-39c0 -23 -39 -57 -55 -65l-34 -17v-39h51l33 33c7 7 17 14 35 14c26 0 49 -21 49 -47c0 -37 -5 -73 -5 -122z" />
    <glyph glyph-name="OE" unicode="&#x152;" horiz-adv-x="896" 
d="M424 311c0 46 -38 84 -84 84c-13 0 -25 -3 -37 -8c-5 -11 -8 -24 -8 -36c0 -47 38 -85 85 -85c12 0 25 3 36 8c5 12 8 24 8 37zM492 351c0 -62 -49 -113 -112 -113s-112 51 -112 113s51 111 112 111s112 -49 112 -111zM868 63c0 10 -2 22 -3 32c-1 21 -2 43 -2 64
s1 43 2 64c1 10 3 22 3 32c0 13 -9 22 -22 22c-19 0 -22 -17 -22 -36h-145v42h73c0 -12 10 -24 22 -24c13 0 22 9 22 22c0 8 -2 18 -2 26c-1 15 -2 30 -2 46c0 22 3 44 4 66c0 15 -9 22 -20 22c-14 0 -24 -11 -24 -25h-73v36h145c0 -16 0 -34 22 -34c13 0 22 9 22 22
c0 11 -2 23 -3 34c-1 22 -2 45 -2 67c0 23 1 46 2 68c1 11 3 23 3 34c0 13 -9 22 -22 22c-19 0 -22 -17 -22 -36h-305c-43 22 -91 33 -139 33c-171 0 -312 -139 -312 -311s139 -313 312 -313c43 0 85 9 124 26h320c0 -13 9 -23 22 -23s22 9 22 22zM896 647
c0 -34 -6 -68 -6 -107c0 -32 4 -64 6 -102c0 -12 -6 -23 -14 -31l-40 -41c-7 -7 -15 -12 -25 -14c1 -18 2 -36 4 -54c8 4 16 7 25 7c25 0 50 -20 50 -45c0 -31 -5 -62 -5 -100c0 -32 5 -63 5 -100c0 -12 -6 -23 -14 -31l-40 -40c-9 -9 -22 -16 -36 -16c-17 0 -33 9 -42 23
h-296c-41 -16 -84 -25 -128 -25c-188 0 -340 152 -340 340c0 80 29 158 81 219c22 27 49 55 78 79c62 52 141 81 221 81c51 0 99 -11 145 -33h274c6 21 25 36 47 36c25 0 50 -21 50 -46z" />
    <glyph glyph-name="oe" unicode="&#x153;" horiz-adv-x="896" 
d="M424 311c0 46 -38 84 -84 84c-13 0 -25 -3 -37 -8c-5 -11 -8 -24 -8 -36c0 -47 38 -85 85 -85c12 0 25 3 36 8c5 12 8 24 8 37zM492 351c0 -62 -49 -113 -112 -113s-112 51 -112 113s51 111 112 111s112 -49 112 -111zM868 63c0 10 -2 22 -3 32c-1 21 -2 43 -2 64
s1 43 2 64c1 10 3 22 3 32c0 13 -9 22 -22 22c-19 0 -22 -17 -22 -36h-145v42h73c0 -12 10 -24 22 -24c13 0 22 9 22 22c0 8 -2 18 -2 26c-1 15 -2 30 -2 46c0 22 3 44 4 66c0 15 -9 22 -20 22c-14 0 -24 -11 -24 -25h-73v36h145c0 -16 0 -34 22 -34c13 0 22 9 22 22
c0 11 -2 23 -3 34c-1 22 -2 45 -2 67c0 23 1 46 2 68c1 11 3 23 3 34c0 13 -9 22 -22 22c-19 0 -22 -17 -22 -36h-305c-43 22 -91 33 -139 33c-171 0 -312 -139 -312 -311s139 -313 312 -313c43 0 85 9 124 26h320c0 -13 9 -23 22 -23s22 9 22 22zM896 647
c0 -34 -6 -68 -6 -107c0 -32 4 -64 6 -102c0 -12 -6 -23 -14 -31l-40 -41c-7 -7 -15 -12 -25 -14c1 -18 2 -36 4 -54c8 4 16 7 25 7c25 0 50 -20 50 -45c0 -31 -5 -62 -5 -100c0 -32 5 -63 5 -100c0 -12 -6 -23 -14 -31l-40 -40c-9 -9 -22 -16 -36 -16c-17 0 -33 9 -42 23
h-296c-41 -16 -84 -25 -128 -25c-188 0 -340 152 -340 340c0 80 29 158 81 219c22 27 49 55 78 79c62 52 141 81 221 81c51 0 99 -11 145 -33h274c6 21 25 36 47 36c25 0 50 -21 50 -46z" />
    <glyph glyph-name="Scaron" unicode="&#x160;" horiz-adv-x="541" 
d="M513 419c0 36 -22 108 -28 154c-3 21 -5 42 -7 63c-1 10 0 21 -2 31c-1 9 -8 20 -18 20c-17 0 -23 -22 -23 -35c0 -4 0 -8 1 -12c-14 2 -28 3 -41 3c-131 0 -229 -94 -229 -225c0 -25 4 -49 10 -73c5 -19 17 -49 17 -68c0 -27 -32 -27 -52 -27c-8 0 -17 0 -25 1
c-2 16 -13 46 -34 46c-10 0 -14 -9 -14 -18c0 -30 21 -124 41 -249c1 -8 7 -19 18 -19c16 0 20 21 20 40c116 0 245 79 245 213c0 46 -12 91 -24 135c-2 7 -4 13 -4 20c0 25 39 26 56 26c15 0 31 -1 46 -4c2 -16 11 -41 31 -41c11 0 16 9 16 19zM541 419
c0 -12 -5 -24 -14 -33l-40 -40c-9 -9 -23 -14 -36 -14c-19 0 -35 10 -44 27c8 -31 13 -63 13 -95c0 -74 -32 -136 -90 -182c-57 -57 -105 -89 -194 -97c-4 -24 -23 -40 -46 -40c-26 0 -42 18 -46 42c-8 48 -16 95 -25 143c-5 27 -19 85 -19 109c0 12 4 24 13 32l40 39
c10 10 24 16 38 16c4 0 8 -1 12 -2c-3 17 -5 34 -5 52c0 62 21 124 63 171c10 11 22 20 32 30s18 21 29 31c48 43 110 63 174 63c3 0 6 1 10 1c4 25 24 41 49 41c27 0 46 -17 49 -44c3 -28 4 -57 8 -85c6 -53 29 -112 29 -165zM402 654h-111l-81 81c-6 6 -9 14 -9 23
c0 6 2 13 7 18l38 38c6 6 15 10 30 10h48l63 -40l65 40h57c16 0 23 -14 23 -27c0 -8 -3 -16 -7 -20zM505 796h-45l-73 -45l-71 45h-48l119 -119z" />
    <glyph glyph-name="scaron" unicode="&#x161;" horiz-adv-x="541" 
d="M513 419c0 36 -22 108 -28 154c-3 21 -5 42 -7 63c-1 10 0 21 -2 31c-1 9 -8 20 -18 20c-17 0 -23 -22 -23 -35c0 -4 0 -8 1 -12c-14 2 -28 3 -41 3c-131 0 -229 -94 -229 -225c0 -25 4 -49 10 -73c5 -19 17 -49 17 -68c0 -27 -32 -27 -52 -27c-8 0 -17 0 -25 1
c-2 16 -13 46 -34 46c-10 0 -14 -9 -14 -18c0 -30 21 -124 41 -249c1 -8 7 -19 18 -19c16 0 20 21 20 40c116 0 245 79 245 213c0 46 -12 91 -24 135c-2 7 -4 13 -4 20c0 25 39 26 56 26c15 0 31 -1 46 -4c2 -16 11 -41 31 -41c11 0 16 9 16 19zM541 419
c0 -12 -5 -24 -14 -33l-40 -40c-9 -9 -23 -14 -36 -14c-19 0 -35 10 -44 27c8 -31 13 -63 13 -95c0 -74 -32 -136 -90 -182c-57 -57 -105 -89 -194 -97c-4 -24 -23 -40 -46 -40c-26 0 -42 18 -46 42c-8 48 -16 95 -25 143c-5 27 -19 85 -19 109c0 12 4 24 13 32l40 39
c10 10 24 16 38 16c4 0 8 -1 12 -2c-3 17 -5 34 -5 52c0 62 21 124 63 171c10 11 22 20 32 30s18 21 29 31c48 43 110 63 174 63c3 0 6 1 10 1c4 25 24 41 49 41c27 0 46 -17 49 -44c3 -28 4 -57 8 -85c6 -53 29 -112 29 -165zM409 654h-111l-81 81c-6 6 -9 14 -9 23
c0 6 2 13 7 18l38 38c6 6 15 10 30 10h48l63 -40l65 40h57c16 0 23 -14 23 -27c0 -8 -3 -16 -7 -20zM512 796h-45l-73 -45l-71 45h-48l119 -119z" />
    <glyph glyph-name="Ydieresis" unicode="&#x178;" horiz-adv-x="771" 
d="M735 590c-64 44 -119 87 -169 129c-5 4 -10 6 -14 6c-12 0 -21 -11 -21 -22c0 -8 3 -15 12 -22l-140 -190l-148 154c6 6 9 13 9 19c0 12 -10 22 -22 22c-5 0 -10 -2 -15 -7c-43 -49 -95 -98 -153 -147c-5 -4 -7 -10 -7 -15c0 -12 9 -23 21 -23c7 0 15 4 23 12l171 -178
l-153 -206c-9 7 -16 10 -23 10c-13 0 -22 -11 -22 -22c0 -6 3 -13 10 -17c55 -37 113 -78 170 -129c4 -3 9 -4 13 -4c12 0 22 11 22 22c0 7 -3 14 -11 19l414 559c8 -5 15 -7 21 -7c13 0 21 10 21 20c0 6 -3 13 -9 17zM751 613c14 -10 20 -24 20 -39c0 -23 -15 -46 -41 -50
c-6 -23 -25 -41 -51 -41l-357 -482c3 -7 4 -13 4 -19c0 -14 -6 -26 -15 -35l-40 -40c-10 -10 -22 -16 -35 -16c-11 0 -21 4 -31 13c-50 45 -104 86 -165 126c-15 10 -22 25 -22 39s6 27 15 37l40 41c9 9 21 13 40 13l93 126l-138 144c-7 -3 -13 -4 -19 -4
c-28 0 -49 25 -49 51c0 12 5 25 16 36c64 61 131 117 190 185c10 11 22 16 34 16c26 0 51 -22 51 -50c0 -5 0 -10 -2 -15l105 -109l74 101c-3 7 -5 14 -5 21c0 14 6 26 15 35l41 41c9 9 21 14 34 14c11 0 21 -3 31 -12c45 -40 99 -81 167 -127zM398 764c0 23 -19 42 -42 42
s-42 -19 -42 -42s19 -41 42 -41s42 18 42 41zM497 764c0 23 -19 42 -42 42s-41 -19 -41 -42s18 -41 41 -41s42 18 42 41zM524 764c0 -29 -17 -55 -44 -65c-10 -27 -36 -44 -65 -44c-19 0 -37 8 -50 21c-12 -13 -31 -21 -49 -21c-38 0 -69 31 -69 69c0 28 17 55 44 65
c10 26 37 44 65 44c19 0 37 -8 50 -21c12 13 31 21 49 21c38 0 69 -31 69 -69z" />
    <glyph glyph-name="Zcaron" unicode="&#x17d;" horiz-adv-x="568" 
d="M541 637h-400c0 20 -11 28 -22 28s-22 -8 -22 -22c4 -37 6 -73 6 -110c0 -34 -2 -69 -6 -103c0 -13 11 -22 22 -22s22 9 22 29h92l-166 -372h380c0 -21 11 -30 23 -30c10 0 21 8 21 22c-4 35 -6 70 -6 106c0 35 2 70 6 106c0 14 -10 22 -21 22s-23 -9 -23 -27h-72z
M566 626l-149 -335c23 0 17 28 52 28c27 0 49 -23 49 -50c0 -49 -3 -92 -3 -138c0 -24 3 -47 3 -75c0 -13 -5 -25 -13 -33l-41 -41c-9 -9 -22 -14 -35 -14c-20 0 -38 12 -46 29h-356c-16 0 -27 13 -27 28c0 4 0 7 2 11l149 334h-27c-8 -18 -26 -29 -45 -29
c-25 0 -50 21 -50 47c0 32 6 65 6 105c0 36 -6 71 -6 111c0 13 6 25 15 34l40 40c9 9 22 15 35 15c19 0 36 -12 44 -28h378c16 0 27 -13 27 -28c0 -4 0 -7 -2 -11zM342 654h-111l-81 81c-6 6 -9 14 -9 23c0 6 2 13 7 18l38 38c6 6 15 10 30 10h48l63 -40l65 40h57
c16 0 23 -14 23 -27c0 -8 -3 -16 -7 -20zM445 796h-45l-73 -45l-71 45h-48l119 -119z" />
    <glyph glyph-name="zcaron" unicode="&#x17e;" horiz-adv-x="568" 
d="M541 637h-400c0 20 -11 28 -22 28s-22 -8 -22 -22c4 -37 6 -73 6 -110c0 -34 -2 -69 -6 -103c0 -13 11 -22 22 -22s22 9 22 29h92l-166 -372h380c0 -21 11 -30 23 -30c10 0 21 8 21 22c-4 35 -6 70 -6 106c0 35 2 70 6 106c0 14 -10 22 -21 22s-23 -9 -23 -27h-72z
M566 626l-149 -335c23 0 17 28 52 28c27 0 49 -23 49 -50c0 -49 -3 -92 -3 -138c0 -24 3 -47 3 -75c0 -13 -5 -25 -13 -33l-41 -41c-9 -9 -22 -14 -35 -14c-20 0 -38 12 -46 29h-356c-16 0 -27 13 -27 28c0 4 0 7 2 11l149 334h-27c-8 -18 -26 -29 -45 -29
c-25 0 -50 21 -50 47c0 32 6 65 6 105c0 36 -6 71 -6 111c0 13 6 25 15 34l40 40c9 9 22 15 35 15c19 0 36 -12 44 -28h378c16 0 27 -13 27 -28c0 -4 0 -7 -2 -11zM342 654h-111l-81 81c-6 6 -9 14 -9 23c0 6 2 13 7 18l38 38c6 6 15 10 30 10h48l63 -40l65 40h57
c16 0 23 -14 23 -27c0 -8 -3 -16 -7 -20zM445 796h-45l-73 -45l-71 45h-48l119 -119z" />
    <glyph glyph-name="florin" unicode="&#x192;" horiz-adv-x="750" 
d="M409 375h17c0 -3 0 -8 -1 -12c4 1 10 1 14 1c26 0 57 -10 60 -36c13 5 32 7 47 7c39 0 74 -18 74 -58c0 -9 -4 -18 -8 -26c-2 -3 -6 -5 -8 -5c-5 0 -9 4 -9 9c0 2 1 4 1 6c4 5 7 10 7 16c0 24 -22 40 -48 40c-58 0 -93 -35 -93 -57c0 -13 6 -27 37 -27c10 0 21 4 30 4
c6 0 10 -4 10 -10c-2 -20 -13 -38 -31 -51c-16 -11 -37 -20 -60 -20c-27 0 -55 11 -73 32c-18 -21 -45 -32 -73 -32c-23 0 -44 9 -61 20c-16 13 -28 31 -30 51c0 2 4 10 8 10c1 0 2 0 3 -1c10 -2 19 -3 29 -3c33 0 39 14 39 27c0 21 -38 57 -96 57c-26 0 -46 -16 -46 -40
c0 -6 2 -11 5 -16c1 -2 2 -4 2 -6c0 -5 -4 -9 -9 -9c-3 0 -5 2 -8 5c-5 8 -8 17 -8 26c0 40 35 58 74 58c15 0 35 -2 47 -7c3 26 35 36 59 36c4 0 10 0 15 -1c-1 5 -1 10 -1 15c0 15 2 30 5 40c2 10 6 15 10 15s8 -5 11 -15c1 -6 3 -14 3 -23l-16 -20h17c0 -8 -1 -17 -2 -23
c10 -8 16 -18 16 -28c0 -20 -13 -30 -27 -36c-13 -6 -27 -13 -27 -23c0 -21 37 -30 61 -30s60 9 60 30c0 9 -11 17 -26 23c-14 6 -27 14 -27 36c0 10 6 20 16 28c-1 7 -2 16 -2 26c0 15 2 30 4 40c3 10 7 15 11 15s7 -5 10 -15c2 -6 3 -15 4 -23zM441 353
c-13 0 -26 -4 -34 -10c-8 -5 -13 -12 -13 -19c0 -9 5 -16 13 -20c8 -7 21 -10 34 -10c14 0 26 3 34 10c8 4 13 11 13 20c0 7 -5 14 -13 19c-8 6 -20 10 -34 10zM310 353c-14 0 -27 -4 -35 -10c-8 -5 -13 -12 -13 -19c0 -9 5 -16 13 -20c8 -7 21 -10 35 -10c13 0 25 3 33 10
c8 4 14 11 14 20c0 7 -6 14 -14 19c-8 6 -20 10 -33 10zM437 236c-17 -14 -43 -19 -62 -19c-18 0 -45 5 -62 19c-17 -14 -41 -21 -62 -21c-7 0 -12 0 -19 1c11 -27 41 -41 70 -41c25 0 51 11 65 33c2 3 5 5 8 5s6 -2 8 -5c13 -22 40 -33 65 -33c28 0 59 14 69 41
c-5 -1 -11 -1 -18 -1c-21 0 -44 7 -62 21zM306 486c-62 -14 -109 -41 -109 -97c0 -8 2 -16 2 -27c0 -6 -4 -9 -9 -9c-4 0 -8 1 -8 8c-2 10 -3 19 -3 28c0 41 16 80 44 109c-22 13 -41 34 -46 63c0 6 5 9 8 9c4 0 8 -3 9 -9c9 -38 48 -59 86 -59c35 0 71 19 83 54
c1 5 5 5 8 5c5 0 8 0 9 -5c11 -35 48 -54 84 -54s76 21 85 59c0 6 5 9 8 9c5 0 9 -3 9 -12c-5 -25 -21 -45 -42 -57c29 -30 46 -69 46 -112c0 -9 -1 -18 -2 -28c-2 -7 -5 -8 -9 -8s-9 4 -9 11c2 9 3 18 3 25c0 60 -41 85 -95 95c-34 6 -68 18 -87 48
c-14 -23 -38 -39 -65 -46zM647 91c-30 -31 -72 -50 -117 -50c-23 -13 -49 -20 -76 -20h-10c-21 -10 -45 -15 -69 -15c-25 0 -48 5 -69 15h-10c-27 0 -54 7 -77 20c-44 0 -87 19 -116 50c-42 30 -79 75 -79 129c0 41 20 77 49 104c-14 28 -23 58 -23 89c0 67 37 127 97 170
c58 43 139 69 228 69s170 -26 228 -69c60 -43 97 -103 97 -170c0 -31 -9 -61 -23 -89c28 -27 49 -63 49 -104c0 -54 -37 -99 -79 -129zM560 62c56 12 104 56 104 117c0 25 -9 48 -24 67c-1 3 -2 5 -2 7c0 4 5 9 9 9c3 0 6 -2 8 -5c17 -22 26 -50 26 -78c0 -13 -2 -27 -6 -39
c20 22 33 49 33 80c0 38 -21 71 -48 96c-2 1 -3 4 -3 7c0 1 0 2 1 4c16 27 24 56 24 86c0 60 -35 116 -89 156c-56 41 -133 66 -218 66s-163 -25 -217 -65c-55 -41 -90 -97 -90 -157c0 -30 9 -59 24 -86c1 -1 1 -3 1 -3c0 -3 -1 -7 -3 -8c-27 -25 -48 -58 -48 -96
c0 -31 13 -58 32 -80c-3 12 -5 26 -5 39c0 28 9 56 26 78c2 3 6 5 8 5c4 0 9 -5 9 -9c0 -2 -1 -4 -2 -7c-16 -19 -23 -42 -23 -67c0 -61 47 -105 103 -117c-27 25 -45 58 -45 97c0 30 11 59 30 82c3 3 6 4 7 4c6 0 9 -4 9 -9c0 -1 0 -3 -2 -6c-17 -20 -26 -44 -26 -71
c0 -63 53 -110 113 -118c-31 24 -52 60 -52 103c0 6 5 10 8 10c6 0 10 -4 10 -10c0 -71 66 -120 133 -120s133 49 133 120c0 6 4 10 9 10s9 -4 9 -10c0 -43 -20 -79 -51 -103c59 8 111 55 111 118c0 27 -9 51 -25 71c-2 3 -2 5 -2 6c0 5 4 9 8 9c2 0 6 -1 8 -4
c19 -23 30 -52 30 -82c0 -39 -19 -72 -45 -97z" />
    <glyph glyph-name="circumflex" unicode="&#x2c6;" horiz-adv-x="331" 
d="M304 720l-118 119l-119 -119h48l71 45l73 -45h45zM331 720c0 -27 -23 -27 -43 -27c2 -4 3 -8 3 -12c0 -16 -11 -28 -27 -28h-46c-5 0 -10 1 -14 4l-58 36l-57 -36c-5 -3 -10 -4 -15 -4h-47c-15 0 -27 12 -27 27c0 8 3 15 8 20l158 158c5 5 12 8 19 8c8 0 15 -3 20 -8
l118 -118c5 -5 8 -12 8 -20z" />
    <glyph glyph-name="caron" unicode="&#x2c7;" horiz-adv-x="331" 
d="M201 654h-111l-81 81c-6 6 -9 14 -9 23c0 6 2 13 7 18l38 38c6 6 15 10 30 10h48l63 -40l65 40h57c16 0 23 -14 23 -27c0 -8 -3 -16 -7 -20zM304 796h-45l-73 -45l-71 45h-48l119 -119z" />
    <glyph glyph-name="breve" unicode="&#x2d8;" horiz-adv-x="302" 
d="M302 729c0 -78 -59 -142 -150 -142c-89 0 -152 72 -152 142c0 16 6 25 19 25c15 0 14 -13 24 -25c24 -29 61 -44 108 -44c49 0 87 16 109 43c9 11 10 24 24 24c16 0 18 -5 18 -23z" />
    <glyph glyph-name="dotaccent" unicode="&#x2d9;" horiz-adv-x="273" 
d="M245 730c0 59 -44 89 -89 89c-44 0 -89 -30 -89 -89c0 -49 40 -89 90 -89c48 0 88 40 88 89zM273 730c0 -42 -23 -80 -57 -100c-20 -34 -57 -57 -99 -57c-65 0 -117 53 -117 117c0 33 14 62 35 83l44 43c19 19 45 30 82 30c61 0 112 -55 112 -116z" />
    <glyph glyph-name="ring" unicode="&#x2da;" horiz-adv-x="215" 
d="M208 736c0 -34 -21 -63 -51 -75c-12 -29 -41 -50 -74 -50c-44 0 -81 35 -81 80c0 34 21 62 50 74c12 30 42 51 76 51c44 0 80 -36 80 -80zM155 736c0 -15 -12 -27 -27 -27s-28 11 -28 27c0 15 13 28 28 28s27 -13 27 -28zM188 736c0 33 -27 60 -60 60s-61 -26 -61 -60
s28 -60 61 -60s60 27 60 60z" />
    <glyph glyph-name="ogonek" unicode="&#x2db;" horiz-adv-x="199" 
d="M199 -145c0 -31 -52 -83 -117 -83c-51 0 -82 28 -82 76c0 58 42 109 127 167h40c-55 -46 -82 -90 -82 -128c0 -27 13 -41 35 -41c30 0 44 24 62 24c8 0 17 -7 17 -15z" />
    <glyph glyph-name="tilde" unicode="&#x2dc;" horiz-adv-x="285" 
d="M258 804h-43c0 -12 -3 -22 -16 -22c-23 0 -46 23 -75 23c-42 0 -56 -47 -56 -82h43c0 9 2 23 15 23c20 0 50 -22 80 -22c42 0 52 47 52 80zM285 804c0 -37 -12 -89 -52 -102c-11 -27 -37 -45 -66 -45c-26 0 -46 12 -70 18c-3 -12 -14 -20 -26 -20h-43
c-15 0 -28 13 -28 28c0 38 15 88 54 103c14 27 39 46 70 46c23 0 44 -10 64 -20c3 12 14 20 26 20h43c15 0 28 -13 28 -28z" />
    <glyph glyph-name="hungarumlaut" unicode="&#x2dd;" horiz-adv-x="412" 
d="M225 890l-79 56l-78 -201l35 -25zM385 890l-79 56l-79 -201l36 -25zM412 889c0 -6 -1 -11 -5 -16l-124 -162c-12 -16 -29 -30 -44 -45c-5 -5 -11 -7 -18 -7c-6 0 -11 2 -16 5l-44 31c-1 3 -1 6 -1 10c0 3 0 7 1 10l37 94l-74 -98c-10 -13 -32 -32 -45 -45
c-5 -5 -11 -7 -18 -7c-6 0 -11 2 -16 5l-44 31c-1 3 -1 6 -1 10c0 3 0 7 1 10l79 201c2 4 5 8 8 11l39 40c5 5 12 7 19 7c6 0 11 -2 16 -5l77 -56c3 7 2 8 8 14l40 40c5 5 12 7 19 7c6 0 11 -2 16 -5l79 -57c7 -5 11 -14 11 -23z" />
    <glyph glyph-name="mu" unicode="&#x3bc;" horiz-adv-x="683" 
d="M547 454h-97v-332c-40 -31 -99 -63 -156 -63c-82 0 -97 44 -97 117v278h-97v-350c0 -70 -35 -126 -35 -194c0 -26 16 -59 52 -59s53 31 53 57c0 43 -25 81 -25 123c28 -19 62 -33 100 -33c79 0 155 52 205 97c5 -53 36 -97 100 -97c80 0 102 59 110 114h-23
c-4 -20 -12 -60 -46 -60c-40 0 -45 50 -45 85c0 11 1 21 1 317zM567 474l-1 -337c0 -27 2 -66 26 -66c22 0 25 47 28 59h63c-9 -56 -26 -114 -75 -139c-20 -34 -51 -58 -103 -58c-63 0 -98 32 -113 79c-51 -40 -120 -79 -192 -79h-13c2 -8 3 -16 3 -25
c0 -29 -16 -63 -50 -74c-10 -25 -32 -48 -68 -48c-50 0 -72 44 -72 79c0 37 9 69 18 102c8 29 17 60 17 92v370h45v45h137v-298c0 -61 12 -97 77 -97c31 0 63 10 91 24v326h45v45h137z" />
    <glyph glyph-name="endash" unicode="&#x2013;" horiz-adv-x="613" 
d="M104 214h463c11 0 19 8 19 18v107c0 10 -8 18 -19 18h-463c-10 0 -18 -8 -18 -18v-107c0 -10 8 -18 18 -18zM0 277c0 11 4 22 12 30l51 51c7 15 23 26 41 26h463c27 0 46 -20 46 -45v-107c0 -18 -10 -34 -26 -41l-51 -51c-8 -8 -19 -12 -31 -12h-463c-23 0 -42 19 -42 42
v107z" />
    <glyph glyph-name="emdash" unicode="&#x2014;" horiz-adv-x="1076" 
d="M105 214h926c10 0 18 8 18 18v107c0 10 -8 18 -18 18h-926c-11 0 -19 -8 -19 -18v-107c0 -10 8 -18 19 -18zM0 277c0 11 4 22 12 30l51 51c7 15 22 26 42 26h926c25 0 45 -20 45 -45v-107c0 -18 -11 -34 -26 -41l-51 -51c-8 -8 -19 -12 -30 -12h-926c-25 0 -43 19 -43 42
v107z" />
    <glyph glyph-name="quoteleft" unicode="&#x2018;" horiz-adv-x="252" 
d="M224 748l-35 25l-122 -170l79 -56zM252 749c0 -4 -1 -8 -2 -11l-78 -201c-6 -15 -36 -39 -46 -49c-6 -6 -12 -9 -20 -9c-6 0 -11 2 -16 5l-79 57c-7 5 -11 14 -11 23c0 6 2 11 5 16l123 162c12 16 29 30 44 45c5 5 11 7 18 7c6 0 11 -2 16 -5l44 -31c1 -3 2 -6 2 -9z" />
    <glyph glyph-name="quoteright" unicode="&#x2019;" horiz-adv-x="252" 
d="M225 710l-79 56l-78 -201l35 -25zM252 709c0 -6 -1 -11 -5 -16l-123 -162c-10 -14 -32 -32 -45 -45c-5 -5 -11 -7 -18 -7c-6 0 -11 2 -16 5l-44 31c-1 3 -1 6 -1 10c0 3 0 7 1 10l79 201c2 4 5 8 8 11l39 40c5 5 12 7 19 7c6 0 11 -2 16 -5l79 -57c7 -5 11 -14 11 -23z
" />
    <glyph glyph-name="quotesinglbase" unicode="&#x201a;" horiz-adv-x="252" 
d="M225 60l-79 56l-78 -201l35 -25zM252 59c0 -6 -1 -11 -5 -16l-123 -162c-10 -14 -32 -32 -45 -45c-5 -5 -11 -7 -18 -7c-6 0 -11 2 -16 5l-44 31c-1 3 -1 6 -1 10c0 3 0 7 1 10l79 201c2 4 5 8 8 11l39 40c5 5 12 7 19 7c6 0 11 -2 16 -5l79 -57c7 -5 11 -14 11 -23z" />
    <glyph glyph-name="quotedblleft" unicode="&#x201c;" horiz-adv-x="412" 
d="M224 748l-35 25l-122 -170l79 -56zM384 748l-35 25l-122 -170l79 -56zM412 748c0 -4 -1 -7 -2 -10l-79 -201c-2 -4 -4 -8 -7 -11l-38 -38c-6 -6 -12 -9 -20 -9c-6 0 -11 2 -16 5l-77 56c-1 -5 -4 -11 -8 -14l-39 -38c-6 -6 -12 -9 -20 -9c-6 0 -11 2 -16 5l-79 57
c-7 5 -11 14 -11 23c0 6 2 11 5 16l123 162c12 16 29 30 44 45c5 5 11 7 18 7c6 0 11 -2 16 -5l44 -31c1 -3 2 -6 2 -9c0 -4 -1 -8 -2 -11l-36 -93l74 97c12 16 29 30 44 45c5 5 11 7 18 7c6 0 11 -2 16 -5l44 -31c1 -3 2 -7 2 -10z" />
    <glyph glyph-name="quotedblright" unicode="&#x201d;" horiz-adv-x="412" 
d="M225 710l-79 56l-78 -201l35 -25zM385 710l-79 56l-79 -201l36 -25zM412 709c0 -6 -1 -11 -5 -16l-124 -162c-12 -16 -29 -30 -44 -45c-5 -5 -11 -7 -18 -7c-6 0 -11 2 -16 5l-44 31c-1 3 -1 6 -1 10c0 3 0 7 1 10l37 94l-74 -98c-10 -13 -32 -32 -45 -45
c-5 -5 -11 -7 -18 -7c-6 0 -11 2 -16 5l-44 31c-1 3 -1 6 -1 10c0 3 0 7 1 10l79 201c2 4 5 8 8 11l39 40c5 5 12 7 19 7c6 0 11 -2 16 -5l77 -56c3 7 2 8 8 14l40 40c5 5 12 7 19 7c6 0 11 -2 16 -5l79 -57c7 -5 11 -14 11 -23z" />
    <glyph glyph-name="quotedblbase" unicode="&#x201e;" horiz-adv-x="412" 
d="M225 50l-79 56l-78 -201l35 -25zM385 50l-79 56l-79 -201l36 -25zM412 49c0 -6 -1 -11 -5 -16l-124 -162c-12 -16 -29 -30 -44 -45c-5 -5 -11 -7 -18 -7c-6 0 -11 2 -16 5l-44 31c-1 3 -1 6 -1 10c0 3 0 7 1 10l37 94l-74 -98c-10 -13 -32 -32 -45 -45
c-5 -5 -11 -7 -18 -7c-6 0 -11 2 -16 5l-44 31c-1 3 -1 6 -1 10c0 3 0 7 1 10l79 201c2 4 5 8 8 11l39 40c5 5 12 7 19 7c6 0 11 -2 16 -5l77 -56c3 7 2 8 8 14l40 40c5 5 12 7 19 7c6 0 11 -2 16 -5l79 -57c7 -5 11 -14 11 -23z" />
    <glyph glyph-name="dagger" unicode="&#x2020;" horiz-adv-x="579" 
d="M555 446c0 53 -25 79 -73 79c-40 0 -85 -37 -155 -46c0 67 46 113 46 166c0 47 -32 76 -85 76s-84 -29 -84 -76c0 -51 43 -96 48 -166c-70 9 -116 46 -156 46c-48 0 -72 -26 -72 -79s24 -80 72 -80c39 0 82 35 151 46c-2 -56 -21 -118 -56 -189c34 -72 48 -223 55 -453
h85c7 230 21 381 55 453c-35 72 -55 133 -55 185v4c69 -11 112 -46 151 -46c48 0 73 27 73 80zM575 446c0 -50 -18 -81 -53 -94c-13 -34 -42 -51 -85 -51c-22 0 -43 8 -70 19c10 -30 24 -62 41 -97c-36 -77 -51 -234 -58 -473h-44c0 -14 -1 -29 -1 -45h-123
c-7 239 -22 396 -58 473c31 63 50 116 56 164c-23 -6 -41 -15 -58 -21c-27 -11 -49 -20 -71 -20c-61 0 -92 34 -92 100c0 49 18 80 52 93c13 34 41 51 85 51c19 0 38 -7 61 -16c-10 23 -18 45 -18 71c0 41 18 72 52 86c14 35 48 55 97 55c65 0 105 -37 105 -96
c0 -29 -11 -54 -23 -81c-8 -19 -17 -40 -21 -61c25 6 44 14 62 22c26 11 49 20 71 20c61 0 93 -33 93 -99z" />
    <glyph glyph-name="daggerdbl" unicode="&#x2021;" horiz-adv-x="579" 
d="M555 34c0 53 -25 80 -73 80c-39 0 -82 -35 -151 -46c2 63 21 117 56 167c-35 50 -53 104 -55 167c69 -11 111 -46 150 -46c48 0 73 27 73 80s-25 79 -73 79c-40 0 -85 -37 -155 -46c0 67 46 113 46 166c0 47 -32 76 -85 76s-84 -29 -84 -76c0 -51 43 -96 48 -166
c-70 9 -116 46 -156 46c-48 0 -72 -26 -72 -79s24 -80 72 -80c39 0 82 35 151 46c-2 -63 -20 -117 -55 -167c35 -51 53 -105 55 -167c-69 11 -112 46 -151 46c-48 0 -72 -27 -72 -80s24 -79 72 -79c40 0 86 37 156 46c0 -67 -47 -113 -47 -166c0 -47 32 -75 85 -75
s84 28 84 75c0 51 -42 96 -47 166c70 -9 115 -46 155 -46c48 0 73 26 73 79zM575 34c0 -49 -18 -80 -53 -93c-13 -34 -41 -51 -85 -51c-20 0 -40 7 -62 16c10 -23 19 -45 19 -71c0 -42 -19 -72 -53 -86c-14 -34 -47 -54 -96 -54c-65 0 -105 35 -105 95c0 28 11 55 23 81
c7 17 18 42 22 61c-24 -6 -45 -15 -63 -22c-27 -11 -49 -20 -71 -20c-61 0 -92 33 -92 99c0 50 18 81 53 94c12 33 40 51 84 51c20 0 41 -8 66 -18c-10 25 -23 50 -39 74c33 49 53 94 58 142c-22 -6 -42 -15 -59 -21c-27 -11 -49 -20 -71 -20c-61 0 -92 34 -92 100
c0 49 18 80 52 93c13 34 41 51 85 51c19 0 38 -7 61 -16c-10 23 -18 45 -18 71c0 41 18 72 52 86c14 35 48 55 97 55c65 0 105 -37 105 -96c0 -29 -11 -54 -23 -81c-8 -19 -17 -40 -21 -61c25 6 44 14 62 22c26 11 49 20 71 20c61 0 93 -33 93 -99c0 -50 -18 -81 -53 -94
c-13 -34 -42 -51 -85 -51c-21 0 -43 8 -67 18c9 -25 23 -49 41 -74c-32 -46 -52 -93 -58 -142c23 6 41 15 58 21c27 11 49 20 71 20c61 0 93 -34 93 -100z" />
    <glyph glyph-name="bullet" unicode="&#x2022;" horiz-adv-x="273" 
d="M245 340c0 59 -44 89 -89 89c-44 0 -89 -30 -89 -89c0 -49 40 -89 90 -89c48 0 88 40 88 89zM273 340c0 -42 -23 -80 -57 -100c-20 -34 -57 -57 -99 -57c-65 0 -117 53 -117 117c0 33 14 62 35 83l44 43c19 19 45 30 82 30c61 0 112 -55 112 -116z" />
    <glyph glyph-name="ellipsis" unicode="&#x2026;" horiz-adv-x="873" 
d="M245 110c0 59 -44 89 -89 89c-44 0 -89 -30 -89 -89c0 -49 40 -89 90 -89c48 0 88 40 88 89zM545 110c0 59 -44 89 -89 89c-44 0 -89 -30 -89 -89c0 -49 40 -89 90 -89c48 0 88 40 88 89zM845 110c0 59 -44 89 -89 89c-44 0 -89 -30 -89 -89c0 -49 40 -89 90 -89
c48 0 88 40 88 89zM273 110c0 -42 -23 -80 -57 -100c-20 -34 -57 -57 -99 -57c-65 0 -117 53 -117 117c0 33 14 62 35 83l44 43c19 19 45 30 82 30c61 0 112 -55 112 -116zM573 110c0 -42 -23 -80 -57 -100c-20 -34 -57 -57 -99 -57c-65 0 -117 53 -117 117
c0 33 14 62 35 83l44 43c19 19 45 30 82 30c61 0 112 -55 112 -116zM873 110c0 -42 -23 -80 -57 -100c-20 -34 -57 -57 -99 -57c-65 0 -117 53 -117 117c0 33 14 62 35 83l44 43c19 19 45 30 82 30c61 0 112 -55 112 -116z" />
    <glyph glyph-name="perthousand" unicode="&#x2030;" horiz-adv-x="1034" 
d="M225 552c0 -11 -10 -21 -21 -21c-12 0 -21 10 -21 21c0 12 9 22 21 22s21 -10 21 -22zM575 246c0 -11 -9 -21 -21 -21s-21 10 -21 21c0 12 10 21 21 21c12 0 21 -9 21 -21zM885 246c0 -11 -9 -21 -21 -21s-21 10 -21 21c0 12 10 21 21 21c12 0 21 -9 21 -21zM346 552
c0 79 -64 142 -142 142s-142 -63 -142 -142c0 -78 64 -142 142 -142s142 64 142 142zM627 694h-141l-355 -590h141zM696 246c0 78 -64 142 -142 142s-142 -64 -142 -142s64 -142 142 -142s142 64 142 142zM1006 246c0 78 -64 142 -142 142s-142 -64 -142 -142
s64 -142 142 -142s142 64 142 142zM1034 246c0 -50 -23 -96 -58 -127c-30 -51 -86 -83 -146 -83c-66 0 -123 40 -151 96c-4 -5 -9 -9 -13 -13c-30 -51 -86 -83 -146 -83c-85 0 -157 63 -168 147c-19 -31 -38 -62 -56 -93c-3 -4 -10 -9 -17 -12c-6 -10 -12 -19 -17 -29
c-4 -6 -17 -13 -24 -13h-141c-16 0 -28 14 -28 29c0 4 1 9 4 13l169 280c-22 -10 -46 -16 -72 -16c-94 0 -170 76 -170 170c0 49 22 95 58 127c31 51 86 83 146 83c85 0 157 -63 168 -148l56 94c3 4 10 9 17 12c6 9 12 19 17 29c4 5 17 13 24 13h141c16 0 27 -13 27 -28
c0 -5 -1 -9 -4 -14l-168 -280c22 10 46 16 72 16c70 0 130 -42 156 -103c26 61 84 103 154 103c94 0 170 -76 170 -170z" />
    <glyph glyph-name="guilsinglleft" unicode="&#x2039;" horiz-adv-x="259" 
d="M234 116l-93 153l93 153c3 6 5 11 5 16c0 14 -11 24 -24 24c-7 0 -15 -4 -21 -12l-125 -167c-3 -3 -4 -9 -4 -14s2 -11 4 -14l125 -167c6 -8 14 -12 21 -12c13 0 24 10 24 24c0 5 -2 10 -5 16zM251 126c5 -9 8 -17 8 -26c0 -26 -20 -44 -45 -45c0 -26 -20 -44 -44 -44
c-13 0 -27 7 -37 20l-126 167c-4 5 -7 16 -7 26c0 8 2 19 8 26l125 167c7 9 16 15 25 18l20 27c10 13 24 20 37 20c24 0 44 -18 44 -44c0 -8 -3 -16 -8 -26l-87 -143z" />
    <glyph glyph-name="guilsinglright" unicode="&#x203a;" horiz-adv-x="259" 
d="M110 88l125 167c2 3 4 9 4 14s-1 11 -4 14l-125 167c-6 8 -14 12 -21 12c-13 0 -24 -10 -24 -24c0 -5 2 -10 5 -16l93 -153l-93 -153c-3 -6 -5 -11 -5 -16c0 -14 11 -24 24 -24c7 0 15 4 21 12zM251 243l-125 -167c-7 -9 -16 -15 -25 -18l-20 -27
c-10 -13 -24 -20 -37 -20c-24 0 -44 18 -44 44c0 9 3 17 7 25l88 144l-90 148c-3 6 -5 12 -5 21c0 26 20 44 45 45c0 26 20 44 44 44c13 0 27 -7 37 -20l125 -167c6 -7 8 -18 8 -26c0 -9 -4 -20 -8 -26z" />
    <glyph glyph-name="fraction" unicode="&#x2044;" horiz-adv-x="702" 
d="M669 668h-142l-427 -569h142zM700 673c-148 -197 -295 -395 -443 -592c-2 -2 -7 -4 -9 -4h-28c-10 -14 -20 -27 -30 -41c-2 -2 -7 -4 -9 -4h-170c-6 0 -11 5 -11 11c0 2 0 5 2 7c148 197 296 394 443 591c2 2 7 5 9 5h28c10 13 20 27 31 40c1 2 6 5 8 5h170
c7 0 11 -6 11 -11c0 -3 0 -5 -2 -7z" />
    <glyph glyph-name="Euro" unicode="&#x20ac;" horiz-adv-x="584" 
d="M550 484c5 4 7 9 7 14c0 12 -12 23 -24 23c-5 0 -10 -2 -14 -6l-4 -3c-45 44 -104 68 -166 68c-116 0 -213 -84 -234 -194h-28c-13 0 -19 -10 -19 -19c0 -10 6 -20 19 -20h23c0 -5 0 -9 1 -14h-24c-13 0 -19 -10 -19 -19c0 -10 6 -20 19 -20h28
c21 -110 118 -194 234 -194c51 0 100 16 141 47l9 -9c5 -5 10 -7 15 -7c12 0 23 11 23 23c0 5 -2 10 -7 15c-46 41 -89 81 -121 121c-5 5 -10 7 -15 7c-12 0 -23 -11 -23 -23c0 -4 2 -9 6 -14c-9 -3 -19 -5 -28 -5c-30 0 -56 16 -70 39h78c12 0 19 10 19 19
c0 10 -7 20 -19 20h-91c-1 2 -1 5 -1 7s0 4 1 7h91c12 0 19 10 19 19c0 10 -7 20 -19 20h-79c15 23 41 39 71 39c21 0 41 -8 57 -23l-9 -9c-5 -5 -7 -10 -7 -15c0 -12 11 -22 23 -22c5 0 10 1 15 6c33 41 75 80 122 122zM568 463c-41 -35 -86 -78 -118 -118
c-9 -11 -23 -15 -31 -28c5 -3 9 -6 12 -10c29 -37 68 -77 117 -117c12 -10 17 -23 17 -35c0 -13 -5 -26 -14 -35l-41 -41c-10 -10 -23 -16 -36 -16c-9 0 -18 3 -26 9c-42 -26 -90 -40 -140 -40c-119 0 -223 81 -255 195c-28 0 -53 15 -53 46c0 10 3 19 8 27
c-5 7 -8 16 -8 26c0 14 4 24 12 32l40 40c4 3 8 7 13 9c17 40 44 75 78 102c49 61 123 99 205 99c62 0 121 -22 170 -62c6 2 11 3 17 3c28 0 49 -25 49 -51c0 -13 -5 -25 -16 -35z" />
    <glyph glyph-name="trademark" unicode="&#x2122;" horiz-adv-x="433" 
d="M155 627c0 14 1 41 1 42c0 3 -1 3 -2 3c-2 0 -5 -3 -5 -13h-117c0 10 -3 12 -4 13c-2 0 -2 -2 -2 -4c0 -13 1 -27 1 -41c0 -10 0 -20 -1 -31c0 -2 1 -3 2 -3c2 1 4 3 4 13h32v-100c-11 0 -14 -3 -14 -5c0 -1 0 -1 3 -1c12 0 25 1 38 1c12 0 25 -1 38 -1c2 0 3 0 3 1
c-1 2 -5 5 -16 5v100h33c0 -10 3 -12 5 -13c1 0 2 1 2 3c-1 11 -1 21 -1 31zM419 515c0 2 -1 3 -3 3c-1 0 -2 0 -6 -2l-56 137c8 0 11 2 11 5c0 0 0 1 -3 1h-30l-35 -63l-37 63h-29c-3 0 -4 -1 -4 -1c0 -2 4 -5 12 -5l-56 -137c-4 2 -6 2 -7 2c-2 0 -3 -1 -3 -3
c0 -1 0 -3 2 -3c36 -15 47 -26 58 -26c1 0 3 1 3 3s-1 3 -6 5l27 65l40 -69l39 69l26 -64c-5 -2 -6 -4 -6 -6s1 -3 5 -3l56 26c1 0 2 2 2 3zM170 669c-1 -15 -1 -28 -1 -39s1 -21 1 -34c0 -10 -10 -17 -17 -23c-3 -3 -7 -6 -12 -6s-8 2 -11 4v-51c9 -1 16 -6 16 -17
s-9 -17 -17 -24c-3 -3 -7 -5 -13 -5c-12 1 -25 2 -38 2c-12 0 -24 -1 -37 -2c-10 0 -17 9 -17 18c0 10 8 15 13 21v68c-1 0 -2 -1 -3 -1c0 -2 -1 -4 -4 -7c-2 -3 -6 -6 -13 -6c-9 0 -17 8 -17 18c0 16 1 31 1 47c0 8 -1 16 -1 25c0 10 12 19 18 25c2 3 7 4 11 4
s14 -5 14 -13h95c0 6 7 13 15 13s17 -6 17 -17zM433 514c0 -10 -1 -18 -23 -27c-19 -8 -37 -15 -55 -25c-2 -1 -5 -2 -8 -2c-9 0 -17 9 -17 18c0 3 2 7 4 10l-10 22l-18 -32c-4 -8 -10 -17 -17 -17c-4 0 -8 3 -13 10l-25 37l-4 -10c2 -2 3 -5 3 -9c0 -10 -11 -18 -17 -24
c-3 -3 -7 -5 -12 -5c-3 0 -6 1 -8 2c-18 10 -36 18 -55 25c-6 3 -11 8 -11 16c0 11 9 24 19 27l42 102c-4 3 -6 7 -6 13c0 10 10 17 16 23c4 4 8 5 13 6h31c4 0 7 -2 9 -6l23 -39c9 16 11 24 22 35l7 6c2 2 5 4 8 4c10 0 21 -1 31 -1c9 0 18 -7 18 -17c0 -5 -3 -10 -7 -13
l46 -111c8 -2 14 -9 14 -18z" />
    <glyph glyph-name="minus" unicode="&#x2212;" horiz-adv-x="633" 
d="M609 231h-585v135h585v-135z" />
    </font>
</defs>
</svg>
